<svg width="901" height="147" viewBox="0 0 901 147" fill="none" xmlns="http://www.w3.org/2000/svg">
<g filter="url(#filter0_d_109_192)">
<path d="M656.76 87.3H659.56C659.56 88.94 659.22 90.4067 658.54 91.7C657.86 92.98 656.88 94.0667 655.6 94.96C654.32 95.84 652.753 96.52 650.9 97L649.9 94.9C651.433 94.5267 652.707 94.0267 653.72 93.4C654.733 92.7733 655.493 92.0533 656 91.24C656.507 90.4133 656.76 89.5467 656.76 88.64V87.3ZM650.96 87.3H658.48V89.4H650.96V87.3ZM662.54 86.24H665.2V96.56H662.54V86.24ZM652.94 97.36H665.2V104.58H652.94V97.36ZM662.58 99.44H655.56V102.48H662.58V99.44ZM671.998 97.96H674.698V104.76H671.998V97.96ZM678.398 97.96H681.098V104.76H678.398V97.96ZM668.218 96.56H684.978V98.7H668.218V96.56ZM676.558 86.88C677.878 86.88 679.038 87.0467 680.038 87.38C681.052 87.7133 681.838 88.1933 682.398 88.82C682.958 89.4467 683.238 90.18 683.238 91.02C683.238 91.86 682.958 92.5933 682.398 93.22C681.838 93.8333 681.052 94.3133 680.038 94.66C679.038 94.9933 677.878 95.16 676.558 95.16C675.238 95.16 674.072 94.9933 673.058 94.66C672.058 94.3133 671.272 93.8333 670.698 93.22C670.138 92.5933 669.858 91.86 669.858 91.02C669.858 90.18 670.138 89.4467 670.698 88.82C671.272 88.1933 672.058 87.7133 673.058 87.38C674.072 87.0467 675.238 86.88 676.558 86.88ZM676.558 88.98C675.745 88.98 675.038 89.06 674.438 89.22C673.852 89.38 673.398 89.6133 673.078 89.92C672.758 90.2133 672.598 90.58 672.598 91.02C672.598 91.46 672.758 91.8333 673.078 92.14C673.398 92.4333 673.852 92.66 674.438 92.82C675.038 92.9667 675.745 93.04 676.558 93.04C677.372 93.04 678.072 92.9667 678.658 92.82C679.245 92.66 679.698 92.4333 680.018 92.14C680.352 91.8333 680.518 91.46 680.518 91.02C680.518 90.58 680.352 90.2133 680.018 89.92C679.698 89.6133 679.245 89.38 678.658 89.22C678.072 89.06 677.372 88.98 676.558 88.98ZM687.537 87.7H696.517V96.68H687.537V87.7ZM693.917 89.82H690.157V94.56H693.917V89.82ZM699.337 86.26H701.997V99.42H699.337V86.26ZM689.657 102.26H702.477V104.38H689.657V102.26ZM689.657 98.24H692.317V103.2H689.657V98.24Z" fill="#1C1C1C"/>
</g>
<g filter="url(#filter1_d_109_192)">
<path d="M650.515 131V120.005H651.895V125.525H651.925L656.53 120.005H658.105L654.655 124.175L658.63 131H657.085L653.785 125.27L651.895 127.52V131H650.515ZM660.212 131V120.005H661.592V131H660.212ZM664.607 131V120.005H666.272L668.372 125.885C668.512 126.255 668.647 126.635 668.777 127.025C668.907 127.415 669.037 127.8 669.167 128.18H669.227C669.367 127.8 669.497 127.415 669.617 127.025C669.747 126.635 669.872 126.255 669.992 125.885L672.092 120.005H673.757V131H672.467V124.91C672.467 124.59 672.477 124.245 672.497 123.875C672.517 123.495 672.542 123.115 672.572 122.735C672.602 122.345 672.627 121.99 672.647 121.67H672.587L671.702 124.175L669.632 129.89H668.702L666.617 124.175L665.732 121.67H665.672C665.712 121.99 665.742 122.345 665.762 122.735C665.792 123.115 665.812 123.495 665.822 123.875C665.842 124.245 665.852 124.59 665.852 124.91V131H664.607ZM681.904 131V126.74L678.604 120.005H680.074L681.499 123.11C681.679 123.52 681.854 123.92 682.024 124.31C682.194 124.7 682.379 125.105 682.579 125.525H682.639C682.839 125.105 683.029 124.7 683.209 124.31C683.389 123.92 683.569 123.52 683.749 123.11L685.159 120.005H686.599L683.284 126.74V131H681.904ZM691.798 131.195C691.238 131.195 690.718 131.115 690.238 130.955C689.758 130.795 689.338 130.53 688.978 130.16C688.628 129.79 688.353 129.3 688.153 128.69C687.953 128.08 687.853 127.34 687.853 126.47V120.005H689.233V126.5C689.233 127.38 689.348 128.075 689.578 128.585C689.808 129.085 690.113 129.445 690.493 129.665C690.883 129.875 691.318 129.98 691.798 129.98C692.288 129.98 692.728 129.875 693.118 129.665C693.508 129.445 693.818 129.085 694.048 128.585C694.288 128.075 694.408 127.38 694.408 126.5V120.005H695.743V126.47C695.743 127.34 695.643 128.08 695.443 128.69C695.253 129.3 694.978 129.79 694.618 130.16C694.258 130.53 693.838 130.795 693.358 130.955C692.878 131.115 692.358 131.195 691.798 131.195ZM698.708 131V120.005H700.373L702.473 125.885C702.613 126.255 702.748 126.635 702.878 127.025C703.008 127.415 703.138 127.8 703.268 128.18H703.328C703.468 127.8 703.598 127.415 703.718 127.025C703.848 126.635 703.973 126.255 704.093 125.885L706.193 120.005H707.858V131H706.568V124.91C706.568 124.59 706.578 124.245 706.598 123.875C706.618 123.495 706.643 123.115 706.673 122.735C706.703 122.345 706.728 121.99 706.748 121.67H706.688L705.803 124.175L703.733 129.89H702.803L700.718 124.175L699.833 121.67H699.773C699.813 121.99 699.843 122.345 699.863 122.735C699.893 123.115 699.913 123.495 699.923 123.875C699.943 124.245 699.953 124.59 699.953 124.91V131H698.708ZM710.881 131V120.005H712.261V131H710.881ZM715.276 131V120.005H716.686L720.706 126.935L721.891 129.2H721.966C721.916 128.65 721.871 128.075 721.831 127.475C721.791 126.875 721.771 126.29 721.771 125.72V120.005H723.091V131H721.666L717.661 124.055L716.476 121.805H716.416C716.446 122.355 716.481 122.92 716.521 123.5C716.561 124.07 716.581 124.645 716.581 125.225V131H715.276ZM728.12 133.685L732.62 119.09H733.61L729.125 133.685H728.12ZM737.244 131L740.964 120.005H742.509L746.244 131H744.774L742.854 124.85C742.654 124.22 742.464 123.605 742.284 123.005C742.104 122.395 741.924 121.77 741.744 121.13H741.684C741.514 121.77 741.334 122.395 741.144 123.005C740.964 123.605 740.779 124.22 740.589 124.85L738.639 131H737.244ZM739.179 127.64V126.545H744.249V127.64H739.179ZM747.69 131V122.855H748.815L748.95 124.34H748.98C749.26 123.82 749.6 123.41 750 123.11C750.41 122.8 750.84 122.645 751.29 122.645C751.48 122.645 751.64 122.66 751.77 122.69C751.91 122.71 752.04 122.755 752.16 122.825L751.905 124.01C751.765 123.97 751.64 123.94 751.53 123.92C751.42 123.89 751.28 123.875 751.11 123.875C750.78 123.875 750.425 124.02 750.045 124.31C749.665 124.59 749.34 125.075 749.07 125.765V131H747.69ZM756.51 131.195C755.79 131.195 755.14 131.03 754.56 130.7C753.99 130.36 753.535 129.875 753.195 129.245C752.865 128.605 752.7 127.835 752.7 126.935C752.7 126.025 752.88 125.255 753.24 124.625C753.6 123.985 754.08 123.495 754.68 123.155C755.28 122.815 755.925 122.645 756.615 122.645C757.145 122.645 757.6 122.74 757.98 122.93C758.37 123.12 758.705 123.345 758.985 123.605L758.295 124.505C758.065 124.295 757.815 124.125 757.545 123.995C757.285 123.865 756.995 123.8 756.675 123.8C756.185 123.8 755.745 123.93 755.355 124.19C754.965 124.45 754.66 124.815 754.44 125.285C754.22 125.755 754.11 126.305 754.11 126.935C754.11 127.555 754.215 128.1 754.425 128.57C754.645 129.04 754.94 129.405 755.31 129.665C755.69 129.925 756.13 130.055 756.63 130.055C757.01 130.055 757.36 129.98 757.68 129.83C758 129.67 758.29 129.475 758.55 129.245L759.15 130.175C758.78 130.495 758.37 130.745 757.92 130.925C757.47 131.105 757 131.195 756.51 131.195ZM760.946 131V119.06H762.326V122.33L762.266 124.01C762.646 123.63 763.051 123.31 763.481 123.05C763.911 122.78 764.406 122.645 764.966 122.645C765.826 122.645 766.456 122.92 766.856 123.47C767.256 124.01 767.456 124.8 767.456 125.84V131H766.091V126.02C766.091 125.25 765.966 124.695 765.716 124.355C765.476 124.015 765.086 123.845 764.546 123.845C764.126 123.845 763.751 123.95 763.421 124.16C763.091 124.37 762.726 124.68 762.326 125.09V131H760.946ZM770.058 131V122.855H771.438V131H770.058ZM770.748 121.175C770.478 121.175 770.258 121.095 770.088 120.935C769.928 120.765 769.848 120.54 769.848 120.26C769.848 119.99 769.928 119.775 770.088 119.615C770.258 119.455 770.478 119.375 770.748 119.375C771.018 119.375 771.238 119.455 771.408 119.615C771.578 119.775 771.663 119.99 771.663 120.26C771.663 120.54 771.578 120.765 771.408 120.935C771.238 121.095 771.018 121.175 770.748 121.175ZM776.739 131.195C776.169 131.195 775.714 131.085 775.374 130.865C775.034 130.635 774.789 130.315 774.639 129.905C774.499 129.495 774.429 129.02 774.429 128.48V123.965H773.214V122.93L774.504 122.855L774.654 120.56H775.794V122.855H778.014V123.965H775.794V128.525C775.794 129.015 775.884 129.4 776.064 129.68C776.254 129.95 776.584 130.085 777.054 130.085C777.204 130.085 777.364 130.065 777.534 130.025C777.704 129.975 777.854 129.92 777.984 129.86L778.254 130.895C778.024 130.975 777.779 131.045 777.519 131.105C777.259 131.165 776.999 131.195 776.739 131.195ZM782.879 131.195C782.149 131.195 781.489 131.025 780.899 130.685C780.309 130.345 779.839 129.86 779.489 129.23C779.149 128.59 778.979 127.825 778.979 126.935C778.979 126.265 779.079 125.67 779.279 125.15C779.479 124.62 779.749 124.17 780.089 123.8C780.439 123.42 780.834 123.135 781.274 122.945C781.714 122.745 782.164 122.645 782.624 122.645C783.324 122.645 783.914 122.8 784.394 123.11C784.874 123.42 785.239 123.865 785.489 124.445C785.749 125.015 785.879 125.69 785.879 126.47C785.879 126.62 785.874 126.76 785.864 126.89C785.854 127.02 785.839 127.14 785.819 127.25H780.329C780.359 127.83 780.489 128.335 780.719 128.765C780.959 129.185 781.274 129.515 781.664 129.755C782.054 129.985 782.509 130.1 783.029 130.1C783.429 130.1 783.789 130.045 784.109 129.935C784.439 129.815 784.759 129.655 785.069 129.455L785.549 130.37C785.199 130.6 784.804 130.795 784.364 130.955C783.924 131.115 783.429 131.195 782.879 131.195ZM780.314 126.275H784.679C784.679 125.455 784.499 124.83 784.139 124.4C783.789 123.96 783.294 123.74 782.654 123.74C782.274 123.74 781.914 123.84 781.574 124.04C781.244 124.24 780.964 124.525 780.734 124.895C780.514 125.265 780.374 125.725 780.314 126.275ZM791.095 131.195C790.375 131.195 789.725 131.03 789.145 130.7C788.575 130.36 788.12 129.875 787.78 129.245C787.45 128.605 787.285 127.835 787.285 126.935C787.285 126.025 787.465 125.255 787.825 124.625C788.185 123.985 788.665 123.495 789.265 123.155C789.865 122.815 790.51 122.645 791.2 122.645C791.73 122.645 792.185 122.74 792.565 122.93C792.955 123.12 793.29 123.345 793.57 123.605L792.88 124.505C792.65 124.295 792.4 124.125 792.13 123.995C791.87 123.865 791.58 123.8 791.26 123.8C790.77 123.8 790.33 123.93 789.94 124.19C789.55 124.45 789.245 124.815 789.025 125.285C788.805 125.755 788.695 126.305 788.695 126.935C788.695 127.555 788.8 128.1 789.01 128.57C789.23 129.04 789.525 129.405 789.895 129.665C790.275 129.925 790.715 130.055 791.215 130.055C791.595 130.055 791.945 129.98 792.265 129.83C792.585 129.67 792.875 129.475 793.135 129.245L793.735 130.175C793.365 130.495 792.955 130.745 792.505 130.925C792.055 131.105 791.585 131.195 791.095 131.195ZM797.876 131.195C797.306 131.195 796.851 131.085 796.511 130.865C796.171 130.635 795.926 130.315 795.776 129.905C795.636 129.495 795.566 129.02 795.566 128.48V123.965H794.351V122.93L795.641 122.855L795.791 120.56H796.931V122.855H799.151V123.965H796.931V128.525C796.931 129.015 797.021 129.4 797.201 129.68C797.391 129.95 797.721 130.085 798.191 130.085C798.341 130.085 798.501 130.065 798.671 130.025C798.841 129.975 798.991 129.92 799.121 129.86L799.391 130.895C799.161 130.975 798.916 131.045 798.656 131.105C798.396 131.165 798.136 131.195 797.876 131.195ZM803.366 131.195C802.506 131.195 801.871 130.925 801.461 130.385C801.061 129.845 800.861 129.055 800.861 128.015V122.855H802.241V127.85C802.241 128.6 802.361 129.15 802.601 129.5C802.841 129.84 803.231 130.01 803.771 130.01C804.191 130.01 804.566 129.9 804.896 129.68C805.226 129.46 805.586 129.11 805.976 128.63V122.855H807.341V131H806.201L806.096 129.725H806.051C805.671 130.165 805.266 130.52 804.836 130.79C804.416 131.06 803.926 131.195 803.366 131.195ZM810.092 131V122.855H811.217L811.352 124.34H811.382C811.662 123.82 812.002 123.41 812.402 123.11C812.812 122.8 813.242 122.645 813.692 122.645C813.882 122.645 814.042 122.66 814.172 122.69C814.312 122.71 814.442 122.755 814.562 122.825L814.307 124.01C814.167 123.97 814.042 123.94 813.932 123.92C813.822 123.89 813.682 123.875 813.512 123.875C813.182 123.875 812.827 124.02 812.447 124.31C812.067 124.59 811.742 125.075 811.472 125.765V131H810.092ZM817.343 131.195C816.893 131.195 816.488 131.105 816.128 130.925C815.768 130.745 815.483 130.485 815.273 130.145C815.073 129.795 814.973 129.375 814.973 128.885C814.973 127.995 815.368 127.315 816.158 126.845C816.958 126.365 818.228 126.03 819.968 125.84C819.968 125.49 819.918 125.16 819.818 124.85C819.728 124.53 819.563 124.275 819.323 124.085C819.083 123.885 818.738 123.785 818.288 123.785C817.818 123.785 817.373 123.88 816.953 124.07C816.543 124.25 816.173 124.445 815.843 124.655L815.318 123.71C815.568 123.55 815.858 123.39 816.188 123.23C816.518 123.06 816.878 122.92 817.268 122.81C817.658 122.7 818.073 122.645 818.513 122.645C819.173 122.645 819.708 122.785 820.118 123.065C820.538 123.345 820.843 123.735 821.033 124.235C821.233 124.725 821.333 125.31 821.333 125.99V131H820.208L820.088 130.025H820.043C819.663 130.345 819.243 130.62 818.783 130.85C818.333 131.08 817.853 131.195 817.343 131.195ZM817.733 130.085C818.123 130.085 818.493 129.995 818.843 129.815C819.203 129.635 819.578 129.37 819.968 129.02V126.755C819.058 126.855 818.333 127 817.793 127.19C817.253 127.37 816.868 127.595 816.638 127.865C816.408 128.125 816.293 128.435 816.293 128.795C816.293 129.265 816.433 129.6 816.713 129.8C816.993 129.99 817.333 130.085 817.733 130.085ZM825.36 131.195C825.02 131.195 824.745 131.125 824.535 130.985C824.325 130.845 824.17 130.64 824.07 130.37C823.97 130.09 823.92 129.76 823.92 129.38V119.06H825.3V129.47C825.3 129.68 825.335 129.83 825.405 129.92C825.485 130.01 825.575 130.055 825.675 130.055C825.715 130.055 825.755 130.055 825.795 130.055C825.835 130.045 825.89 130.035 825.96 130.025L826.155 131.075C826.055 131.105 825.945 131.13 825.825 131.15C825.705 131.18 825.55 131.195 825.36 131.195ZM831.672 131V120.005H834.417C835.547 120.005 836.497 120.22 837.267 120.65C838.037 121.07 838.617 121.685 839.007 122.495C839.397 123.305 839.592 124.295 839.592 125.465C839.592 126.625 839.397 127.62 839.007 128.45C838.617 129.28 838.042 129.915 837.282 130.355C836.522 130.785 835.587 131 834.477 131H831.672ZM833.052 129.86H834.297C835.157 129.86 835.872 129.69 836.442 129.35C837.022 129 837.452 128.495 837.732 127.835C838.022 127.175 838.167 126.385 838.167 125.465C838.167 124.525 838.022 123.735 837.732 123.095C837.452 122.455 837.022 121.97 836.442 121.64C835.872 121.3 835.157 121.13 834.297 121.13H833.052V129.86ZM845.164 131.195C844.434 131.195 843.774 131.025 843.184 130.685C842.594 130.345 842.124 129.86 841.774 129.23C841.434 128.59 841.264 127.825 841.264 126.935C841.264 126.265 841.364 125.67 841.564 125.15C841.764 124.62 842.034 124.17 842.374 123.8C842.724 123.42 843.119 123.135 843.559 122.945C843.999 122.745 844.449 122.645 844.909 122.645C845.609 122.645 846.199 122.8 846.679 123.11C847.159 123.42 847.524 123.865 847.774 124.445C848.034 125.015 848.164 125.69 848.164 126.47C848.164 126.62 848.159 126.76 848.149 126.89C848.139 127.02 848.124 127.14 848.104 127.25H842.614C842.644 127.83 842.774 128.335 843.004 128.765C843.244 129.185 843.559 129.515 843.949 129.755C844.339 129.985 844.794 130.1 845.314 130.1C845.714 130.1 846.074 130.045 846.394 129.935C846.724 129.815 847.044 129.655 847.354 129.455L847.834 130.37C847.484 130.6 847.089 130.795 846.649 130.955C846.209 131.115 845.714 131.195 845.164 131.195ZM842.599 126.275H846.964C846.964 125.455 846.784 124.83 846.424 124.4C846.074 123.96 845.579 123.74 844.939 123.74C844.559 123.74 844.199 123.84 843.859 124.04C843.529 124.24 843.249 124.525 843.019 124.895C842.799 125.265 842.659 125.725 842.599 126.275ZM852.3 131.195C851.73 131.195 851.175 131.09 850.635 130.88C850.105 130.66 849.65 130.39 849.27 130.07L849.93 129.155C850.29 129.445 850.66 129.68 851.04 129.86C851.42 130.04 851.855 130.13 852.345 130.13C852.885 130.13 853.285 130.01 853.545 129.77C853.815 129.52 853.95 129.215 853.95 128.855C853.95 128.575 853.855 128.345 853.665 128.165C853.485 127.975 853.25 127.815 852.96 127.685C852.68 127.545 852.39 127.42 852.09 127.31C851.71 127.16 851.335 126.995 850.965 126.815C850.605 126.625 850.305 126.385 850.065 126.095C849.835 125.795 849.72 125.415 849.72 124.955C849.72 124.515 849.83 124.125 850.05 123.785C850.27 123.435 850.59 123.16 851.01 122.96C851.43 122.75 851.935 122.645 852.525 122.645C853.025 122.645 853.49 122.735 853.92 122.915C854.36 123.095 854.735 123.315 855.045 123.575L854.385 124.43C854.105 124.23 853.815 124.06 853.515 123.92C853.225 123.78 852.9 123.71 852.54 123.71C852.02 123.71 851.635 123.83 851.385 124.07C851.145 124.3 851.025 124.575 851.025 124.895C851.025 125.145 851.105 125.355 851.265 125.525C851.435 125.695 851.655 125.84 851.925 125.96C852.195 126.07 852.48 126.185 852.78 126.305C853.08 126.415 853.375 126.535 853.665 126.665C853.965 126.795 854.23 126.95 854.46 127.13C854.7 127.31 854.89 127.535 855.03 127.805C855.18 128.065 855.255 128.39 855.255 128.78C855.255 129.22 855.14 129.625 854.91 129.995C854.69 130.365 854.36 130.66 853.92 130.88C853.49 131.09 852.95 131.195 852.3 131.195ZM857.187 131V122.855H858.567V131H857.187ZM857.877 121.175C857.607 121.175 857.387 121.095 857.217 120.935C857.057 120.765 856.977 120.54 856.977 120.26C856.977 119.99 857.057 119.775 857.217 119.615C857.387 119.455 857.607 119.375 857.877 119.375C858.147 119.375 858.367 119.455 858.537 119.615C858.707 119.775 858.792 119.99 858.792 120.26C858.792 120.54 858.707 120.765 858.537 120.935C858.367 121.095 858.147 121.175 857.877 121.175ZM864.063 134.75C863.403 134.75 862.818 134.665 862.308 134.495C861.798 134.325 861.403 134.075 861.123 133.745C860.843 133.425 860.703 133.035 860.703 132.575C860.703 132.225 860.808 131.885 861.018 131.555C861.228 131.235 861.523 130.96 861.903 130.73V130.655C861.693 130.525 861.518 130.35 861.378 130.13C861.238 129.91 861.168 129.64 861.168 129.32C861.168 128.98 861.263 128.68 861.453 128.42C861.653 128.16 861.858 127.955 862.068 127.805V127.745C861.798 127.535 861.553 127.24 861.333 126.86C861.113 126.48 861.003 126.045 861.003 125.555C861.003 124.955 861.143 124.44 861.423 124.01C861.703 123.57 862.073 123.235 862.533 123.005C863.003 122.765 863.508 122.645 864.048 122.645C864.288 122.645 864.503 122.665 864.693 122.705C864.893 122.745 865.063 122.795 865.203 122.855H868.038V123.905H866.373C866.573 124.095 866.733 124.335 866.853 124.625C866.973 124.915 867.033 125.235 867.033 125.585C867.033 126.165 866.898 126.67 866.628 127.1C866.368 127.52 866.013 127.845 865.563 128.075C865.113 128.305 864.608 128.42 864.048 128.42C863.858 128.42 863.653 128.395 863.433 128.345C863.223 128.295 863.028 128.225 862.848 128.135C862.698 128.255 862.573 128.39 862.473 128.54C862.373 128.69 862.323 128.88 862.323 129.11C862.323 129.36 862.423 129.57 862.623 129.74C862.823 129.91 863.198 129.995 863.748 129.995H865.353C866.293 129.995 866.998 130.15 867.468 130.46C867.948 130.77 868.188 131.26 868.188 131.93C868.188 132.43 868.018 132.895 867.678 133.325C867.338 133.755 866.858 134.1 866.238 134.36C865.628 134.62 864.903 134.75 864.063 134.75ZM864.048 127.49C864.368 127.49 864.658 127.41 864.918 127.25C865.188 127.09 865.398 126.865 865.548 126.575C865.708 126.285 865.788 125.945 865.788 125.555C865.788 125.155 865.708 124.815 865.548 124.535C865.398 124.245 865.193 124.025 864.933 123.875C864.673 123.725 864.378 123.65 864.048 123.65C863.738 123.65 863.448 123.725 863.178 123.875C862.918 124.025 862.708 124.24 862.548 124.52C862.398 124.8 862.323 125.145 862.323 125.555C862.323 125.945 862.403 126.285 862.563 126.575C862.723 126.865 862.933 127.09 863.193 127.25C863.453 127.41 863.738 127.49 864.048 127.49ZM864.258 133.805C864.778 133.805 865.228 133.725 865.608 133.565C865.998 133.405 866.298 133.195 866.508 132.935C866.728 132.685 866.838 132.425 866.838 132.155C866.838 131.765 866.698 131.495 866.418 131.345C866.138 131.195 865.728 131.12 865.188 131.12H863.778C863.628 131.12 863.458 131.11 863.268 131.09C863.088 131.08 862.908 131.05 862.728 131C862.438 131.2 862.228 131.42 862.098 131.66C861.968 131.91 861.903 132.15 861.903 132.38C861.903 132.81 862.108 133.155 862.518 133.415C862.938 133.675 863.518 133.805 864.258 133.805ZM869.784 131V122.855H870.909L871.044 124.04H871.074C871.464 123.65 871.874 123.32 872.304 123.05C872.744 122.78 873.244 122.645 873.804 122.645C874.664 122.645 875.294 122.92 875.694 123.47C876.094 124.01 876.294 124.8 876.294 125.84V131H874.929V126.02C874.929 125.25 874.804 124.695 874.554 124.355C874.314 124.015 873.924 123.845 873.384 123.845C872.964 123.845 872.589 123.95 872.259 124.16C871.929 124.37 871.564 124.68 871.164 125.09V131H869.784ZM886.749 131.195C885.779 131.195 884.919 130.97 884.169 130.52C883.429 130.07 882.844 129.42 882.414 128.57C881.994 127.72 881.784 126.7 881.784 125.51C881.784 124.62 881.909 123.825 882.159 123.125C882.409 122.415 882.759 121.815 883.209 121.325C883.669 120.835 884.204 120.46 884.814 120.2C885.424 119.94 886.094 119.81 886.824 119.81C887.594 119.81 888.234 119.955 888.744 120.245C889.254 120.525 889.669 120.83 889.989 121.16L889.239 122.06C888.959 121.77 888.629 121.525 888.249 121.325C887.879 121.125 887.419 121.025 886.869 121.025C886.129 121.025 885.484 121.205 884.934 121.565C884.384 121.925 883.959 122.44 883.659 123.11C883.359 123.77 883.209 124.555 883.209 125.465C883.209 126.395 883.349 127.2 883.629 127.88C883.919 128.55 884.339 129.07 884.889 129.44C885.439 129.8 886.104 129.98 886.884 129.98C887.274 129.98 887.644 129.925 887.994 129.815C888.354 129.695 888.644 129.535 888.864 129.335V126.455H886.524V125.3H890.139V129.92C889.779 130.29 889.304 130.595 888.714 130.835C888.134 131.075 887.479 131.195 886.749 131.195Z" fill="#9E352F"/>
</g>
<g filter="url(#filter2_d_109_192)">
<path d="M735.38 102V93.855H736.505L736.64 95.34H736.67C736.95 94.82 737.29 94.41 737.69 94.11C738.1 93.8 738.53 93.645 738.98 93.645C739.17 93.645 739.33 93.66 739.46 93.69C739.6 93.71 739.73 93.755 739.85 93.825L739.595 95.01C739.455 94.97 739.33 94.94 739.22 94.92C739.11 94.89 738.97 94.875 738.8 94.875C738.47 94.875 738.115 95.02 737.735 95.31C737.355 95.59 737.03 96.075 736.76 96.765V102H735.38ZM742.635 102.195C742.295 102.195 742.02 102.125 741.81 101.985C741.6 101.845 741.445 101.64 741.345 101.37C741.245 101.09 741.195 100.76 741.195 100.38V90.06H742.575V100.47C742.575 100.68 742.61 100.83 742.68 100.92C742.76 101.01 742.85 101.055 742.95 101.055C742.99 101.055 743.03 101.055 743.07 101.055C743.11 101.045 743.165 101.035 743.235 101.025L743.43 102.075C743.33 102.105 743.22 102.13 743.1 102.15C742.98 102.18 742.825 102.195 742.635 102.195ZM747.333 102.195C746.883 102.195 746.478 102.105 746.118 101.925C745.758 101.745 745.473 101.485 745.263 101.145C745.063 100.795 744.963 100.375 744.963 99.885C744.963 98.995 745.358 98.315 746.148 97.845C746.948 97.365 748.218 97.03 749.958 96.84C749.958 96.49 749.908 96.16 749.808 95.85C749.718 95.53 749.553 95.275 749.313 95.085C749.073 94.885 748.728 94.785 748.278 94.785C747.808 94.785 747.363 94.88 746.943 95.07C746.533 95.25 746.163 95.445 745.833 95.655L745.308 94.71C745.558 94.55 745.848 94.39 746.178 94.23C746.508 94.06 746.868 93.92 747.258 93.81C747.648 93.7 748.063 93.645 748.503 93.645C749.163 93.645 749.698 93.785 750.108 94.065C750.528 94.345 750.833 94.735 751.023 95.235C751.223 95.725 751.323 96.31 751.323 96.99V102H750.198L750.078 101.025H750.033C749.653 101.345 749.233 101.62 748.773 101.85C748.323 102.08 747.843 102.195 747.333 102.195ZM747.723 101.085C748.113 101.085 748.483 100.995 748.833 100.815C749.193 100.635 749.568 100.37 749.958 100.02V97.755C749.048 97.855 748.323 98 747.783 98.19C747.243 98.37 746.858 98.595 746.628 98.865C746.398 99.125 746.283 99.435 746.283 99.795C746.283 100.265 746.423 100.6 746.703 100.8C746.983 100.99 747.323 101.085 747.723 101.085ZM756.685 102.195C756.005 102.195 755.41 102.03 754.9 101.7C754.4 101.37 754.01 100.89 753.73 100.26C753.46 99.62 753.325 98.845 753.325 97.935C753.325 97.055 753.49 96.295 753.82 95.655C754.15 95.015 754.58 94.52 755.11 94.17C755.65 93.82 756.23 93.645 756.85 93.645C757.33 93.645 757.74 93.73 758.08 93.9C758.43 94.06 758.785 94.29 759.145 94.59L759.07 93.195V90.06H760.45V102H759.325L759.205 101.04H759.16C758.84 101.36 758.47 101.635 758.05 101.865C757.63 102.085 757.175 102.195 756.685 102.195ZM756.985 101.04C757.365 101.04 757.725 100.95 758.065 100.77C758.405 100.58 758.74 100.3 759.07 99.93V95.655C758.73 95.345 758.4 95.125 758.08 94.995C757.76 94.865 757.43 94.8 757.09 94.8C756.66 94.8 756.265 94.935 755.905 95.205C755.555 95.465 755.27 95.83 755.05 96.3C754.84 96.76 754.735 97.3 754.735 97.92C754.735 98.57 754.825 99.13 755.005 99.6C755.185 100.07 755.44 100.43 755.77 100.68C756.11 100.92 756.515 101.04 756.985 101.04ZM766.797 102.195C766.427 102.195 766.037 102.105 765.627 101.925C765.217 101.745 764.837 101.49 764.487 101.16H764.427L764.307 102H763.212V90.06H764.592V93.33L764.532 94.785C764.902 94.465 765.307 94.195 765.747 93.975C766.187 93.755 766.637 93.645 767.097 93.645C767.797 93.645 768.387 93.82 768.867 94.17C769.347 94.51 769.712 94.99 769.962 95.61C770.212 96.23 770.337 96.96 770.337 97.8C770.337 98.72 770.167 99.51 769.827 100.17C769.497 100.83 769.062 101.335 768.522 101.685C767.992 102.025 767.417 102.195 766.797 102.195ZM766.572 101.04C767.022 101.04 767.422 100.915 767.772 100.665C768.132 100.405 768.412 100.035 768.612 99.555C768.812 99.065 768.912 98.485 768.912 97.815C768.912 97.215 768.837 96.69 768.687 96.24C768.547 95.78 768.322 95.425 768.012 95.175C767.702 94.925 767.282 94.8 766.752 94.8C766.412 94.8 766.062 94.895 765.702 95.085C765.342 95.275 764.972 95.55 764.592 95.91V100.2C764.942 100.51 765.292 100.73 765.642 100.86C766.002 100.98 766.312 101.04 766.572 101.04ZM774.081 102.195C773.631 102.195 773.226 102.105 772.866 101.925C772.506 101.745 772.221 101.485 772.011 101.145C771.811 100.795 771.711 100.375 771.711 99.885C771.711 98.995 772.106 98.315 772.896 97.845C773.696 97.365 774.966 97.03 776.706 96.84C776.706 96.49 776.656 96.16 776.556 95.85C776.466 95.53 776.301 95.275 776.061 95.085C775.821 94.885 775.476 94.785 775.026 94.785C774.556 94.785 774.111 94.88 773.691 95.07C773.281 95.25 772.911 95.445 772.581 95.655L772.056 94.71C772.306 94.55 772.596 94.39 772.926 94.23C773.256 94.06 773.616 93.92 774.006 93.81C774.396 93.7 774.811 93.645 775.251 93.645C775.911 93.645 776.446 93.785 776.856 94.065C777.276 94.345 777.581 94.735 777.771 95.235C777.971 95.725 778.071 96.31 778.071 96.99V102H776.946L776.826 101.025H776.781C776.401 101.345 775.981 101.62 775.521 101.85C775.071 102.08 774.591 102.195 774.081 102.195ZM774.471 101.085C774.861 101.085 775.231 100.995 775.581 100.815C775.941 100.635 776.316 100.37 776.706 100.02V97.755C775.796 97.855 775.071 98 774.531 98.19C773.991 98.37 773.606 98.595 773.376 98.865C773.146 99.125 773.031 99.435 773.031 99.795C773.031 100.265 773.171 100.6 773.451 100.8C773.731 100.99 774.071 101.085 774.471 101.085ZM782.098 102.195C781.758 102.195 781.483 102.125 781.273 101.985C781.063 101.845 780.908 101.64 780.808 101.37C780.708 101.09 780.658 100.76 780.658 100.38V90.06H782.038V100.47C782.038 100.68 782.073 100.83 782.143 100.92C782.223 101.01 782.313 101.055 782.413 101.055C782.453 101.055 782.493 101.055 782.533 101.055C782.573 101.045 782.628 101.035 782.698 101.025L782.893 102.075C782.793 102.105 782.683 102.13 782.563 102.15C782.443 102.18 782.288 102.195 782.098 102.195ZM787.051 102.195C786.481 102.195 785.926 102.09 785.386 101.88C784.856 101.66 784.401 101.39 784.021 101.07L784.681 100.155C785.041 100.445 785.411 100.68 785.791 100.86C786.171 101.04 786.606 101.13 787.096 101.13C787.636 101.13 788.036 101.01 788.296 100.77C788.566 100.52 788.701 100.215 788.701 99.855C788.701 99.575 788.606 99.345 788.416 99.165C788.236 98.975 788.001 98.815 787.711 98.685C787.431 98.545 787.141 98.42 786.841 98.31C786.461 98.16 786.086 97.995 785.716 97.815C785.356 97.625 785.056 97.385 784.816 97.095C784.586 96.795 784.471 96.415 784.471 95.955C784.471 95.515 784.581 95.125 784.801 94.785C785.021 94.435 785.341 94.16 785.761 93.96C786.181 93.75 786.686 93.645 787.276 93.645C787.776 93.645 788.241 93.735 788.671 93.915C789.111 94.095 789.486 94.315 789.796 94.575L789.136 95.43C788.856 95.23 788.566 95.06 788.266 94.92C787.976 94.78 787.651 94.71 787.291 94.71C786.771 94.71 786.386 94.83 786.136 95.07C785.896 95.3 785.776 95.575 785.776 95.895C785.776 96.145 785.856 96.355 786.016 96.525C786.186 96.695 786.406 96.84 786.676 96.96C786.946 97.07 787.231 97.185 787.531 97.305C787.831 97.415 788.126 97.535 788.416 97.665C788.716 97.795 788.981 97.95 789.211 98.13C789.451 98.31 789.641 98.535 789.781 98.805C789.931 99.065 790.006 99.39 790.006 99.78C790.006 100.22 789.891 100.625 789.661 100.995C789.441 101.365 789.111 101.66 788.671 101.88C788.241 102.09 787.701 102.195 787.051 102.195ZM794.728 102.195C794.018 102.195 793.408 101.98 792.898 101.55C792.388 101.12 791.993 100.49 791.713 99.66C791.443 98.83 791.308 97.815 791.308 96.615C791.308 95.425 791.443 94.42 791.713 93.6C791.993 92.78 792.388 92.16 792.898 91.74C793.408 91.32 794.018 91.11 794.728 91.11C795.438 91.11 796.048 91.32 796.558 91.74C797.068 92.16 797.458 92.78 797.728 93.6C798.008 94.42 798.148 95.425 798.148 96.615C798.148 97.815 798.008 98.83 797.728 99.66C797.458 100.49 797.068 101.12 796.558 101.55C796.048 101.98 795.438 102.195 794.728 102.195ZM794.728 101.085C795.148 101.085 795.513 100.93 795.823 100.62C796.143 100.31 796.388 99.825 796.558 99.165C796.738 98.505 796.828 97.655 796.828 96.615C796.828 95.575 796.738 94.73 796.558 94.08C796.388 93.43 796.143 92.955 795.823 92.655C795.513 92.355 795.148 92.205 794.728 92.205C794.318 92.205 793.953 92.355 793.633 92.655C793.313 92.955 793.063 93.43 792.883 94.08C792.713 94.73 792.628 95.575 792.628 96.615C792.628 97.655 792.713 98.505 792.883 99.165C793.063 99.825 793.313 100.31 793.633 100.62C793.953 100.93 794.318 101.085 794.728 101.085ZM800.198 102V100.86H802.658V92.97H800.693V92.1C801.183 92.01 801.608 91.9 801.968 91.77C802.338 91.64 802.673 91.485 802.973 91.305H804.023V100.86H806.228V102H800.198ZM813.933 104.595C813.123 104.595 812.358 104.465 811.638 104.205C810.928 103.955 810.303 103.575 809.763 103.065C809.223 102.555 808.798 101.93 808.488 101.19C808.188 100.44 808.038 99.575 808.038 98.595C808.038 97.465 808.223 96.445 808.593 95.535C808.973 94.625 809.488 93.845 810.138 93.195C810.788 92.545 811.533 92.045 812.373 91.695C813.223 91.345 814.113 91.17 815.043 91.17C816.173 91.17 817.148 91.405 817.968 91.875C818.788 92.335 819.418 92.98 819.858 93.81C820.308 94.64 820.533 95.61 820.533 96.72C820.533 97.45 820.433 98.095 820.233 98.655C820.033 99.205 819.768 99.67 819.438 100.05C819.108 100.42 818.743 100.7 818.343 100.89C817.953 101.08 817.568 101.175 817.188 101.175C816.738 101.175 816.348 101.07 816.018 100.86C815.698 100.65 815.513 100.33 815.463 99.9H815.418C815.148 100.22 814.833 100.495 814.473 100.725C814.113 100.945 813.748 101.055 813.378 101.055C812.818 101.055 812.338 100.85 811.938 100.44C811.548 100.02 811.353 99.43 811.353 98.67C811.353 98.23 811.428 97.785 811.578 97.335C811.738 96.875 811.958 96.45 812.238 96.06C812.518 95.67 812.858 95.36 813.258 95.13C813.658 94.9 814.103 94.785 814.593 94.785C814.873 94.785 815.128 94.855 815.358 94.995C815.588 95.125 815.778 95.33 815.928 95.61H815.958L816.153 94.92H817.053L816.393 98.265C816.073 99.585 816.378 100.245 817.308 100.245C817.668 100.245 818.018 100.11 818.358 99.84C818.708 99.56 818.998 99.16 819.228 98.64C819.458 98.12 819.573 97.5 819.573 96.78C819.573 96.1 819.473 95.475 819.273 94.905C819.073 94.335 818.778 93.84 818.388 93.42C817.998 93 817.513 92.675 816.933 92.445C816.353 92.205 815.683 92.085 814.923 92.085C814.173 92.085 813.448 92.24 812.748 92.55C812.048 92.85 811.418 93.285 810.858 93.855C810.308 94.415 809.868 95.095 809.538 95.895C809.208 96.685 809.043 97.57 809.043 98.55C809.043 99.37 809.168 100.1 809.418 100.74C809.668 101.37 810.018 101.9 810.468 102.33C810.918 102.77 811.448 103.105 812.058 103.335C812.668 103.565 813.328 103.68 814.038 103.68C814.548 103.68 815.033 103.605 815.493 103.455C815.963 103.315 816.383 103.14 816.753 102.93L817.128 103.74C816.648 104.03 816.143 104.245 815.613 104.385C815.083 104.525 814.523 104.595 813.933 104.595ZM813.648 100.11C813.878 100.11 814.123 100.035 814.383 99.885C814.643 99.725 814.918 99.465 815.208 99.105L815.673 96.45C815.523 96.19 815.363 96.01 815.193 95.91C815.023 95.8 814.823 95.745 814.593 95.745C814.273 95.745 813.978 95.835 813.708 96.015C813.438 96.185 813.208 96.415 813.018 96.705C812.838 96.985 812.698 97.295 812.598 97.635C812.508 97.965 812.463 98.285 812.463 98.595C812.463 99.135 812.573 99.525 812.793 99.765C813.023 99.995 813.308 100.11 813.648 100.11ZM824.648 102.195C824.198 102.195 823.793 102.105 823.433 101.925C823.073 101.745 822.788 101.485 822.578 101.145C822.378 100.795 822.278 100.375 822.278 99.885C822.278 98.995 822.673 98.315 823.463 97.845C824.263 97.365 825.533 97.03 827.273 96.84C827.273 96.49 827.223 96.16 827.123 95.85C827.033 95.53 826.868 95.275 826.628 95.085C826.388 94.885 826.043 94.785 825.593 94.785C825.123 94.785 824.678 94.88 824.258 95.07C823.848 95.25 823.478 95.445 823.148 95.655L822.623 94.71C822.873 94.55 823.163 94.39 823.493 94.23C823.823 94.06 824.183 93.92 824.573 93.81C824.963 93.7 825.378 93.645 825.818 93.645C826.478 93.645 827.013 93.785 827.423 94.065C827.843 94.345 828.148 94.735 828.338 95.235C828.538 95.725 828.638 96.31 828.638 96.99V102H827.513L827.393 101.025H827.348C826.968 101.345 826.548 101.62 826.088 101.85C825.638 102.08 825.158 102.195 824.648 102.195ZM825.038 101.085C825.428 101.085 825.798 100.995 826.148 100.815C826.508 100.635 826.883 100.37 827.273 100.02V97.755C826.363 97.855 825.638 98 825.098 98.19C824.558 98.37 824.173 98.595 823.943 98.865C823.713 99.125 823.598 99.435 823.598 99.795C823.598 100.265 823.738 100.6 824.018 100.8C824.298 100.99 824.638 101.085 825.038 101.085ZM830.37 105.63C830.13 105.63 829.91 105.61 829.71 105.57C829.5 105.53 829.325 105.48 829.185 105.42L829.455 104.385C829.555 104.425 829.675 104.46 829.815 104.49C829.955 104.52 830.095 104.535 830.235 104.535C830.645 104.535 830.915 104.39 831.045 104.1C831.175 103.81 831.24 103.42 831.24 102.93V93.855H832.605V102.93C832.605 103.48 832.53 103.955 832.38 104.355C832.24 104.765 832.005 105.08 831.675 105.3C831.345 105.52 830.91 105.63 830.37 105.63ZM831.915 92.175C831.645 92.175 831.425 92.095 831.255 91.935C831.085 91.765 831 91.54 831 91.26C831 90.99 831.085 90.775 831.255 90.615C831.425 90.455 831.645 90.375 831.915 90.375C832.175 90.375 832.39 90.455 832.56 90.615C832.74 90.775 832.83 90.99 832.83 91.26C832.83 91.54 832.74 91.765 832.56 91.935C832.39 92.095 832.175 92.175 831.915 92.175ZM838.521 102.195C837.861 102.195 837.241 102.03 836.661 101.7C836.081 101.36 835.616 100.875 835.266 100.245C834.926 99.605 834.756 98.835 834.756 97.935C834.756 97.025 834.926 96.255 835.266 95.625C835.616 94.985 836.081 94.495 836.661 94.155C837.241 93.815 837.861 93.645 838.521 93.645C839.021 93.645 839.496 93.74 839.946 93.93C840.406 94.12 840.811 94.4 841.161 94.77C841.511 95.14 841.786 95.59 841.986 96.12C842.186 96.65 842.286 97.255 842.286 97.935C842.286 98.835 842.111 99.605 841.761 100.245C841.411 100.875 840.951 101.36 840.381 101.7C839.811 102.03 839.191 102.195 838.521 102.195ZM838.521 101.055C838.991 101.055 839.401 100.925 839.751 100.665C840.111 100.405 840.391 100.04 840.591 99.57C840.791 99.1 840.891 98.555 840.891 97.935C840.891 97.305 840.791 96.755 840.591 96.285C840.391 95.815 840.111 95.45 839.751 95.19C839.401 94.93 838.991 94.8 838.521 94.8C838.051 94.8 837.636 94.93 837.276 95.19C836.926 95.45 836.651 95.815 836.451 96.285C836.261 96.755 836.166 97.305 836.166 97.935C836.166 98.555 836.261 99.1 836.451 99.57C836.651 100.04 836.926 100.405 837.276 100.665C837.636 100.925 838.051 101.055 838.521 101.055ZM846.837 102.195C845.977 102.195 845.342 101.925 844.932 101.385C844.532 100.845 844.332 100.055 844.332 99.015V93.855H845.712V98.85C845.712 99.6 845.832 100.15 846.072 100.5C846.312 100.84 846.702 101.01 847.242 101.01C847.662 101.01 848.037 100.9 848.367 100.68C848.697 100.46 849.057 100.11 849.447 99.63V93.855H850.812V102H849.672L849.567 100.725H849.522C849.142 101.165 848.737 101.52 848.307 101.79C847.887 102.06 847.397 102.195 846.837 102.195ZM854.269 102.195C853.999 102.195 853.764 102.1 853.564 101.91C853.374 101.71 853.279 101.46 853.279 101.16C853.279 100.84 853.374 100.585 853.564 100.395C853.764 100.205 853.999 100.11 854.269 100.11C854.539 100.11 854.769 100.205 854.959 100.395C855.159 100.585 855.259 100.84 855.259 101.16C855.259 101.46 855.159 101.71 854.959 101.91C854.769 102.1 854.539 102.195 854.269 102.195ZM859.613 102.195C859.163 102.195 858.758 102.105 858.398 101.925C858.038 101.745 857.753 101.485 857.543 101.145C857.343 100.795 857.243 100.375 857.243 99.885C857.243 98.995 857.638 98.315 858.428 97.845C859.228 97.365 860.498 97.03 862.238 96.84C862.238 96.49 862.188 96.16 862.088 95.85C861.998 95.53 861.833 95.275 861.593 95.085C861.353 94.885 861.008 94.785 860.558 94.785C860.088 94.785 859.643 94.88 859.223 95.07C858.813 95.25 858.443 95.445 858.113 95.655L857.588 94.71C857.838 94.55 858.128 94.39 858.458 94.23C858.788 94.06 859.148 93.92 859.538 93.81C859.928 93.7 860.343 93.645 860.783 93.645C861.443 93.645 861.978 93.785 862.388 94.065C862.808 94.345 863.113 94.735 863.303 95.235C863.503 95.725 863.603 96.31 863.603 96.99V102H862.478L862.358 101.025H862.313C861.933 101.345 861.513 101.62 861.053 101.85C860.603 102.08 860.123 102.195 859.613 102.195ZM860.003 101.085C860.393 101.085 860.763 100.995 861.113 100.815C861.473 100.635 861.848 100.37 862.238 100.02V97.755C861.328 97.855 860.603 98 860.063 98.19C859.523 98.37 859.138 98.595 858.908 98.865C858.678 99.125 858.563 99.435 858.563 99.795C858.563 100.265 858.703 100.6 858.983 100.8C859.263 100.99 859.603 101.085 860.003 101.085ZM869.401 102.195C868.681 102.195 868.031 102.03 867.451 101.7C866.881 101.36 866.426 100.875 866.086 100.245C865.756 99.605 865.591 98.835 865.591 97.935C865.591 97.025 865.771 96.255 866.131 95.625C866.491 94.985 866.971 94.495 867.571 94.155C868.171 93.815 868.816 93.645 869.506 93.645C870.036 93.645 870.491 93.74 870.871 93.93C871.261 94.12 871.596 94.345 871.876 94.605L871.186 95.505C870.956 95.295 870.706 95.125 870.436 94.995C870.176 94.865 869.886 94.8 869.566 94.8C869.076 94.8 868.636 94.93 868.246 95.19C867.856 95.45 867.551 95.815 867.331 96.285C867.111 96.755 867.001 97.305 867.001 97.935C867.001 98.555 867.106 99.1 867.316 99.57C867.536 100.04 867.831 100.405 868.201 100.665C868.581 100.925 869.021 101.055 869.521 101.055C869.901 101.055 870.251 100.98 870.571 100.83C870.891 100.67 871.181 100.475 871.441 100.245L872.041 101.175C871.671 101.495 871.261 101.745 870.811 101.925C870.361 102.105 869.891 102.195 869.401 102.195ZM874.542 102.195C874.272 102.195 874.037 102.1 873.837 101.91C873.647 101.71 873.552 101.46 873.552 101.16C873.552 100.84 873.647 100.585 873.837 100.395C874.037 100.205 874.272 100.11 874.542 100.11C874.812 100.11 875.042 100.205 875.232 100.395C875.432 100.585 875.532 100.84 875.532 101.16C875.532 101.46 875.432 101.71 875.232 101.91C875.042 102.1 874.812 102.195 874.542 102.195ZM878.012 102V90.06H879.362V98.145H879.422L882.872 93.855H884.402L881.687 97.14L884.762 102H883.277L880.892 98.07L879.362 99.855V102H878.012ZM886.288 102V93.855H887.413L887.548 95.34H887.578C887.858 94.82 888.198 94.41 888.598 94.11C889.008 93.8 889.438 93.645 889.888 93.645C890.078 93.645 890.238 93.66 890.368 93.69C890.508 93.71 890.638 93.755 890.758 93.825L890.503 95.01C890.363 94.97 890.238 94.94 890.128 94.92C890.018 94.89 889.878 94.875 889.708 94.875C889.378 94.875 889.023 95.02 888.643 95.31C888.263 95.59 887.938 96.075 887.668 96.765V102H886.288Z" fill="#9E352F"/>
</g>
<g filter="url(#filter3_d_109_192)">
<path d="M10.7102 77.9901V75.4545H22.6562V77.9901H18.2031V90H15.1634V77.9901H10.7102ZM24.6236 90V75.4545H27.6989V81.456H33.9418V75.4545H37.0099V90H33.9418V83.9915H27.6989V90H24.6236ZM39.5455 90V75.4545H49.3466V77.9901H42.6207V81.456H48.8423V83.9915H42.6207V87.4645H49.375V90H39.5455ZM56.4205 90V75.4545H59.4957V87.4645H65.7315V90H56.4205ZM70.8434 75.4545V90H67.7681V75.4545H70.8434ZM73.3736 90V75.4545H79.1974C80.2675 75.4545 81.16 75.6132 81.875 75.9304C82.59 76.2476 83.1274 76.688 83.4872 77.2514C83.8471 77.8101 84.027 78.4541 84.027 79.1832C84.027 79.7514 83.9134 80.2509 83.6861 80.6818C83.4588 81.108 83.1463 81.4583 82.7486 81.733C82.3556 82.0028 81.9058 82.1946 81.3991 82.3082V82.4503C81.9531 82.474 82.4716 82.6302 82.9545 82.919C83.4422 83.2079 83.8376 83.6127 84.1406 84.1335C84.4437 84.6496 84.5952 85.2652 84.5952 85.9801C84.5952 86.7519 84.4034 87.4408 84.0199 88.0469C83.6411 88.6482 83.08 89.1241 82.3366 89.4744C81.5933 89.8248 80.6771 90 79.5881 90H73.3736ZM76.4489 87.4858H78.956C79.813 87.4858 80.438 87.3224 80.831 86.9957C81.224 86.6643 81.4205 86.224 81.4205 85.6747C81.4205 85.2723 81.3234 84.9171 81.1293 84.6094C80.9351 84.3016 80.6581 84.0601 80.2983 83.8849C79.9432 83.7098 79.5194 83.6222 79.027 83.6222H76.4489V87.4858ZM76.4489 81.5412H78.7287C79.1501 81.5412 79.5241 81.4678 79.8509 81.321C80.1823 81.1695 80.4427 80.9564 80.6321 80.6818C80.8262 80.4072 80.9233 80.0781 80.9233 79.6946C80.9233 79.169 80.7363 78.7453 80.3622 78.4233C79.9929 78.1013 79.4673 77.9403 78.7855 77.9403H76.4489V81.5412ZM86.5962 90V75.4545H92.3349C93.4334 75.4545 94.3709 75.651 95.1474 76.044C95.9286 76.4323 96.5228 76.9839 96.93 77.6989C97.342 78.4091 97.5479 79.2448 97.5479 80.206C97.5479 81.1719 97.3396 82.0028 96.9229 82.6989C96.5063 83.3902 95.9026 83.9205 95.1119 84.2898C94.3259 84.6591 93.3742 84.8438 92.2567 84.8438H88.4144V82.3722H91.7596C92.3467 82.3722 92.8344 82.2917 93.2227 82.1307C93.6109 81.9697 93.8997 81.7282 94.0891 81.4062C94.2833 81.0843 94.3803 80.6842 94.3803 80.206C94.3803 79.723 94.2833 79.3158 94.0891 78.9844C93.8997 78.6529 93.6085 78.402 93.2156 78.2315C92.8273 78.0563 92.3372 77.9688 91.7454 77.9688H89.6715V90H86.5962ZM94.4513 83.3807L98.0664 90H94.6715L91.1346 83.3807H94.4513ZM102.228 90H98.9329L103.954 75.4545H107.917L112.931 90H109.636L105.993 78.7784H105.879L102.228 90ZM102.022 84.2827H109.806V86.6832H102.022V84.2827ZM114.682 90V75.4545H120.421C121.519 75.4545 122.457 75.651 123.233 76.044C124.015 76.4323 124.609 76.9839 125.016 77.6989C125.428 78.4091 125.634 79.2448 125.634 80.206C125.634 81.1719 125.426 82.0028 125.009 82.6989C124.592 83.3902 123.989 83.9205 123.198 84.2898C122.412 84.6591 121.46 84.8438 120.343 84.8438H116.5V82.3722H119.846C120.433 82.3722 120.92 82.2917 121.309 82.1307C121.697 81.9697 121.986 81.7282 122.175 81.4062C122.369 81.0843 122.466 80.6842 122.466 80.206C122.466 79.723 122.369 79.3158 122.175 78.9844C121.986 78.6529 121.694 78.402 121.301 78.2315C120.913 78.0563 120.423 77.9688 119.831 77.9688H117.757V90H114.682ZM122.537 83.3807L126.152 90H122.757L119.221 83.3807H122.537ZM126.349 75.4545H129.794L133.111 81.7188H133.253L136.57 75.4545H140.014L134.709 84.858V90H131.655V84.858L126.349 75.4545ZM159.689 82.7273C159.689 84.3134 159.389 85.6629 158.787 86.7756C158.191 87.8883 157.376 88.7382 156.344 89.3253C155.317 89.9077 154.161 90.1989 152.878 90.1989C151.586 90.1989 150.426 89.9053 149.398 89.3182C148.371 88.7311 147.559 87.8812 146.962 86.7685C146.365 85.6558 146.067 84.3087 146.067 82.7273C146.067 81.1411 146.365 79.7917 146.962 78.679C147.559 77.5663 148.371 76.7187 149.398 76.1364C150.426 75.5492 151.586 75.2557 152.878 75.2557C154.161 75.2557 155.317 75.5492 156.344 76.1364C157.376 76.7187 158.191 77.5663 158.787 78.679C159.389 79.7917 159.689 81.1411 159.689 82.7273ZM156.571 82.7273C156.571 81.6998 156.417 80.8333 156.11 80.1278C155.807 79.4223 155.378 78.8873 154.824 78.5227C154.27 78.1581 153.622 77.9759 152.878 77.9759C152.135 77.9759 151.486 78.1581 150.932 78.5227C150.378 78.8873 149.947 79.4223 149.64 80.1278C149.337 80.8333 149.185 81.6998 149.185 82.7273C149.185 83.7547 149.337 84.6212 149.64 85.3267C149.947 86.0322 150.378 86.5672 150.932 86.9318C151.486 87.2964 152.135 87.4787 152.878 87.4787C153.622 87.4787 154.27 87.2964 154.824 86.9318C155.378 86.5672 155.807 86.0322 156.11 85.3267C156.417 84.6212 156.571 83.7547 156.571 82.7273ZM161.967 90V75.4545H171.598V77.9901H165.043V81.456H170.959V83.9915H165.043V90H161.967ZM183.452 90H178.295V75.4545H183.494C184.957 75.4545 186.217 75.7457 187.273 76.3281C188.329 76.9058 189.141 77.7367 189.709 78.821C190.282 79.9053 190.568 81.2027 190.568 82.7131C190.568 84.2282 190.282 85.5303 189.709 86.6193C189.141 87.7083 188.324 88.544 187.259 89.1264C186.198 89.7088 184.929 90 183.452 90ZM181.371 87.3651H183.324C184.233 87.3651 184.998 87.2041 185.618 86.8821C186.243 86.5554 186.712 86.0511 187.024 85.3693C187.341 84.6828 187.5 83.7973 187.5 82.7131C187.5 81.6383 187.341 80.7599 187.024 80.0781C186.712 79.3963 186.245 78.8944 185.625 78.5724C185.005 78.2505 184.24 78.0895 183.331 78.0895H181.371V87.3651ZM194.533 90H191.238L196.259 75.4545H200.222L205.236 90H201.941L198.297 78.7784H198.184L194.533 90ZM194.327 84.2827H202.111V86.6832H194.327V84.2827ZM204.656 77.9901V75.4545H216.602V77.9901H212.148V90H209.109V77.9901H204.656ZM219.299 90H216.003L221.025 75.4545H224.988L230.002 90H226.706L223.063 78.7784H222.949L219.299 90ZM219.093 84.2827H226.877V86.6832H219.093V84.2827ZM239.613 88.0114L239.535 88.7926C239.473 89.4176 239.355 90.0402 239.18 90.6605C239.009 91.2855 238.829 91.8513 238.64 92.358C238.455 92.8646 238.306 93.2623 238.192 93.5511H236.232C236.303 93.2718 236.4 92.8812 236.523 92.3793C236.647 91.8821 236.763 91.3234 236.871 90.7031C236.98 90.0829 237.049 89.4508 237.077 88.8068L237.113 88.0114H239.613ZM238.349 82.5426C237.88 82.5426 237.478 82.3769 237.141 82.0455C236.81 81.714 236.644 81.3116 236.644 80.8381C236.644 80.3741 236.81 79.9787 237.141 79.652C237.478 79.3205 237.88 79.1548 238.349 79.1548C238.803 79.1548 239.201 79.3205 239.542 79.652C239.883 79.9787 240.053 80.3741 240.053 80.8381C240.053 81.1553 239.973 81.4441 239.812 81.7045C239.656 81.9602 239.45 82.1638 239.194 82.3153C238.938 82.4669 238.656 82.5426 238.349 82.5426ZM247.341 75.68H262.601V77.8H247.341V75.68ZM246.621 87.7H263.401V89.84H246.621V87.7ZM254.941 78.58C256.221 78.58 257.334 78.7333 258.281 79.04C259.227 79.3467 259.954 79.78 260.461 80.34C260.967 80.9 261.221 81.5733 261.221 82.36C261.221 83.1333 260.967 83.8067 260.461 84.38C259.954 84.94 259.227 85.3733 258.281 85.68C257.334 85.9733 256.221 86.12 254.941 86.12C253.661 86.12 252.554 85.9733 251.621 85.68C250.687 85.3733 249.961 84.94 249.441 84.38C248.934 83.8067 248.681 83.1267 248.681 82.34C248.681 81.5667 248.934 80.9 249.441 80.34C249.961 79.78 250.687 79.3467 251.621 79.04C252.554 78.7333 253.661 78.58 254.941 78.58ZM254.941 80.72C254.181 80.72 253.534 80.78 253.001 80.9C252.467 81.0067 252.061 81.1867 251.781 81.44C251.501 81.68 251.361 81.98 251.361 82.34C251.361 82.7133 251.501 83.0267 251.781 83.28C252.061 83.52 252.467 83.7 253.001 83.82C253.534 83.94 254.181 84 254.941 84C255.714 84 256.361 83.94 256.881 83.82C257.414 83.7 257.821 83.52 258.101 83.28C258.381 83.0267 258.521 82.7133 258.521 82.34C258.521 81.98 258.381 81.68 258.101 81.44C257.821 81.1867 257.414 81.0067 256.881 80.9C256.361 80.78 255.714 80.72 254.941 80.72ZM253.641 73.5H256.301V76.96H253.641V73.5ZM265.019 87.52H281.799V89.7H265.019V87.52ZM266.919 74.48H279.899V80.68H269.579V83.78H266.939V78.6H277.259V76.62H266.919V74.48ZM266.939 82.74H280.319V84.86H266.939V82.74ZM285.478 78.24H298.318V80.36H285.478V78.24ZM283.418 82.28H300.178V84.4H283.418V82.28ZM285.478 73.9H288.138V79.3H285.478V73.9ZM285.318 89.24H298.418V91.38H285.318V89.24ZM285.318 85.86H287.978V89.82H285.318V85.86ZM316.485 77.72H320.005V79.88H316.485V77.72ZM319.265 73.26H321.945V84.26H319.265V73.26ZM315.665 84.66C316.972 84.66 318.098 84.8 319.045 85.08C319.992 85.36 320.718 85.7667 321.225 86.3C321.745 86.8333 322.005 87.4733 322.005 88.22C322.005 89.3667 321.438 90.2467 320.305 90.86C319.172 91.4867 317.625 91.8 315.665 91.8C313.705 91.8 312.158 91.4867 311.025 90.86C309.892 90.2467 309.325 89.3667 309.325 88.22C309.325 87.4733 309.578 86.8333 310.085 86.3C310.605 85.7667 311.338 85.36 312.285 85.08C313.232 84.8 314.358 84.66 315.665 84.66ZM315.665 86.68C314.865 86.68 314.192 86.74 313.645 86.86C313.098 86.9667 312.678 87.1333 312.385 87.36C312.105 87.5867 311.965 87.8733 311.965 88.22C311.965 88.5667 312.105 88.86 312.385 89.1C312.678 89.3267 313.098 89.5 313.645 89.62C314.192 89.7267 314.865 89.78 315.665 89.78C316.465 89.78 317.138 89.7267 317.685 89.62C318.232 89.5 318.645 89.3267 318.925 89.1C319.205 88.86 319.345 88.5667 319.345 88.22C319.345 87.8733 319.205 87.5867 318.925 87.36C318.645 87.1333 318.232 86.9667 317.685 86.86C317.138 86.74 316.465 86.68 315.665 86.68ZM310.725 75.1H312.885V76.28C312.885 77.4533 312.698 78.5733 312.325 79.64C311.952 80.7067 311.378 81.6467 310.605 82.46C309.845 83.26 308.872 83.86 307.685 84.26L306.345 82.16C307.105 81.9067 307.758 81.5667 308.305 81.14C308.865 80.7133 309.318 80.24 309.665 79.72C310.025 79.1867 310.292 78.6267 310.465 78.04C310.638 77.4533 310.725 76.8667 310.725 76.28V75.1ZM311.285 75.1H313.405V76.26C313.405 76.9933 313.552 77.7133 313.845 78.42C314.138 79.1267 314.592 79.7667 315.205 80.34C315.832 80.9133 316.632 81.3667 317.605 81.7L316.305 83.78C315.158 83.3933 314.212 82.8267 313.465 82.08C312.732 81.32 312.185 80.44 311.825 79.44C311.465 78.4267 311.285 77.3667 311.285 76.26V75.1ZM307.065 74.38H317.025V76.48H307.065V74.38ZM324.843 87.46H341.623V89.62H324.843V87.46ZM331.883 83.5H334.523V87.98H331.883V83.5ZM326.603 74.42H329.263V77.28H337.143V74.42H339.783V84.06H326.603V74.42ZM329.263 79.36V81.94H337.143V79.36H329.263ZM346.918 88.0114L346.839 88.7926C346.778 89.4176 346.66 90.0402 346.484 90.6605C346.314 91.2855 346.134 91.8513 345.945 92.358C345.76 92.8646 345.611 93.2623 345.497 93.5511H343.537C343.608 93.2718 343.705 92.8812 343.828 92.3793C343.951 91.8821 344.067 91.3234 344.176 90.7031C344.285 90.0829 344.354 89.4508 344.382 88.8068L344.418 88.0114H346.918ZM353.922 74.86H362.742V87.26H353.922V74.86ZM360.122 76.96H356.542V85.18H360.122V76.96ZM366.122 73.22H368.782V91.8H366.122V73.22ZM362.262 79.62H367.202V81.76H362.262V79.62ZM371.64 83.6H388.4V85.74H371.64V83.6ZM378.62 84.96H381.28V91.78H378.62V84.96ZM373.56 74.16H386.4V81.62H373.56V74.16ZM383.8 76.24H376.18V79.54H383.8V76.24ZM392.099 78.24H404.939V80.36H392.099V78.24ZM390.039 82.28H406.799V84.4H390.039V82.28ZM392.099 73.9H394.759V79.3H392.099V73.9ZM391.939 89.24H405.039V91.38H391.939V89.24ZM391.939 85.86H394.599V89.82H391.939V85.86ZM425.826 73.24H428.486V91.76H425.826V73.24ZM420.366 75.16H422.986C422.986 76.5733 422.846 77.9267 422.566 79.22C422.299 80.5 421.846 81.7067 421.206 82.84C420.579 83.9733 419.713 85.0267 418.606 86C417.513 86.96 416.146 87.84 414.506 88.64L413.106 86.54C414.893 85.6733 416.313 84.72 417.366 83.68C418.433 82.6267 419.199 81.44 419.666 80.12C420.133 78.7867 420.366 77.2933 420.366 75.64V75.16ZM414.106 75.16H421.606V77.28H414.106V75.16ZM440.545 77.72H444.985V79.86H440.545V77.72ZM434.325 85.06H446.965V91.78H444.285V87.16H434.325V85.06ZM444.285 73.26H446.965V84.22H444.285V73.26ZM436.585 74.2C437.505 74.2 438.331 74.4 439.065 74.8C439.798 75.1867 440.378 75.7267 440.805 76.42C441.245 77.1133 441.465 77.9067 441.465 78.8C441.465 79.68 441.245 80.4733 440.805 81.18C440.378 81.8733 439.798 82.42 439.065 82.82C438.331 83.2067 437.505 83.4 436.585 83.4C435.665 83.4 434.831 83.2067 434.085 82.82C433.351 82.42 432.765 81.8733 432.325 81.18C431.898 80.4733 431.685 79.68 431.685 78.8C431.685 77.9067 431.898 77.1133 432.325 76.42C432.765 75.7267 433.351 75.1867 434.085 74.8C434.831 74.4 435.665 74.2 436.585 74.2ZM436.565 76.48C436.125 76.48 435.725 76.5733 435.365 76.76C435.018 76.9333 434.738 77.1933 434.525 77.54C434.325 77.8867 434.225 78.3067 434.225 78.8C434.225 79.28 434.325 79.7 434.525 80.06C434.738 80.4067 435.018 80.6733 435.365 80.86C435.725 81.0467 436.131 81.14 436.585 81.14C437.025 81.14 437.418 81.0467 437.765 80.86C438.111 80.6733 438.385 80.4067 438.585 80.06C438.798 79.7 438.905 79.28 438.905 78.8C438.905 78.3067 438.798 77.8867 438.585 77.54C438.385 77.1933 438.111 76.9333 437.765 76.76C437.418 76.5733 437.018 76.48 436.565 76.48ZM453.539 88.0114L453.461 88.7926C453.399 89.4176 453.281 90.0402 453.105 90.6605C452.935 91.2855 452.755 91.8513 452.566 92.358C452.381 92.8646 452.232 93.2623 452.118 93.5511H450.158C450.229 93.2718 450.326 92.8812 450.449 92.3793C450.572 91.8821 450.688 91.3234 450.797 90.7031C450.906 90.0829 450.975 89.4508 451.003 88.8068L451.039 88.0114H453.539ZM468.783 76.18H473.123V78.28H468.783V76.18ZM468.623 80H472.983V82.14H468.623V80ZM472.683 73.24H475.363V83.9H472.683V73.24ZM466.663 74.5H469.483C469.483 76.18 469.17 77.6667 468.543 78.96C467.916 80.24 466.976 81.3267 465.723 82.22C464.47 83.1 462.903 83.8 461.023 84.32L460.003 82.24C461.576 81.8267 462.85 81.3067 463.823 80.68C464.796 80.04 465.51 79.3067 465.963 78.48C466.43 77.6533 466.663 76.76 466.663 75.8V74.5ZM461.003 74.5H468.523V76.62H461.003V74.5ZM469.223 84.14C470.476 84.14 471.57 84.2933 472.503 84.6C473.45 84.9067 474.176 85.34 474.683 85.9C475.203 86.46 475.463 87.1267 475.463 87.9C475.463 88.6733 475.203 89.34 474.683 89.9C474.176 90.46 473.45 90.8933 472.503 91.2C471.57 91.52 470.476 91.68 469.223 91.68C467.97 91.68 466.87 91.52 465.923 91.2C464.99 90.8933 464.263 90.46 463.743 89.9C463.223 89.34 462.963 88.6733 462.963 87.9C462.963 87.1267 463.223 86.46 463.743 85.9C464.263 85.34 464.99 84.9067 465.923 84.6C466.87 84.2933 467.97 84.14 469.223 84.14ZM469.223 86.18C468.463 86.18 467.81 86.2467 467.263 86.38C466.73 86.5133 466.316 86.7067 466.023 86.96C465.73 87.2133 465.583 87.5267 465.583 87.9C465.583 88.2733 465.73 88.5933 466.023 88.86C466.316 89.1133 466.73 89.3067 467.263 89.44C467.81 89.56 468.463 89.62 469.223 89.62C469.983 89.62 470.63 89.56 471.163 89.44C471.696 89.3067 472.11 89.1133 472.403 88.86C472.696 88.5933 472.843 88.2733 472.843 87.9C472.843 87.5267 472.696 87.2133 472.403 86.96C472.11 86.7067 471.696 86.5133 471.163 86.38C470.63 86.2467 469.983 86.18 469.223 86.18ZM485.401 78.14H489.141V80.24H485.401V78.14ZM485.301 82.76H489.081V84.88H485.301V82.76ZM491.661 73.24H494.201V91.76H491.661V73.24ZM487.861 73.64H490.341V90.94H487.861V73.64ZM483.681 75.42H486.221C486.221 77.18 486.015 78.82 485.601 80.34C485.201 81.8467 484.508 83.2333 483.521 84.5C482.548 85.7667 481.201 86.9067 479.481 87.92L477.981 86.06C479.381 85.22 480.495 84.3067 481.321 83.32C482.161 82.32 482.761 81.22 483.121 80.02C483.495 78.8067 483.681 77.4533 483.681 75.96V75.42ZM479.041 75.42H484.561V77.56H479.041V75.42ZM503.309 84.1H505.789V85.92H507.629V84.1H510.069V91.58H503.309V84.1ZM505.789 87.84V89.58H507.629V87.84H505.789ZM512.949 83.94H514.949V85.32C514.949 86.2267 514.822 87.1067 514.569 87.96C514.315 88.8 513.902 89.5467 513.329 90.2C512.769 90.8667 512.029 91.38 511.109 91.74L509.809 89.76C510.555 89.4533 511.155 89.0667 511.609 88.6C512.075 88.12 512.415 87.6 512.629 87.04C512.842 86.4667 512.949 85.8933 512.949 85.32V83.94ZM513.549 83.94H515.589V85.32C515.589 85.96 515.689 86.5733 515.889 87.16C516.102 87.7333 516.435 88.2467 516.889 88.7C517.355 89.1533 517.962 89.5067 518.709 89.76L517.389 91.74C516.455 91.4067 515.709 90.92 515.149 90.28C514.589 89.64 514.182 88.9 513.929 88.06C513.675 87.2067 513.549 86.2933 513.549 85.32V83.94ZM510.649 77.22H515.289V79.36H510.649V77.22ZM506.389 73.94C507.322 73.94 508.155 74.1267 508.889 74.5C509.635 74.8733 510.222 75.3867 510.649 76.04C511.075 76.6933 511.289 77.4467 511.289 78.3C511.289 79.1533 511.075 79.9133 510.649 80.58C510.222 81.2333 509.635 81.7467 508.889 82.12C508.155 82.4933 507.322 82.68 506.389 82.68C505.469 82.68 504.635 82.4933 503.889 82.12C503.155 81.7467 502.575 81.2333 502.149 80.58C501.722 79.9133 501.509 79.1533 501.509 78.3C501.509 77.4467 501.722 76.6933 502.149 76.04C502.575 75.3867 503.155 74.8733 503.889 74.5C504.635 74.1267 505.469 73.94 506.389 73.94ZM506.389 76.12C505.935 76.12 505.529 76.2067 505.169 76.38C504.822 76.5533 504.549 76.8067 504.349 77.14C504.149 77.46 504.049 77.8467 504.049 78.3C504.049 78.7533 504.149 79.1467 504.349 79.48C504.549 79.8133 504.822 80.0667 505.169 80.24C505.529 80.4133 505.935 80.5 506.389 80.5C506.842 80.5 507.242 80.4133 507.589 80.24C507.949 80.0667 508.229 79.8133 508.429 79.48C508.629 79.1467 508.729 78.7533 508.729 78.3C508.729 77.8467 508.629 77.46 508.429 77.14C508.229 76.8067 507.949 76.5533 507.589 76.38C507.242 76.2067 506.842 76.12 506.389 76.12ZM514.109 73.26H516.789V83.06H514.109V73.26ZM521.747 78.24H534.587V80.36H521.747V78.24ZM519.687 82.28H536.447V84.4H519.687V82.28ZM521.747 73.9H524.407V79.3H521.747V73.9ZM521.587 89.24H534.687V91.38H521.587V89.24ZM521.587 85.86H524.247V89.82H521.587V85.86ZM551.635 76.18H555.975V78.28H551.635V76.18ZM551.475 80H555.835V82.14H551.475V80ZM555.535 73.24H558.215V83.9H555.535V73.24ZM549.515 74.5H552.335C552.335 76.18 552.021 77.6667 551.395 78.96C550.768 80.24 549.828 81.3267 548.575 82.22C547.321 83.1 545.755 83.8 543.875 84.32L542.855 82.24C544.428 81.8267 545.701 81.3067 546.675 80.68C547.648 80.04 548.361 79.3067 548.815 78.48C549.281 77.6533 549.515 76.76 549.515 75.8V74.5ZM543.855 74.5H551.375V76.62H543.855V74.5ZM552.075 84.14C553.328 84.14 554.421 84.2933 555.355 84.6C556.301 84.9067 557.028 85.34 557.535 85.9C558.055 86.46 558.315 87.1267 558.315 87.9C558.315 88.6733 558.055 89.34 557.535 89.9C557.028 90.46 556.301 90.8933 555.355 91.2C554.421 91.52 553.328 91.68 552.075 91.68C550.821 91.68 549.721 91.52 548.775 91.2C547.841 90.8933 547.115 90.46 546.595 89.9C546.075 89.34 545.815 88.6733 545.815 87.9C545.815 87.1267 546.075 86.46 546.595 85.9C547.115 85.34 547.841 84.9067 548.775 84.6C549.721 84.2933 550.821 84.14 552.075 84.14ZM552.075 86.18C551.315 86.18 550.661 86.2467 550.115 86.38C549.581 86.5133 549.168 86.7067 548.875 86.96C548.581 87.2133 548.435 87.5267 548.435 87.9C548.435 88.2733 548.581 88.5933 548.875 88.86C549.168 89.1133 549.581 89.3067 550.115 89.44C550.661 89.56 551.315 89.62 552.075 89.62C552.835 89.62 553.481 89.56 554.015 89.44C554.548 89.3067 554.961 89.1133 555.255 88.86C555.548 88.5933 555.695 88.2733 555.695 87.9C555.695 87.5267 555.548 87.2133 555.255 86.96C554.961 86.7067 554.548 86.5133 554.015 86.38C553.481 86.2467 552.835 86.18 552.075 86.18ZM573.933 73.26H576.613V84.44H573.933V73.26ZM571.633 78.66H575.013V80.82H571.633V78.66ZM564.253 85.22H576.613V91.58H564.253V85.22ZM573.993 87.3H566.873V89.48H573.993V87.3ZM561.153 74.86H571.973V76.96H561.153V74.86ZM566.573 77.56C567.44 77.56 568.206 77.7 568.873 77.98C569.54 78.26 570.06 78.6533 570.433 79.16C570.82 79.6533 571.013 80.2333 571.013 80.9C571.013 81.5533 570.82 82.1333 570.433 82.64C570.06 83.1333 569.54 83.52 568.873 83.8C568.206 84.08 567.44 84.22 566.573 84.22C565.72 84.22 564.953 84.08 564.273 83.8C563.606 83.52 563.08 83.1333 562.693 82.64C562.32 82.1333 562.133 81.5533 562.133 80.9C562.133 80.2333 562.32 79.6533 562.693 79.16C563.08 78.6533 563.606 78.26 564.273 77.98C564.953 77.7 565.72 77.56 566.573 77.56ZM566.593 79.52C566.206 79.52 565.866 79.5733 565.573 79.68C565.293 79.7867 565.073 79.94 564.913 80.14C564.753 80.34 564.673 80.5867 564.673 80.88C564.673 81.1867 564.753 81.4467 564.913 81.66C565.073 81.86 565.3 82.0133 565.593 82.12C565.886 82.2267 566.213 82.28 566.573 82.28C566.96 82.28 567.293 82.2267 567.573 82.12C567.853 82.0133 568.073 81.86 568.233 81.66C568.393 81.4467 568.473 81.1867 568.473 80.88C568.473 80.5867 568.393 80.34 568.233 80.14C568.073 79.94 567.853 79.7867 567.573 79.68C567.293 79.5733 566.966 79.52 566.593 79.52ZM565.253 73.1H567.893V76.34H565.253V73.1Z" fill="#070707"/>
</g>
<g filter="url(#filter4_d_109_192)">
<path d="M17.305 114.635H20.56V116.21H17.305V114.635ZM17.185 117.5H20.455V119.105H17.185V117.5ZM20.23 112.43H22.24V120.425H20.23V112.43ZM15.715 113.375H17.83C17.83 114.635 17.595 115.75 17.125 116.72C16.655 117.68 15.95 118.495 15.01 119.165C14.07 119.825 12.895 120.35 11.485 120.74L10.72 119.18C11.9 118.87 12.855 118.48 13.585 118.01C14.315 117.53 14.85 116.98 15.19 116.36C15.54 115.74 15.715 115.07 15.715 114.35V113.375ZM11.47 113.375H17.11V114.965H11.47V113.375ZM17.635 120.605C18.575 120.605 19.395 120.72 20.095 120.95C20.805 121.18 21.35 121.505 21.73 121.925C22.12 122.345 22.315 122.845 22.315 123.425C22.315 124.005 22.12 124.505 21.73 124.925C21.35 125.345 20.805 125.67 20.095 125.9C19.395 126.14 18.575 126.26 17.635 126.26C16.695 126.26 15.87 126.14 15.16 125.9C14.46 125.67 13.915 125.345 13.525 124.925C13.135 124.505 12.94 124.005 12.94 123.425C12.94 122.845 13.135 122.345 13.525 121.925C13.915 121.505 14.46 121.18 15.16 120.95C15.87 120.72 16.695 120.605 17.635 120.605ZM17.635 122.135C17.065 122.135 16.575 122.185 16.165 122.285C15.765 122.385 15.455 122.53 15.235 122.72C15.015 122.91 14.905 123.145 14.905 123.425C14.905 123.705 15.015 123.945 15.235 124.145C15.455 124.335 15.765 124.48 16.165 124.58C16.575 124.67 17.065 124.715 17.635 124.715C18.205 124.715 18.69 124.67 19.09 124.58C19.49 124.48 19.8 124.335 20.02 124.145C20.24 123.945 20.35 123.705 20.35 123.425C20.35 123.145 20.24 122.91 20.02 122.72C19.8 122.53 19.49 122.385 19.09 122.285C18.69 122.185 18.205 122.135 17.635 122.135ZM29.7688 116.105H32.5738V117.68H29.7688V116.105ZM29.6938 119.57H32.5288V121.16H29.6938V119.57ZM34.4638 112.43H36.3688V126.32H34.4638V112.43ZM31.6138 112.73H33.4738V125.705H31.6138V112.73ZM28.4788 114.065H30.3838C30.3838 115.385 30.2288 116.615 29.9188 117.755C29.6188 118.885 29.0988 119.925 28.3588 120.875C27.6288 121.825 26.6188 122.68 25.3288 123.44L24.2038 122.045C25.2538 121.415 26.0888 120.73 26.7088 119.99C27.3388 119.24 27.7888 118.415 28.0588 117.515C28.3388 116.605 28.4788 115.59 28.4788 114.47V114.065ZM24.9988 114.065H29.1388V115.67H24.9988V114.065ZM39.7577 116.18H49.3877V117.77H39.7577V116.18ZM38.2127 119.21H50.7827V120.8H38.2127V119.21ZM39.7577 112.925H41.7527V116.975H39.7577V112.925ZM39.6377 124.43H49.4627V126.035H39.6377V124.43ZM39.6377 121.895H41.6327V124.865H39.6377V121.895ZM62.1732 114.635H65.4282V116.21H62.1732V114.635ZM62.0532 117.5H65.3232V119.105H62.0532V117.5ZM65.0982 112.43H67.1082V120.425H65.0982V112.43ZM60.5832 113.375H62.6982C62.6982 114.635 62.4632 115.75 61.9932 116.72C61.5232 117.68 60.8182 118.495 59.8782 119.165C58.9382 119.825 57.7632 120.35 56.3532 120.74L55.5882 119.18C56.7682 118.87 57.7232 118.48 58.4532 118.01C59.1832 117.53 59.7182 116.98 60.0582 116.36C60.4082 115.74 60.5832 115.07 60.5832 114.35V113.375ZM56.3382 113.375H61.9782V114.965H56.3382V113.375ZM62.5032 120.605C63.4432 120.605 64.2632 120.72 64.9632 120.95C65.6732 121.18 66.2182 121.505 66.5982 121.925C66.9882 122.345 67.1832 122.845 67.1832 123.425C67.1832 124.005 66.9882 124.505 66.5982 124.925C66.2182 125.345 65.6732 125.67 64.9632 125.9C64.2632 126.14 63.4432 126.26 62.5032 126.26C61.5632 126.26 60.7382 126.14 60.0282 125.9C59.3282 125.67 58.7832 125.345 58.3932 124.925C58.0032 124.505 57.8082 124.005 57.8082 123.425C57.8082 122.845 58.0032 122.345 58.3932 121.925C58.7832 121.505 59.3282 121.18 60.0282 120.95C60.7382 120.72 61.5632 120.605 62.5032 120.605ZM62.5032 122.135C61.9332 122.135 61.4432 122.185 61.0332 122.285C60.6332 122.385 60.3232 122.53 60.1032 122.72C59.8832 122.91 59.7732 123.145 59.7732 123.425C59.7732 123.705 59.8832 123.945 60.1032 124.145C60.3232 124.335 60.6332 124.48 61.0332 124.58C61.4432 124.67 61.9332 124.715 62.5032 124.715C63.0732 124.715 63.5582 124.67 63.9582 124.58C64.3582 124.48 64.6682 124.335 64.8882 124.145C65.1082 123.945 65.2182 123.705 65.2182 123.425C65.2182 123.145 65.1082 122.91 64.8882 122.72C64.6682 122.53 64.3582 122.385 63.9582 122.285C63.5582 122.185 63.0732 122.135 62.5032 122.135ZM74.637 116.105H77.442V117.68H74.637V116.105ZM74.562 119.57H77.397V121.16H74.562V119.57ZM79.332 112.43H81.237V126.32H79.332V112.43ZM76.482 112.73H78.342V125.705H76.482V112.73ZM73.347 114.065H75.252C75.252 115.385 75.097 116.615 74.787 117.755C74.487 118.885 73.967 119.925 73.227 120.875C72.497 121.825 71.487 122.68 70.197 123.44L69.072 122.045C70.122 121.415 70.957 120.73 71.577 119.99C72.207 119.24 72.657 118.415 72.927 117.515C73.207 116.605 73.347 115.59 73.347 114.47V114.065ZM69.867 114.065H74.007V115.67H69.867V114.065ZM86.5375 119.18H99.1225V120.755H86.5375V119.18ZM91.8025 117.38H93.7975V119.87H91.8025V117.38ZM91.7875 112.685H93.4975V113.105C93.4975 113.615 93.4175 114.105 93.2575 114.575C93.0975 115.035 92.8625 115.46 92.5525 115.85C92.2425 116.24 91.8625 116.595 91.4125 116.915C90.9625 117.225 90.4425 117.49 89.8525 117.71C89.2725 117.93 88.6225 118.09 87.9025 118.19L87.1675 116.615C87.7975 116.545 88.3575 116.43 88.8475 116.27C89.3475 116.1 89.7775 115.9 90.1375 115.67C90.5075 115.44 90.8125 115.185 91.0525 114.905C91.3025 114.625 91.4875 114.335 91.6075 114.035C91.7275 113.725 91.7875 113.415 91.7875 113.105V112.685ZM92.1175 112.685H93.8125V113.105C93.8125 113.425 93.8725 113.74 93.9925 114.05C94.1125 114.36 94.2925 114.655 94.5325 114.935C94.7725 115.205 95.0725 115.455 95.4325 115.685C95.8025 115.915 96.2375 116.11 96.7375 116.27C97.2375 116.43 97.8025 116.545 98.4325 116.615L97.6975 118.19C96.9875 118.09 96.3375 117.93 95.7475 117.71C95.1675 117.49 94.6475 117.23 94.1875 116.93C93.7375 116.62 93.3575 116.27 93.0475 115.88C92.7375 115.48 92.5025 115.05 92.3425 114.59C92.1925 114.13 92.1175 113.635 92.1175 113.105V112.685ZM87.9325 121.73H97.5925V126.335H95.5975V123.305H87.9325V121.73ZM105.901 117.545H108.181V119.15H105.901V117.545ZM110.371 112.43H112.276V126.32H110.371V112.43ZM107.551 112.655H109.411V125.705H107.551V112.655ZM103.471 113.405C104.081 113.405 104.611 113.61 105.061 114.02C105.521 114.42 105.871 115 106.111 115.76C106.361 116.51 106.486 117.41 106.486 118.46C106.486 119.5 106.361 120.4 106.111 121.16C105.871 121.92 105.521 122.505 105.061 122.915C104.611 123.315 104.076 123.515 103.456 123.515C102.856 123.515 102.326 123.315 101.866 122.915C101.416 122.505 101.066 121.92 100.816 121.16C100.576 120.4 100.456 119.5 100.456 118.46C100.456 117.41 100.576 116.51 100.816 115.76C101.066 115 101.416 114.42 101.866 114.02C102.326 113.61 102.861 113.405 103.471 113.405ZM103.471 115.295C103.221 115.295 103.006 115.41 102.826 115.64C102.646 115.87 102.506 116.22 102.406 116.69C102.316 117.15 102.271 117.74 102.271 118.46C102.271 119.16 102.316 119.745 102.406 120.215C102.506 120.685 102.646 121.04 102.826 121.28C103.006 121.51 103.221 121.625 103.471 121.625C103.721 121.625 103.936 121.51 104.116 121.28C104.306 121.04 104.446 120.685 104.536 120.215C104.626 119.745 104.671 119.16 104.671 118.46C104.671 117.74 104.626 117.15 104.536 116.69C104.446 116.22 104.306 115.87 104.116 115.64C103.936 115.41 103.721 115.295 103.471 115.295ZM120.742 120.875H122.242V121.34C122.242 122.04 122.132 122.705 121.912 123.335C121.692 123.965 121.352 124.52 120.892 125C120.442 125.49 119.852 125.865 119.122 126.125L118.162 124.67C118.772 124.46 119.267 124.18 119.647 123.83C120.027 123.48 120.302 123.09 120.472 122.66C120.652 122.22 120.742 121.78 120.742 121.34V120.875ZM121.237 120.875H122.662V121.34C122.662 121.78 122.742 122.225 122.902 122.675C123.072 123.115 123.327 123.52 123.667 123.89C124.017 124.26 124.477 124.56 125.047 124.79L124.237 126.275C123.507 125.995 122.922 125.595 122.482 125.075C122.042 124.565 121.722 123.985 121.522 123.335C121.332 122.675 121.237 122.01 121.237 121.34V120.875ZM125.797 120.875H127.222V121.34C127.222 121.98 127.122 122.625 126.922 123.275C126.732 123.925 126.417 124.515 125.977 125.045C125.547 125.575 124.967 125.985 124.237 126.275L123.427 124.79C123.987 124.54 124.442 124.225 124.792 123.845C125.142 123.455 125.397 123.045 125.557 122.615C125.717 122.175 125.797 121.75 125.797 121.34V120.875ZM126.262 120.875H127.762V121.34C127.762 121.81 127.847 122.265 128.017 122.705C128.197 123.145 128.477 123.535 128.857 123.875C129.237 124.215 129.732 124.48 130.342 124.67L129.382 126.125C128.652 125.875 128.057 125.51 127.597 125.03C127.137 124.56 126.797 124.01 126.577 123.38C126.367 122.74 126.262 122.06 126.262 121.34V120.875ZM127.162 112.445H129.157V120.305H127.162V112.445ZM121.597 113.15C122.317 113.15 122.962 113.295 123.532 113.585C124.102 113.865 124.552 114.255 124.882 114.755C125.212 115.255 125.377 115.83 125.377 116.48C125.377 117.13 125.212 117.705 124.882 118.205C124.552 118.705 124.102 119.1 123.532 119.39C122.962 119.67 122.317 119.81 121.597 119.81C120.877 119.81 120.232 119.67 119.662 119.39C119.092 119.1 118.642 118.705 118.312 118.205C117.982 117.705 117.817 117.13 117.817 116.48C117.817 115.83 117.982 115.255 118.312 114.755C118.642 114.255 119.092 113.865 119.662 113.585C120.232 113.295 120.877 113.15 121.597 113.15ZM121.597 114.8C121.257 114.8 120.947 114.87 120.667 115.01C120.387 115.14 120.167 115.33 120.007 115.58C119.847 115.82 119.767 116.12 119.767 116.48C119.767 116.83 119.847 117.135 120.007 117.395C120.167 117.645 120.387 117.835 120.667 117.965C120.947 118.095 121.257 118.16 121.597 118.16C121.947 118.16 122.257 118.095 122.527 117.965C122.807 117.835 123.027 117.645 123.187 117.395C123.347 117.135 123.427 116.83 123.427 116.48C123.427 116.12 123.347 115.82 123.187 115.58C123.027 115.33 122.807 115.14 122.527 115.01C122.257 114.87 121.947 114.8 121.597 114.8ZM137.691 113.135C138.671 113.135 139.551 113.3 140.331 113.63C141.121 113.96 141.741 114.425 142.191 115.025C142.651 115.625 142.881 116.33 142.881 117.14C142.881 117.95 142.651 118.66 142.191 119.27C141.741 119.87 141.121 120.335 140.331 120.665C139.551 120.995 138.671 121.16 137.691 121.16C136.721 121.16 135.841 120.995 135.051 120.665C134.271 120.335 133.651 119.87 133.191 119.27C132.731 118.66 132.501 117.95 132.501 117.14C132.501 116.33 132.731 115.625 133.191 115.025C133.651 114.425 134.271 113.96 135.051 113.63C135.841 113.3 136.721 113.135 137.691 113.135ZM137.691 114.755C137.071 114.755 136.516 114.85 136.026 115.04C135.536 115.23 135.151 115.505 134.871 115.865C134.601 116.215 134.466 116.64 134.466 117.14C134.466 117.64 134.601 118.07 134.871 118.43C135.151 118.78 135.536 119.05 136.026 119.24C136.516 119.43 137.071 119.525 137.691 119.525C138.331 119.525 138.891 119.43 139.371 119.24C139.861 119.05 140.241 118.78 140.511 118.43C140.791 118.07 140.931 117.64 140.931 117.14C140.931 116.64 140.791 116.215 140.511 115.865C140.241 115.505 139.861 115.23 139.371 115.04C138.891 114.85 138.331 114.755 137.691 114.755ZM131.421 123.02H144.006V124.655H131.421V123.02ZM151.924 114.62H155.419V116.21H151.924V114.62ZM151.924 117.605H155.479V119.195H151.924V117.605ZM145.774 113.555H152.344V120.35H145.774V113.555ZM150.394 115.115H147.739V118.775H150.394V115.115ZM154.834 112.445H156.844V122.555H154.834V112.445ZM147.649 124.49H157.144V126.095H147.649V124.49ZM147.649 121.61H149.644V125.33H147.649V121.61ZM169.18 114.635H172.435V116.21H169.18V114.635ZM169.06 117.5H172.33V119.105H169.06V117.5ZM172.105 112.43H174.115V120.425H172.105V112.43ZM167.59 113.375H169.705C169.705 114.635 169.47 115.75 169 116.72C168.53 117.68 167.825 118.495 166.885 119.165C165.945 119.825 164.77 120.35 163.36 120.74L162.595 119.18C163.775 118.87 164.73 118.48 165.46 118.01C166.19 117.53 166.725 116.98 167.065 116.36C167.415 115.74 167.59 115.07 167.59 114.35V113.375ZM163.345 113.375H168.985V114.965H163.345V113.375ZM169.51 120.605C170.45 120.605 171.27 120.72 171.97 120.95C172.68 121.18 173.225 121.505 173.605 121.925C173.995 122.345 174.19 122.845 174.19 123.425C174.19 124.005 173.995 124.505 173.605 124.925C173.225 125.345 172.68 125.67 171.97 125.9C171.27 126.14 170.45 126.26 169.51 126.26C168.57 126.26 167.745 126.14 167.035 125.9C166.335 125.67 165.79 125.345 165.4 124.925C165.01 124.505 164.815 124.005 164.815 123.425C164.815 122.845 165.01 122.345 165.4 121.925C165.79 121.505 166.335 121.18 167.035 120.95C167.745 120.72 168.57 120.605 169.51 120.605ZM169.51 122.135C168.94 122.135 168.45 122.185 168.04 122.285C167.64 122.385 167.33 122.53 167.11 122.72C166.89 122.91 166.78 123.145 166.78 123.425C166.78 123.705 166.89 123.945 167.11 124.145C167.33 124.335 167.64 124.48 168.04 124.58C168.45 124.67 168.94 124.715 169.51 124.715C170.08 124.715 170.565 124.67 170.965 124.58C171.365 124.48 171.675 124.335 171.895 124.145C172.115 123.945 172.225 123.705 172.225 123.425C172.225 123.145 172.115 122.91 171.895 122.72C171.675 122.53 171.365 122.385 170.965 122.285C170.565 122.185 170.08 122.135 169.51 122.135ZM181.644 116.105H184.449V117.68H181.644V116.105ZM181.569 119.57H184.404V121.16H181.569V119.57ZM186.339 112.43H188.244V126.32H186.339V112.43ZM183.489 112.73H185.349V125.705H183.489V112.73ZM180.354 114.065H182.259C182.259 115.385 182.104 116.615 181.794 117.755C181.494 118.885 180.974 119.925 180.234 120.875C179.504 121.825 178.494 122.68 177.204 123.44L176.079 122.045C177.129 121.415 177.964 120.73 178.584 119.99C179.214 119.24 179.664 118.415 179.934 117.515C180.214 116.605 180.354 115.59 180.354 114.47V114.065ZM176.874 114.065H181.014V115.67H176.874V114.065ZM198.983 112.415H200.978V126.35H198.983V112.415ZM200.528 117.68H202.973V119.315H200.528V117.68ZM190.658 121.49H191.813C192.603 121.49 193.343 121.48 194.033 121.46C194.723 121.44 195.393 121.4 196.043 121.34C196.703 121.27 197.373 121.18 198.053 121.07L198.233 122.675C197.533 122.795 196.843 122.89 196.163 122.96C195.493 123.02 194.803 123.065 194.093 123.095C193.383 123.125 192.623 123.14 191.813 123.14H190.658V121.49ZM190.628 113.6H197.018V118.985H192.623V122.12H190.658V117.41H195.038V115.205H190.628V113.6ZM205.176 113.615H213.966V115.205H205.176V113.615ZM203.886 123.035H216.456V124.655H203.886V123.035ZM208.326 118.265H210.336V123.845H208.326V118.265ZM213.246 113.615H215.256V114.935C215.256 115.515 215.246 116.13 215.226 116.78C215.216 117.43 215.171 118.15 215.091 118.94C215.021 119.73 214.891 120.615 214.701 121.595L212.706 121.385C212.986 119.995 213.146 118.785 213.186 117.755C213.226 116.715 213.246 115.775 213.246 114.935V113.615ZM230.697 112.445H232.692V122.42H230.697V112.445ZM223.437 124.49H233.052V126.095H223.437V124.49ZM223.437 121.43H225.432V125.15H223.437V121.43ZM225.132 113.33C225.842 113.33 226.482 113.48 227.052 113.78C227.622 114.08 228.072 114.495 228.402 115.025C228.742 115.555 228.912 116.165 228.912 116.855C228.912 117.525 228.742 118.13 228.402 118.67C228.072 119.2 227.622 119.62 227.052 119.93C226.482 120.23 225.842 120.38 225.132 120.38C224.422 120.38 223.782 120.23 223.212 119.93C222.642 119.62 222.187 119.2 221.847 118.67C221.517 118.13 221.352 117.525 221.352 116.855C221.352 116.165 221.517 115.555 221.847 115.025C222.187 114.495 222.642 114.08 223.212 113.78C223.782 113.48 224.422 113.33 225.132 113.33ZM225.132 115.04C224.792 115.04 224.482 115.115 224.202 115.265C223.922 115.405 223.702 115.61 223.542 115.88C223.382 116.14 223.302 116.465 223.302 116.855C223.302 117.225 223.382 117.545 223.542 117.815C223.702 118.075 223.922 118.28 224.202 118.43C224.482 118.57 224.792 118.64 225.132 118.64C225.472 118.64 225.782 118.57 226.062 118.43C226.342 118.28 226.562 118.075 226.722 117.815C226.882 117.545 226.962 117.225 226.962 116.855C226.962 116.465 226.882 116.14 226.722 115.88C226.562 115.61 226.342 115.405 226.062 115.265C225.782 115.115 225.472 115.04 225.132 115.04ZM238.211 113.075H239.861V114.395C239.861 115.265 239.716 116.1 239.426 116.9C239.136 117.69 238.696 118.38 238.106 118.97C237.516 119.56 236.771 120 235.871 120.29L234.896 118.7C235.476 118.52 235.976 118.28 236.396 117.98C236.816 117.67 237.156 117.325 237.416 116.945C237.686 116.555 237.886 116.145 238.016 115.715C238.146 115.275 238.211 114.835 238.211 114.395V113.075ZM238.616 113.075H240.236V114.395C240.236 114.825 240.301 115.25 240.431 115.67C240.561 116.08 240.751 116.47 241.001 116.84C241.261 117.2 241.596 117.52 242.006 117.8C242.416 118.08 242.906 118.305 243.476 118.475L242.501 120.05C241.611 119.77 240.876 119.35 240.296 118.79C239.726 118.23 239.301 117.575 239.021 116.825C238.751 116.065 238.616 115.255 238.616 114.395V113.075ZM237.026 121.325H246.491V126.335H244.496V122.915H237.026V121.325ZM244.496 112.445H246.491V120.725H244.496V112.445ZM257.65 112.445H259.645V126.335H257.65V112.445ZM259.195 117.86H261.64V119.51H259.195V117.86ZM248.68 114.485H256.78V116.075H248.68V114.485ZM252.76 116.87C253.43 116.87 254.03 117.015 254.56 117.305C255.09 117.585 255.505 117.97 255.805 118.46C256.115 118.95 256.27 119.52 256.27 120.17C256.27 120.82 256.115 121.395 255.805 121.895C255.505 122.385 255.09 122.775 254.56 123.065C254.04 123.345 253.44 123.485 252.76 123.485C252.09 123.485 251.485 123.345 250.945 123.065C250.415 122.775 249.995 122.385 249.685 121.895C249.385 121.395 249.235 120.82 249.235 120.17C249.235 119.52 249.385 118.95 249.685 118.46C249.995 117.97 250.415 117.585 250.945 117.305C251.485 117.015 252.09 116.87 252.76 116.87ZM252.76 118.49C252.44 118.49 252.16 118.555 251.92 118.685C251.68 118.815 251.49 119.005 251.35 119.255C251.21 119.505 251.14 119.81 251.14 120.17C251.14 120.52 251.21 120.825 251.35 121.085C251.49 121.335 251.68 121.53 251.92 121.67C252.16 121.8 252.44 121.865 252.76 121.865C253.07 121.865 253.345 121.8 253.585 121.67C253.825 121.53 254.015 121.335 254.155 121.085C254.295 120.825 254.365 120.52 254.365 120.17C254.365 119.81 254.295 119.505 254.155 119.255C254.015 119.005 253.825 118.815 253.585 118.685C253.345 118.555 253.07 118.49 252.76 118.49ZM251.74 112.67H253.75V115.1H251.74V112.67ZM272.123 112.43H274.118V126.32H272.123V112.43ZM268.028 113.87H269.993C269.993 114.93 269.888 115.945 269.678 116.915C269.478 117.875 269.138 118.78 268.658 119.63C268.188 120.48 267.538 121.27 266.708 122C265.888 122.72 264.863 123.38 263.633 123.98L262.583 122.405C263.923 121.755 264.988 121.04 265.778 120.26C266.578 119.47 267.153 118.58 267.503 117.59C267.853 116.59 268.028 115.47 268.028 114.23V113.87ZM263.333 113.87H268.958V115.46H263.333V113.87ZM289.364 112.445H291.359V120.83H289.364V112.445ZM282.119 121.415H291.359V126.185H282.119V121.415ZM289.409 122.975H284.084V124.61H289.409V122.975ZM279.989 113.675H288.344V115.25H279.989V113.675ZM284.174 115.67C284.864 115.67 285.469 115.775 285.989 115.985C286.509 116.185 286.914 116.475 287.204 116.855C287.504 117.225 287.654 117.66 287.654 118.16C287.654 118.67 287.504 119.115 287.204 119.495C286.914 119.865 286.509 120.155 285.989 120.365C285.469 120.565 284.864 120.665 284.174 120.665C283.484 120.665 282.874 120.56 282.344 120.35C281.824 120.14 281.419 119.85 281.129 119.48C280.839 119.11 280.694 118.67 280.694 118.16C280.694 117.66 280.839 117.225 281.129 116.855C281.419 116.475 281.824 116.185 282.344 115.985C282.874 115.775 283.484 115.67 284.174 115.67ZM284.174 117.125C283.684 117.125 283.294 117.215 283.004 117.395C282.724 117.565 282.584 117.82 282.584 118.16C282.584 118.51 282.724 118.775 283.004 118.955C283.294 119.125 283.684 119.21 284.174 119.21C284.664 119.21 285.049 119.125 285.329 118.955C285.609 118.775 285.749 118.51 285.749 118.16C285.749 117.82 285.609 117.565 285.329 117.395C285.049 117.215 284.664 117.125 284.174 117.125ZM283.154 112.34H285.164V114.71H283.154V112.34ZM293.638 119.3H306.193V120.89H293.638V119.3ZM295.153 116.585H304.813V118.175H295.153V116.585ZM295.153 112.94H304.693V114.515H297.133V117.155H295.153V112.94ZM295.108 124.49H304.903V126.08H295.108V124.49ZM295.108 121.925H297.103V124.895H295.108V121.925ZM320.508 112.43H322.518V121.655H320.508V112.43ZM318.123 116.12H320.808V117.725H318.123V116.12ZM315.933 113.48H318.048C318.048 114.75 317.823 115.875 317.373 116.855C316.923 117.825 316.243 118.66 315.333 119.36C314.433 120.06 313.283 120.63 311.883 121.07L311.058 119.525C312.218 119.175 313.153 118.75 313.863 118.25C314.583 117.74 315.108 117.16 315.438 116.51C315.768 115.85 315.933 115.135 315.933 114.365V113.48ZM311.763 113.48H317.403V115.07H311.763V113.48ZM316.833 120.635H318.528V121.085C318.528 121.725 318.413 122.33 318.183 122.9C317.963 123.47 317.628 123.985 317.178 124.445C316.728 124.895 316.173 125.28 315.513 125.6C314.863 125.92 314.113 126.155 313.263 126.305L312.498 124.73C313.238 124.61 313.878 124.43 314.418 124.19C314.958 123.95 315.408 123.665 315.768 123.335C316.128 122.995 316.393 122.635 316.563 122.255C316.743 121.875 316.833 121.485 316.833 121.085V120.635ZM317.118 120.635H318.813V121.085C318.813 121.485 318.903 121.875 319.083 122.255C319.263 122.625 319.528 122.98 319.878 123.32C320.238 123.65 320.688 123.935 321.228 124.175C321.778 124.415 322.418 124.595 323.148 124.715L322.368 126.275C321.518 126.135 320.763 125.905 320.103 125.585C319.453 125.275 318.908 124.89 318.468 124.43C318.028 123.97 317.693 123.46 317.463 122.9C317.233 122.33 317.118 121.725 317.118 121.085V120.635Z" fill="#414141"/>
</g>
<g filter="url(#filter5_d_109_192)">
<path d="M37.4 17.48H42.44V54.52H37.4V17.48ZM23.32 31H31.92V35.28H23.32V31ZM29.72 18.16H34.68V52.92H29.72V18.16ZM11.68 41.96H14.28C16.0133 41.96 17.5867 41.9333 19 41.88C20.44 41.8267 21.8 41.7333 23.08 41.6C24.3867 41.4667 25.7067 41.2667 27.04 41L27.48 45.32C26.0933 45.6133 24.7333 45.8267 23.4 45.96C22.0667 46.0933 20.6533 46.1867 19.16 46.24C17.6933 46.2933 16.0667 46.32 14.28 46.32H11.68V41.96ZM11.68 21.68H25.84V25.88H16.92V43.8H11.68V21.68ZM72.8369 17.44H78.1569V54.6H72.8369V17.44ZM58.1969 20.04C60.0902 20.04 61.7702 20.5867 63.2369 21.68C64.7035 22.7467 65.8502 24.28 66.6769 26.28C67.5302 28.2533 67.9569 30.5867 67.9569 33.28C67.9569 36 67.5302 38.36 66.6769 40.36C65.8502 42.3333 64.7035 43.8667 63.2369 44.96C61.7702 46.0267 60.0902 46.56 58.1969 46.56C56.3302 46.56 54.6635 46.0267 53.1969 44.96C51.7302 43.8667 50.5702 42.3333 49.7169 40.36C48.8902 38.36 48.4769 36 48.4769 33.28C48.4769 30.5867 48.8902 28.2533 49.7169 26.28C50.5702 24.28 51.7302 22.7467 53.1969 21.68C54.6635 20.5867 56.3302 20.04 58.1969 20.04ZM58.1969 24.88C57.2902 24.88 56.4902 25.2 55.7969 25.84C55.1035 26.48 54.5569 27.4267 54.1569 28.68C53.7835 29.9067 53.5969 31.44 53.5969 33.28C53.5969 35.0933 53.7835 36.64 54.1569 37.92C54.5569 39.1733 55.1035 40.12 55.7969 40.76C56.4902 41.4 57.2902 41.72 58.1969 41.72C59.1302 41.72 59.9435 41.4 60.6369 40.76C61.3302 40.12 61.8635 39.1733 62.2369 37.92C62.6369 36.64 62.8369 35.0933 62.8369 33.28C62.8369 31.44 62.6369 29.9067 62.2369 28.68C61.8635 27.4267 61.3302 26.48 60.6369 25.84C59.9435 25.2 59.1302 24.88 58.1969 24.88ZM109.994 17.44H115.314V54.6H109.994V17.44ZM103.634 30.52H110.634V34.84H103.634V30.52ZM85.8738 41.96H88.8738C90.9271 41.96 92.8204 41.9333 94.5538 41.88C96.3138 41.8267 98.0204 41.7333 99.6738 41.6C101.327 41.4667 103.02 41.28 104.754 41.04L105.274 45.24C103.487 45.5333 101.727 45.7467 99.9938 45.88C98.2871 46.0133 96.5271 46.1067 94.7138 46.16C92.9004 46.2133 90.9538 46.24 88.8738 46.24H85.8738V41.96ZM85.8738 20.56H103.034V24.88H91.1938V43.28H85.8738V20.56ZM89.9538 30.88H101.794V35.04H89.9538V30.88ZM132.951 19.96C134.871 19.96 136.604 20.3467 138.151 21.12C139.697 21.8933 140.911 22.9733 141.791 24.36C142.671 25.72 143.111 27.2933 143.111 29.08C143.111 30.84 142.671 32.4133 141.791 33.8C140.911 35.1867 139.697 36.2667 138.151 37.04C136.604 37.8133 134.871 38.2 132.951 38.2C131.004 38.2 129.257 37.8133 127.711 37.04C126.164 36.2667 124.937 35.1867 124.031 33.8C123.151 32.4133 122.711 30.84 122.711 29.08C122.711 27.2933 123.151 25.72 124.031 24.36C124.937 22.9733 126.164 21.8933 127.711 21.12C129.257 20.3467 131.004 19.96 132.951 19.96ZM132.951 24.52C131.991 24.52 131.124 24.7067 130.351 25.08C129.604 25.4267 129.004 25.9467 128.551 26.64C128.124 27.3067 127.911 28.12 127.911 29.08C127.911 30.04 128.124 30.8667 128.551 31.56C129.004 32.2533 129.604 32.7867 130.351 33.16C131.124 33.5067 131.991 33.68 132.951 33.68C133.884 33.68 134.724 33.5067 135.471 33.16C136.217 32.7867 136.804 32.2533 137.231 31.56C137.684 30.8667 137.911 30.04 137.911 29.08C137.911 28.12 137.684 27.3067 137.231 26.64C136.804 25.9467 136.217 25.4267 135.471 25.08C134.724 24.7067 133.884 24.52 132.951 24.52ZM146.591 17.44H151.911V54.6H146.591V17.44ZM121.791 47.12L121.191 42.8C123.351 42.8 125.737 42.7867 128.351 42.76C130.991 42.7067 133.697 42.6 136.471 42.44C139.271 42.2533 141.977 41.9733 144.591 41.6L144.951 45.44C142.284 45.9733 139.577 46.36 136.831 46.6C134.084 46.8133 131.431 46.96 128.871 47.04C126.311 47.0933 123.951 47.12 121.791 47.12ZM185.765 29.08H195.525V33.36H185.765V29.08ZM175.685 20.32H179.965V25.72C179.965 28.04 179.765 30.2933 179.365 32.48C178.965 34.6667 178.352 36.7067 177.525 38.6C176.699 40.4933 175.645 42.16 174.365 43.6C173.112 45.04 171.619 46.2 169.885 47.08L166.565 42.84C168.139 42.0933 169.485 41.12 170.605 39.92C171.752 38.72 172.699 37.36 173.445 35.84C174.219 34.2933 174.779 32.6667 175.125 30.96C175.499 29.2267 175.685 27.48 175.685 25.72V20.32ZM176.765 20.32H181.005V25.72C181.005 27.4533 181.179 29.1733 181.525 30.88C181.872 32.56 182.392 34.1333 183.085 35.6C183.805 37.0667 184.725 38.3733 185.845 39.52C186.965 40.64 188.299 41.5467 189.845 42.24L186.645 46.48C184.912 45.6267 183.419 44.5067 182.165 43.12C180.912 41.7067 179.885 40.0933 179.085 38.28C178.312 36.4667 177.725 34.4933 177.325 32.36C176.952 30.2267 176.765 28.0133 176.765 25.72V20.32ZM192.845 17.44H198.165V54.6H192.845V17.44ZM230.882 17.48H235.962V54.52H230.882V17.48ZM226.482 31.68H232.602V36H226.482V31.68ZM222.922 18.08H227.882V52.88H222.922V18.08ZM210.482 23.28H214.522V26.52C214.522 28.8133 214.376 31.0267 214.082 33.16C213.816 35.2667 213.362 37.24 212.722 39.08C212.109 40.8933 211.282 42.52 210.242 43.96C209.202 45.4 207.909 46.5733 206.362 47.48L203.162 43.44C205.002 42.3467 206.456 40.9333 207.522 39.2C208.589 37.4667 209.349 35.52 209.802 33.36C210.256 31.1733 210.482 28.8933 210.482 26.52V23.28ZM211.562 23.28H215.602V26.52C215.602 28.68 215.829 30.7733 216.282 32.8C216.762 34.8267 217.536 36.64 218.602 38.24C219.696 39.84 221.162 41.12 223.002 42.08L219.962 46.12C217.882 45 216.229 43.4533 215.002 41.48C213.776 39.5067 212.896 37.24 212.362 34.68C211.829 32.12 211.562 29.4 211.562 26.52V23.28ZM204.322 21.24H221.162V25.52H204.322V21.24Z" fill="#354E34"/>
</g>
<defs>
<filter id="filter0_d_109_192" x="643.9" y="83.24" width="64.5771" height="30.52" filterUnits="userSpaceOnUse" color-interpolation-filters="sRGB">
<feFlood flood-opacity="0" result="BackgroundImageFix"/>
<feColorMatrix in="SourceAlpha" type="matrix" values="0 0 0 0 0 0 0 0 0 0 0 0 0 0 0 0 0 0 127 0" result="hardAlpha"/>
<feOffset dy="3"/>
<feGaussianBlur stdDeviation="3"/>
<feColorMatrix type="matrix" values="0 0 0 0 0 0 0 0 0 0 0 0 0 0 0 0 0 0 0.161 0"/>
<feBlend mode="normal" in2="BackgroundImageFix" result="effect1_dropShadow_109_192"/>
<feBlend mode="normal" in="SourceGraphic" in2="effect1_dropShadow_109_192" result="shape"/>
</filter>
<filter id="filter1_d_109_192" x="644.515" y="116.06" width="251.624" height="27.6899" filterUnits="userSpaceOnUse" color-interpolation-filters="sRGB">
<feFlood flood-opacity="0" result="BackgroundImageFix"/>
<feColorMatrix in="SourceAlpha" type="matrix" values="0 0 0 0 0 0 0 0 0 0 0 0 0 0 0 0 0 0 127 0" result="hardAlpha"/>
<feOffset dy="3"/>
<feGaussianBlur stdDeviation="3"/>
<feColorMatrix type="matrix" values="0 0 0 0 0 0 0 0 0 0 0 0 0 0 0 0 0 0 0.161 0"/>
<feBlend mode="normal" in2="BackgroundImageFix" result="effect1_dropShadow_109_192"/>
<feBlend mode="normal" in="SourceGraphic" in2="effect1_dropShadow_109_192" result="shape"/>
</filter>
<filter id="filter2_d_109_192" x="729.38" y="87.0601" width="167.378" height="27.5699" filterUnits="userSpaceOnUse" color-interpolation-filters="sRGB">
<feFlood flood-opacity="0" result="BackgroundImageFix"/>
<feColorMatrix in="SourceAlpha" type="matrix" values="0 0 0 0 0 0 0 0 0 0 0 0 0 0 0 0 0 0 127 0" result="hardAlpha"/>
<feOffset dy="3"/>
<feGaussianBlur stdDeviation="3"/>
<feColorMatrix type="matrix" values="0 0 0 0 0 0 0 0 0 0 0 0 0 0 0 0 0 0 0.161 0"/>
<feBlend mode="normal" in2="BackgroundImageFix" result="effect1_dropShadow_109_192"/>
<feBlend mode="normal" in="SourceGraphic" in2="effect1_dropShadow_109_192" result="shape"/>
</filter>
<filter id="filter3_d_109_192" x="4.71045" y="70.1" width="577.902" height="32.4512" filterUnits="userSpaceOnUse" color-interpolation-filters="sRGB">
<feFlood flood-opacity="0" result="BackgroundImageFix"/>
<feColorMatrix in="SourceAlpha" type="matrix" values="0 0 0 0 0 0 0 0 0 0 0 0 0 0 0 0 0 0 127 0" result="hardAlpha"/>
<feOffset dy="3"/>
<feGaussianBlur stdDeviation="3"/>
<feColorMatrix type="matrix" values="0 0 0 0 0 0 0 0 0 0 0 0 0 0 0 0 0 0 0.161 0"/>
<feBlend mode="normal" in2="BackgroundImageFix" result="effect1_dropShadow_109_192"/>
<feBlend mode="normal" in="SourceGraphic" in2="effect1_dropShadow_109_192" result="shape"/>
</filter>
<filter id="filter4_d_109_192" x="4.72021" y="109.34" width="324.428" height="26.01" filterUnits="userSpaceOnUse" color-interpolation-filters="sRGB">
<feFlood flood-opacity="0" result="BackgroundImageFix"/>
<feColorMatrix in="SourceAlpha" type="matrix" values="0 0 0 0 0 0 0 0 0 0 0 0 0 0 0 0 0 0 127 0" result="hardAlpha"/>
<feOffset dy="3"/>
<feGaussianBlur stdDeviation="3"/>
<feColorMatrix type="matrix" values="0 0 0 0 0 0 0 0 0 0 0 0 0 0 0 0 0 0 0.161 0"/>
<feBlend mode="normal" in2="BackgroundImageFix" result="effect1_dropShadow_109_192"/>
<feBlend mode="normal" in="SourceGraphic" in2="effect1_dropShadow_109_192" result="shape"/>
</filter>
<filter id="filter5_d_109_192" x="5.68018" y="14.4399" width="236.282" height="49.16" filterUnits="userSpaceOnUse" color-interpolation-filters="sRGB">
<feFlood flood-opacity="0" result="BackgroundImageFix"/>
<feColorMatrix in="SourceAlpha" type="matrix" values="0 0 0 0 0 0 0 0 0 0 0 0 0 0 0 0 0 0 127 0" result="hardAlpha"/>
<feOffset dy="3"/>
<feGaussianBlur stdDeviation="3"/>
<feColorMatrix type="matrix" values="0 0 0 0 0 0 0 0 0 0 0 0 0 0 0 0 0 0 0.161 0"/>
<feBlend mode="normal" in2="BackgroundImageFix" result="effect1_dropShadow_109_192"/>
<feBlend mode="normal" in="SourceGraphic" in2="effect1_dropShadow_109_192" result="shape"/>
</filter>
</defs>
</svg>
