<svg width="893" height="130" viewBox="0 0 893 130" fill="none" xmlns="http://www.w3.org/2000/svg">
<g filter="url(#filter0_d_32_6)">
<path d="M652.76 73.3H655.56C655.56 74.94 655.22 76.4067 654.54 77.7C653.86 78.98 652.88 80.0667 651.6 80.96C650.32 81.84 648.753 82.52 646.9 83L645.9 80.9C647.433 80.5267 648.707 80.0267 649.72 79.4C650.733 78.7733 651.493 78.0533 652 77.24C652.507 76.4133 652.76 75.5467 652.76 74.64V73.3ZM646.96 73.3H654.48V75.4H646.96V73.3ZM658.54 72.24H661.2V82.56H658.54V72.24ZM648.94 83.36H661.2V90.58H648.94V83.36ZM658.58 85.44H651.56V88.48H658.58V85.44ZM667.998 83.96H670.698V90.76H667.998V83.96ZM674.398 83.96H677.098V90.76H674.398V83.96ZM664.218 82.56H680.978V84.7H664.218V82.56ZM672.558 72.88C673.878 72.88 675.038 73.0467 676.038 73.38C677.052 73.7133 677.838 74.1933 678.398 74.82C678.958 75.4467 679.238 76.18 679.238 77.02C679.238 77.86 678.958 78.5933 678.398 79.22C677.838 79.8333 677.052 80.3133 676.038 80.66C675.038 80.9933 673.878 81.16 672.558 81.16C671.238 81.16 670.072 80.9933 669.058 80.66C668.058 80.3133 667.272 79.8333 666.698 79.22C666.138 78.5933 665.858 77.86 665.858 77.02C665.858 76.18 666.138 75.4467 666.698 74.82C667.272 74.1933 668.058 73.7133 669.058 73.38C670.072 73.0467 671.238 72.88 672.558 72.88ZM672.558 74.98C671.745 74.98 671.038 75.06 670.438 75.22C669.852 75.38 669.398 75.6133 669.078 75.92C668.758 76.2133 668.598 76.58 668.598 77.02C668.598 77.46 668.758 77.8333 669.078 78.14C669.398 78.4333 669.852 78.66 670.438 78.82C671.038 78.9667 671.745 79.04 672.558 79.04C673.372 79.04 674.072 78.9667 674.658 78.82C675.245 78.66 675.698 78.4333 676.018 78.14C676.352 77.8333 676.518 77.46 676.518 77.02C676.518 76.58 676.352 76.2133 676.018 75.92C675.698 75.6133 675.245 75.38 674.658 75.22C674.072 75.06 673.372 74.98 672.558 74.98ZM683.537 73.7H692.517V82.68H683.537V73.7ZM689.917 75.82H686.157V80.56H689.917V75.82ZM695.337 72.26H697.997V85.42H695.337V72.26ZM685.657 88.26H698.477V90.38H685.657V88.26ZM685.657 84.24H688.317V89.2H685.657V84.24Z" fill="#1C1C1C"/>
</g>
<g filter="url(#filter1_d_32_6)">
<path d="M646.515 117V106.005H647.895V111.525H647.925L652.53 106.005H654.105L650.655 110.175L654.63 117H653.085L649.785 111.27L647.895 113.52V117H646.515ZM656.212 117V106.005H657.592V117H656.212ZM660.607 117V106.005H662.272L664.372 111.885C664.512 112.255 664.647 112.635 664.777 113.025C664.907 113.415 665.037 113.8 665.167 114.18H665.227C665.367 113.8 665.497 113.415 665.617 113.025C665.747 112.635 665.872 112.255 665.992 111.885L668.092 106.005H669.757V117H668.467V110.91C668.467 110.59 668.477 110.245 668.497 109.875C668.517 109.495 668.542 109.115 668.572 108.735C668.602 108.345 668.627 107.99 668.647 107.67H668.587L667.702 110.175L665.632 115.89H664.702L662.617 110.175L661.732 107.67H661.672C661.712 107.99 661.742 108.345 661.762 108.735C661.792 109.115 661.812 109.495 661.822 109.875C661.842 110.245 661.852 110.59 661.852 110.91V117H660.607ZM677.904 117V112.74L674.604 106.005H676.074L677.499 109.11C677.679 109.52 677.854 109.92 678.024 110.31C678.194 110.7 678.379 111.105 678.579 111.525H678.639C678.839 111.105 679.029 110.7 679.209 110.31C679.389 109.92 679.569 109.52 679.749 109.11L681.159 106.005H682.599L679.284 112.74V117H677.904ZM687.798 117.195C687.238 117.195 686.718 117.115 686.238 116.955C685.758 116.795 685.338 116.53 684.978 116.16C684.628 115.79 684.353 115.3 684.153 114.69C683.953 114.08 683.853 113.34 683.853 112.47V106.005H685.233V112.5C685.233 113.38 685.348 114.075 685.578 114.585C685.808 115.085 686.113 115.445 686.493 115.665C686.883 115.875 687.318 115.98 687.798 115.98C688.288 115.98 688.728 115.875 689.118 115.665C689.508 115.445 689.818 115.085 690.048 114.585C690.288 114.075 690.408 113.38 690.408 112.5V106.005H691.743V112.47C691.743 113.34 691.643 114.08 691.443 114.69C691.253 115.3 690.978 115.79 690.618 116.16C690.258 116.53 689.838 116.795 689.358 116.955C688.878 117.115 688.358 117.195 687.798 117.195ZM694.708 117V106.005H696.373L698.473 111.885C698.613 112.255 698.748 112.635 698.878 113.025C699.008 113.415 699.138 113.8 699.268 114.18H699.328C699.468 113.8 699.598 113.415 699.718 113.025C699.848 112.635 699.973 112.255 700.093 111.885L702.193 106.005H703.858V117H702.568V110.91C702.568 110.59 702.578 110.245 702.598 109.875C702.618 109.495 702.643 109.115 702.673 108.735C702.703 108.345 702.728 107.99 702.748 107.67H702.688L701.803 110.175L699.733 115.89H698.803L696.718 110.175L695.833 107.67H695.773C695.813 107.99 695.843 108.345 695.863 108.735C695.893 109.115 695.913 109.495 695.923 109.875C695.943 110.245 695.953 110.59 695.953 110.91V117H694.708ZM706.881 117V106.005H708.261V117H706.881ZM711.276 117V106.005H712.686L716.706 112.935L717.891 115.2H717.966C717.916 114.65 717.871 114.075 717.831 113.475C717.791 112.875 717.771 112.29 717.771 111.72V106.005H719.091V117H717.666L713.661 110.055L712.476 107.805H712.416C712.446 108.355 712.481 108.92 712.521 109.5C712.561 110.07 712.581 110.645 712.581 111.225V117H711.276ZM724.12 119.685L728.62 105.09H729.61L725.125 119.685H724.12ZM733.244 117L736.964 106.005H738.509L742.244 117H740.774L738.854 110.85C738.654 110.22 738.464 109.605 738.284 109.005C738.104 108.395 737.924 107.77 737.744 107.13H737.684C737.514 107.77 737.334 108.395 737.144 109.005C736.964 109.605 736.779 110.22 736.589 110.85L734.639 117H733.244ZM735.179 113.64V112.545H740.249V113.64H735.179ZM743.69 117V108.855H744.815L744.95 110.34H744.98C745.26 109.82 745.6 109.41 746 109.11C746.41 108.8 746.84 108.645 747.29 108.645C747.48 108.645 747.64 108.66 747.77 108.69C747.91 108.71 748.04 108.755 748.16 108.825L747.905 110.01C747.765 109.97 747.64 109.94 747.53 109.92C747.42 109.89 747.28 109.875 747.11 109.875C746.78 109.875 746.425 110.02 746.045 110.31C745.665 110.59 745.34 111.075 745.07 111.765V117H743.69ZM752.51 117.195C751.79 117.195 751.14 117.03 750.56 116.7C749.99 116.36 749.535 115.875 749.195 115.245C748.865 114.605 748.7 113.835 748.7 112.935C748.7 112.025 748.88 111.255 749.24 110.625C749.6 109.985 750.08 109.495 750.68 109.155C751.28 108.815 751.925 108.645 752.615 108.645C753.145 108.645 753.6 108.74 753.98 108.93C754.37 109.12 754.705 109.345 754.985 109.605L754.295 110.505C754.065 110.295 753.815 110.125 753.545 109.995C753.285 109.865 752.995 109.8 752.675 109.8C752.185 109.8 751.745 109.93 751.355 110.19C750.965 110.45 750.66 110.815 750.44 111.285C750.22 111.755 750.11 112.305 750.11 112.935C750.11 113.555 750.215 114.1 750.425 114.57C750.645 115.04 750.94 115.405 751.31 115.665C751.69 115.925 752.13 116.055 752.63 116.055C753.01 116.055 753.36 115.98 753.68 115.83C754 115.67 754.29 115.475 754.55 115.245L755.15 116.175C754.78 116.495 754.37 116.745 753.92 116.925C753.47 117.105 753 117.195 752.51 117.195ZM756.946 117V105.06H758.326V108.33L758.266 110.01C758.646 109.63 759.051 109.31 759.481 109.05C759.911 108.78 760.406 108.645 760.966 108.645C761.826 108.645 762.456 108.92 762.856 109.47C763.256 110.01 763.456 110.8 763.456 111.84V117H762.091V112.02C762.091 111.25 761.966 110.695 761.716 110.355C761.476 110.015 761.086 109.845 760.546 109.845C760.126 109.845 759.751 109.95 759.421 110.16C759.091 110.37 758.726 110.68 758.326 111.09V117H756.946ZM766.058 117V108.855H767.438V117H766.058ZM766.748 107.175C766.478 107.175 766.258 107.095 766.088 106.935C765.928 106.765 765.848 106.54 765.848 106.26C765.848 105.99 765.928 105.775 766.088 105.615C766.258 105.455 766.478 105.375 766.748 105.375C767.018 105.375 767.238 105.455 767.408 105.615C767.578 105.775 767.663 105.99 767.663 106.26C767.663 106.54 767.578 106.765 767.408 106.935C767.238 107.095 767.018 107.175 766.748 107.175ZM772.739 117.195C772.169 117.195 771.714 117.085 771.374 116.865C771.034 116.635 770.789 116.315 770.639 115.905C770.499 115.495 770.429 115.02 770.429 114.48V109.965H769.214V108.93L770.504 108.855L770.654 106.56H771.794V108.855H774.014V109.965H771.794V114.525C771.794 115.015 771.884 115.4 772.064 115.68C772.254 115.95 772.584 116.085 773.054 116.085C773.204 116.085 773.364 116.065 773.534 116.025C773.704 115.975 773.854 115.92 773.984 115.86L774.254 116.895C774.024 116.975 773.779 117.045 773.519 117.105C773.259 117.165 772.999 117.195 772.739 117.195ZM778.879 117.195C778.149 117.195 777.489 117.025 776.899 116.685C776.309 116.345 775.839 115.86 775.489 115.23C775.149 114.59 774.979 113.825 774.979 112.935C774.979 112.265 775.079 111.67 775.279 111.15C775.479 110.62 775.749 110.17 776.089 109.8C776.439 109.42 776.834 109.135 777.274 108.945C777.714 108.745 778.164 108.645 778.624 108.645C779.324 108.645 779.914 108.8 780.394 109.11C780.874 109.42 781.239 109.865 781.489 110.445C781.749 111.015 781.879 111.69 781.879 112.47C781.879 112.62 781.874 112.76 781.864 112.89C781.854 113.02 781.839 113.14 781.819 113.25H776.329C776.359 113.83 776.489 114.335 776.719 114.765C776.959 115.185 777.274 115.515 777.664 115.755C778.054 115.985 778.509 116.1 779.029 116.1C779.429 116.1 779.789 116.045 780.109 115.935C780.439 115.815 780.759 115.655 781.069 115.455L781.549 116.37C781.199 116.6 780.804 116.795 780.364 116.955C779.924 117.115 779.429 117.195 778.879 117.195ZM776.314 112.275H780.679C780.679 111.455 780.499 110.83 780.139 110.4C779.789 109.96 779.294 109.74 778.654 109.74C778.274 109.74 777.914 109.84 777.574 110.04C777.244 110.24 776.964 110.525 776.734 110.895C776.514 111.265 776.374 111.725 776.314 112.275ZM787.095 117.195C786.375 117.195 785.725 117.03 785.145 116.7C784.575 116.36 784.12 115.875 783.78 115.245C783.45 114.605 783.285 113.835 783.285 112.935C783.285 112.025 783.465 111.255 783.825 110.625C784.185 109.985 784.665 109.495 785.265 109.155C785.865 108.815 786.51 108.645 787.2 108.645C787.73 108.645 788.185 108.74 788.565 108.93C788.955 109.12 789.29 109.345 789.57 109.605L788.88 110.505C788.65 110.295 788.4 110.125 788.13 109.995C787.87 109.865 787.58 109.8 787.26 109.8C786.77 109.8 786.33 109.93 785.94 110.19C785.55 110.45 785.245 110.815 785.025 111.285C784.805 111.755 784.695 112.305 784.695 112.935C784.695 113.555 784.8 114.1 785.01 114.57C785.23 115.04 785.525 115.405 785.895 115.665C786.275 115.925 786.715 116.055 787.215 116.055C787.595 116.055 787.945 115.98 788.265 115.83C788.585 115.67 788.875 115.475 789.135 115.245L789.735 116.175C789.365 116.495 788.955 116.745 788.505 116.925C788.055 117.105 787.585 117.195 787.095 117.195ZM793.876 117.195C793.306 117.195 792.851 117.085 792.511 116.865C792.171 116.635 791.926 116.315 791.776 115.905C791.636 115.495 791.566 115.02 791.566 114.48V109.965H790.351V108.93L791.641 108.855L791.791 106.56H792.931V108.855H795.151V109.965H792.931V114.525C792.931 115.015 793.021 115.4 793.201 115.68C793.391 115.95 793.721 116.085 794.191 116.085C794.341 116.085 794.501 116.065 794.671 116.025C794.841 115.975 794.991 115.92 795.121 115.86L795.391 116.895C795.161 116.975 794.916 117.045 794.656 117.105C794.396 117.165 794.136 117.195 793.876 117.195ZM799.366 117.195C798.506 117.195 797.871 116.925 797.461 116.385C797.061 115.845 796.861 115.055 796.861 114.015V108.855H798.241V113.85C798.241 114.6 798.361 115.15 798.601 115.5C798.841 115.84 799.231 116.01 799.771 116.01C800.191 116.01 800.566 115.9 800.896 115.68C801.226 115.46 801.586 115.11 801.976 114.63V108.855H803.341V117H802.201L802.096 115.725H802.051C801.671 116.165 801.266 116.52 800.836 116.79C800.416 117.06 799.926 117.195 799.366 117.195ZM806.092 117V108.855H807.217L807.352 110.34H807.382C807.662 109.82 808.002 109.41 808.402 109.11C808.812 108.8 809.242 108.645 809.692 108.645C809.882 108.645 810.042 108.66 810.172 108.69C810.312 108.71 810.442 108.755 810.562 108.825L810.307 110.01C810.167 109.97 810.042 109.94 809.932 109.92C809.822 109.89 809.682 109.875 809.512 109.875C809.182 109.875 808.827 110.02 808.447 110.31C808.067 110.59 807.742 111.075 807.472 111.765V117H806.092ZM813.343 117.195C812.893 117.195 812.488 117.105 812.128 116.925C811.768 116.745 811.483 116.485 811.273 116.145C811.073 115.795 810.973 115.375 810.973 114.885C810.973 113.995 811.368 113.315 812.158 112.845C812.958 112.365 814.228 112.03 815.968 111.84C815.968 111.49 815.918 111.16 815.818 110.85C815.728 110.53 815.563 110.275 815.323 110.085C815.083 109.885 814.738 109.785 814.288 109.785C813.818 109.785 813.373 109.88 812.953 110.07C812.543 110.25 812.173 110.445 811.843 110.655L811.318 109.71C811.568 109.55 811.858 109.39 812.188 109.23C812.518 109.06 812.878 108.92 813.268 108.81C813.658 108.7 814.073 108.645 814.513 108.645C815.173 108.645 815.708 108.785 816.118 109.065C816.538 109.345 816.843 109.735 817.033 110.235C817.233 110.725 817.333 111.31 817.333 111.99V117H816.208L816.088 116.025H816.043C815.663 116.345 815.243 116.62 814.783 116.85C814.333 117.08 813.853 117.195 813.343 117.195ZM813.733 116.085C814.123 116.085 814.493 115.995 814.843 115.815C815.203 115.635 815.578 115.37 815.968 115.02V112.755C815.058 112.855 814.333 113 813.793 113.19C813.253 113.37 812.868 113.595 812.638 113.865C812.408 114.125 812.293 114.435 812.293 114.795C812.293 115.265 812.433 115.6 812.713 115.8C812.993 115.99 813.333 116.085 813.733 116.085ZM821.36 117.195C821.02 117.195 820.745 117.125 820.535 116.985C820.325 116.845 820.17 116.64 820.07 116.37C819.97 116.09 819.92 115.76 819.92 115.38V105.06H821.3V115.47C821.3 115.68 821.335 115.83 821.405 115.92C821.485 116.01 821.575 116.055 821.675 116.055C821.715 116.055 821.755 116.055 821.795 116.055C821.835 116.045 821.89 116.035 821.96 116.025L822.155 117.075C822.055 117.105 821.945 117.13 821.825 117.15C821.705 117.18 821.55 117.195 821.36 117.195ZM827.672 117V106.005H830.417C831.547 106.005 832.497 106.22 833.267 106.65C834.037 107.07 834.617 107.685 835.007 108.495C835.397 109.305 835.592 110.295 835.592 111.465C835.592 112.625 835.397 113.62 835.007 114.45C834.617 115.28 834.042 115.915 833.282 116.355C832.522 116.785 831.587 117 830.477 117H827.672ZM829.052 115.86H830.297C831.157 115.86 831.872 115.69 832.442 115.35C833.022 115 833.452 114.495 833.732 113.835C834.022 113.175 834.167 112.385 834.167 111.465C834.167 110.525 834.022 109.735 833.732 109.095C833.452 108.455 833.022 107.97 832.442 107.64C831.872 107.3 831.157 107.13 830.297 107.13H829.052V115.86ZM841.164 117.195C840.434 117.195 839.774 117.025 839.184 116.685C838.594 116.345 838.124 115.86 837.774 115.23C837.434 114.59 837.264 113.825 837.264 112.935C837.264 112.265 837.364 111.67 837.564 111.15C837.764 110.62 838.034 110.17 838.374 109.8C838.724 109.42 839.119 109.135 839.559 108.945C839.999 108.745 840.449 108.645 840.909 108.645C841.609 108.645 842.199 108.8 842.679 109.11C843.159 109.42 843.524 109.865 843.774 110.445C844.034 111.015 844.164 111.69 844.164 112.47C844.164 112.62 844.159 112.76 844.149 112.89C844.139 113.02 844.124 113.14 844.104 113.25H838.614C838.644 113.83 838.774 114.335 839.004 114.765C839.244 115.185 839.559 115.515 839.949 115.755C840.339 115.985 840.794 116.1 841.314 116.1C841.714 116.1 842.074 116.045 842.394 115.935C842.724 115.815 843.044 115.655 843.354 115.455L843.834 116.37C843.484 116.6 843.089 116.795 842.649 116.955C842.209 117.115 841.714 117.195 841.164 117.195ZM838.599 112.275H842.964C842.964 111.455 842.784 110.83 842.424 110.4C842.074 109.96 841.579 109.74 840.939 109.74C840.559 109.74 840.199 109.84 839.859 110.04C839.529 110.24 839.249 110.525 839.019 110.895C838.799 111.265 838.659 111.725 838.599 112.275ZM848.3 117.195C847.73 117.195 847.175 117.09 846.635 116.88C846.105 116.66 845.65 116.39 845.27 116.07L845.93 115.155C846.29 115.445 846.66 115.68 847.04 115.86C847.42 116.04 847.855 116.13 848.345 116.13C848.885 116.13 849.285 116.01 849.545 115.77C849.815 115.52 849.95 115.215 849.95 114.855C849.95 114.575 849.855 114.345 849.665 114.165C849.485 113.975 849.25 113.815 848.96 113.685C848.68 113.545 848.39 113.42 848.09 113.31C847.71 113.16 847.335 112.995 846.965 112.815C846.605 112.625 846.305 112.385 846.065 112.095C845.835 111.795 845.72 111.415 845.72 110.955C845.72 110.515 845.83 110.125 846.05 109.785C846.27 109.435 846.59 109.16 847.01 108.96C847.43 108.75 847.935 108.645 848.525 108.645C849.025 108.645 849.49 108.735 849.92 108.915C850.36 109.095 850.735 109.315 851.045 109.575L850.385 110.43C850.105 110.23 849.815 110.06 849.515 109.92C849.225 109.78 848.9 109.71 848.54 109.71C848.02 109.71 847.635 109.83 847.385 110.07C847.145 110.3 847.025 110.575 847.025 110.895C847.025 111.145 847.105 111.355 847.265 111.525C847.435 111.695 847.655 111.84 847.925 111.96C848.195 112.07 848.48 112.185 848.78 112.305C849.08 112.415 849.375 112.535 849.665 112.665C849.965 112.795 850.23 112.95 850.46 113.13C850.7 113.31 850.89 113.535 851.03 113.805C851.18 114.065 851.255 114.39 851.255 114.78C851.255 115.22 851.14 115.625 850.91 115.995C850.69 116.365 850.36 116.66 849.92 116.88C849.49 117.09 848.95 117.195 848.3 117.195ZM853.187 117V108.855H854.567V117H853.187ZM853.877 107.175C853.607 107.175 853.387 107.095 853.217 106.935C853.057 106.765 852.977 106.54 852.977 106.26C852.977 105.99 853.057 105.775 853.217 105.615C853.387 105.455 853.607 105.375 853.877 105.375C854.147 105.375 854.367 105.455 854.537 105.615C854.707 105.775 854.792 105.99 854.792 106.26C854.792 106.54 854.707 106.765 854.537 106.935C854.367 107.095 854.147 107.175 853.877 107.175ZM860.063 120.75C859.403 120.75 858.818 120.665 858.308 120.495C857.798 120.325 857.403 120.075 857.123 119.745C856.843 119.425 856.703 119.035 856.703 118.575C856.703 118.225 856.808 117.885 857.018 117.555C857.228 117.235 857.523 116.96 857.903 116.73V116.655C857.693 116.525 857.518 116.35 857.378 116.13C857.238 115.91 857.168 115.64 857.168 115.32C857.168 114.98 857.263 114.68 857.453 114.42C857.653 114.16 857.858 113.955 858.068 113.805V113.745C857.798 113.535 857.553 113.24 857.333 112.86C857.113 112.48 857.003 112.045 857.003 111.555C857.003 110.955 857.143 110.44 857.423 110.01C857.703 109.57 858.073 109.235 858.533 109.005C859.003 108.765 859.508 108.645 860.048 108.645C860.288 108.645 860.503 108.665 860.693 108.705C860.893 108.745 861.063 108.795 861.203 108.855H864.038V109.905H862.373C862.573 110.095 862.733 110.335 862.853 110.625C862.973 110.915 863.033 111.235 863.033 111.585C863.033 112.165 862.898 112.67 862.628 113.1C862.368 113.52 862.013 113.845 861.563 114.075C861.113 114.305 860.608 114.42 860.048 114.42C859.858 114.42 859.653 114.395 859.433 114.345C859.223 114.295 859.028 114.225 858.848 114.135C858.698 114.255 858.573 114.39 858.473 114.54C858.373 114.69 858.323 114.88 858.323 115.11C858.323 115.36 858.423 115.57 858.623 115.74C858.823 115.91 859.198 115.995 859.748 115.995H861.353C862.293 115.995 862.998 116.15 863.468 116.46C863.948 116.77 864.188 117.26 864.188 117.93C864.188 118.43 864.018 118.895 863.678 119.325C863.338 119.755 862.858 120.1 862.238 120.36C861.628 120.62 860.903 120.75 860.063 120.75ZM860.048 113.49C860.368 113.49 860.658 113.41 860.918 113.25C861.188 113.09 861.398 112.865 861.548 112.575C861.708 112.285 861.788 111.945 861.788 111.555C861.788 111.155 861.708 110.815 861.548 110.535C861.398 110.245 861.193 110.025 860.933 109.875C860.673 109.725 860.378 109.65 860.048 109.65C859.738 109.65 859.448 109.725 859.178 109.875C858.918 110.025 858.708 110.24 858.548 110.52C858.398 110.8 858.323 111.145 858.323 111.555C858.323 111.945 858.403 112.285 858.563 112.575C858.723 112.865 858.933 113.09 859.193 113.25C859.453 113.41 859.738 113.49 860.048 113.49ZM860.258 119.805C860.778 119.805 861.228 119.725 861.608 119.565C861.998 119.405 862.298 119.195 862.508 118.935C862.728 118.685 862.838 118.425 862.838 118.155C862.838 117.765 862.698 117.495 862.418 117.345C862.138 117.195 861.728 117.12 861.188 117.12H859.778C859.628 117.12 859.458 117.11 859.268 117.09C859.088 117.08 858.908 117.05 858.728 117C858.438 117.2 858.228 117.42 858.098 117.66C857.968 117.91 857.903 118.15 857.903 118.38C857.903 118.81 858.108 119.155 858.518 119.415C858.938 119.675 859.518 119.805 860.258 119.805ZM865.784 117V108.855H866.909L867.044 110.04H867.074C867.464 109.65 867.874 109.32 868.304 109.05C868.744 108.78 869.244 108.645 869.804 108.645C870.664 108.645 871.294 108.92 871.694 109.47C872.094 110.01 872.294 110.8 872.294 111.84V117H870.929V112.02C870.929 111.25 870.804 110.695 870.554 110.355C870.314 110.015 869.924 109.845 869.384 109.845C868.964 109.845 868.589 109.95 868.259 110.16C867.929 110.37 867.564 110.68 867.164 111.09V117H865.784ZM882.749 117.195C881.779 117.195 880.919 116.97 880.169 116.52C879.429 116.07 878.844 115.42 878.414 114.57C877.994 113.72 877.784 112.7 877.784 111.51C877.784 110.62 877.909 109.825 878.159 109.125C878.409 108.415 878.759 107.815 879.209 107.325C879.669 106.835 880.204 106.46 880.814 106.2C881.424 105.94 882.094 105.81 882.824 105.81C883.594 105.81 884.234 105.955 884.744 106.245C885.254 106.525 885.669 106.83 885.989 107.16L885.239 108.06C884.959 107.77 884.629 107.525 884.249 107.325C883.879 107.125 883.419 107.025 882.869 107.025C882.129 107.025 881.484 107.205 880.934 107.565C880.384 107.925 879.959 108.44 879.659 109.11C879.359 109.77 879.209 110.555 879.209 111.465C879.209 112.395 879.349 113.2 879.629 113.88C879.919 114.55 880.339 115.07 880.889 115.44C881.439 115.8 882.104 115.98 882.884 115.98C883.274 115.98 883.644 115.925 883.994 115.815C884.354 115.695 884.644 115.535 884.864 115.335V112.455H882.524V111.3H886.139V115.92C885.779 116.29 885.304 116.595 884.714 116.835C884.134 117.075 883.479 117.195 882.749 117.195Z" fill="#9E352F"/>
</g>
<g filter="url(#filter2_d_32_6)">
<path d="M731.38 88V79.855H732.505L732.64 81.34H732.67C732.95 80.82 733.29 80.41 733.69 80.11C734.1 79.8 734.53 79.645 734.98 79.645C735.17 79.645 735.33 79.66 735.46 79.69C735.6 79.71 735.73 79.755 735.85 79.825L735.595 81.01C735.455 80.97 735.33 80.94 735.22 80.92C735.11 80.89 734.97 80.875 734.8 80.875C734.47 80.875 734.115 81.02 733.735 81.31C733.355 81.59 733.03 82.075 732.76 82.765V88H731.38ZM738.635 88.195C738.295 88.195 738.02 88.125 737.81 87.985C737.6 87.845 737.445 87.64 737.345 87.37C737.245 87.09 737.195 86.76 737.195 86.38V76.06H738.575V86.47C738.575 86.68 738.61 86.83 738.68 86.92C738.76 87.01 738.85 87.055 738.95 87.055C738.99 87.055 739.03 87.055 739.07 87.055C739.11 87.045 739.165 87.035 739.235 87.025L739.43 88.075C739.33 88.105 739.22 88.13 739.1 88.15C738.98 88.18 738.825 88.195 738.635 88.195ZM743.333 88.195C742.883 88.195 742.478 88.105 742.118 87.925C741.758 87.745 741.473 87.485 741.263 87.145C741.063 86.795 740.963 86.375 740.963 85.885C740.963 84.995 741.358 84.315 742.148 83.845C742.948 83.365 744.218 83.03 745.958 82.84C745.958 82.49 745.908 82.16 745.808 81.85C745.718 81.53 745.553 81.275 745.313 81.085C745.073 80.885 744.728 80.785 744.278 80.785C743.808 80.785 743.363 80.88 742.943 81.07C742.533 81.25 742.163 81.445 741.833 81.655L741.308 80.71C741.558 80.55 741.848 80.39 742.178 80.23C742.508 80.06 742.868 79.92 743.258 79.81C743.648 79.7 744.063 79.645 744.503 79.645C745.163 79.645 745.698 79.785 746.108 80.065C746.528 80.345 746.833 80.735 747.023 81.235C747.223 81.725 747.323 82.31 747.323 82.99V88H746.198L746.078 87.025H746.033C745.653 87.345 745.233 87.62 744.773 87.85C744.323 88.08 743.843 88.195 743.333 88.195ZM743.723 87.085C744.113 87.085 744.483 86.995 744.833 86.815C745.193 86.635 745.568 86.37 745.958 86.02V83.755C745.048 83.855 744.323 84 743.783 84.19C743.243 84.37 742.858 84.595 742.628 84.865C742.398 85.125 742.283 85.435 742.283 85.795C742.283 86.265 742.423 86.6 742.703 86.8C742.983 86.99 743.323 87.085 743.723 87.085ZM752.685 88.195C752.005 88.195 751.41 88.03 750.9 87.7C750.4 87.37 750.01 86.89 749.73 86.26C749.46 85.62 749.325 84.845 749.325 83.935C749.325 83.055 749.49 82.295 749.82 81.655C750.15 81.015 750.58 80.52 751.11 80.17C751.65 79.82 752.23 79.645 752.85 79.645C753.33 79.645 753.74 79.73 754.08 79.9C754.43 80.06 754.785 80.29 755.145 80.59L755.07 79.195V76.06H756.45V88H755.325L755.205 87.04H755.16C754.84 87.36 754.47 87.635 754.05 87.865C753.63 88.085 753.175 88.195 752.685 88.195ZM752.985 87.04C753.365 87.04 753.725 86.95 754.065 86.77C754.405 86.58 754.74 86.3 755.07 85.93V81.655C754.73 81.345 754.4 81.125 754.08 80.995C753.76 80.865 753.43 80.8 753.09 80.8C752.66 80.8 752.265 80.935 751.905 81.205C751.555 81.465 751.27 81.83 751.05 82.3C750.84 82.76 750.735 83.3 750.735 83.92C750.735 84.57 750.825 85.13 751.005 85.6C751.185 86.07 751.44 86.43 751.77 86.68C752.11 86.92 752.515 87.04 752.985 87.04ZM762.797 88.195C762.427 88.195 762.037 88.105 761.627 87.925C761.217 87.745 760.837 87.49 760.487 87.16H760.427L760.307 88H759.212V76.06H760.592V79.33L760.532 80.785C760.902 80.465 761.307 80.195 761.747 79.975C762.187 79.755 762.637 79.645 763.097 79.645C763.797 79.645 764.387 79.82 764.867 80.17C765.347 80.51 765.712 80.99 765.962 81.61C766.212 82.23 766.337 82.96 766.337 83.8C766.337 84.72 766.167 85.51 765.827 86.17C765.497 86.83 765.062 87.335 764.522 87.685C763.992 88.025 763.417 88.195 762.797 88.195ZM762.572 87.04C763.022 87.04 763.422 86.915 763.772 86.665C764.132 86.405 764.412 86.035 764.612 85.555C764.812 85.065 764.912 84.485 764.912 83.815C764.912 83.215 764.837 82.69 764.687 82.24C764.547 81.78 764.322 81.425 764.012 81.175C763.702 80.925 763.282 80.8 762.752 80.8C762.412 80.8 762.062 80.895 761.702 81.085C761.342 81.275 760.972 81.55 760.592 81.91V86.2C760.942 86.51 761.292 86.73 761.642 86.86C762.002 86.98 762.312 87.04 762.572 87.04ZM770.081 88.195C769.631 88.195 769.226 88.105 768.866 87.925C768.506 87.745 768.221 87.485 768.011 87.145C767.811 86.795 767.711 86.375 767.711 85.885C767.711 84.995 768.106 84.315 768.896 83.845C769.696 83.365 770.966 83.03 772.706 82.84C772.706 82.49 772.656 82.16 772.556 81.85C772.466 81.53 772.301 81.275 772.061 81.085C771.821 80.885 771.476 80.785 771.026 80.785C770.556 80.785 770.111 80.88 769.691 81.07C769.281 81.25 768.911 81.445 768.581 81.655L768.056 80.71C768.306 80.55 768.596 80.39 768.926 80.23C769.256 80.06 769.616 79.92 770.006 79.81C770.396 79.7 770.811 79.645 771.251 79.645C771.911 79.645 772.446 79.785 772.856 80.065C773.276 80.345 773.581 80.735 773.771 81.235C773.971 81.725 774.071 82.31 774.071 82.99V88H772.946L772.826 87.025H772.781C772.401 87.345 771.981 87.62 771.521 87.85C771.071 88.08 770.591 88.195 770.081 88.195ZM770.471 87.085C770.861 87.085 771.231 86.995 771.581 86.815C771.941 86.635 772.316 86.37 772.706 86.02V83.755C771.796 83.855 771.071 84 770.531 84.19C769.991 84.37 769.606 84.595 769.376 84.865C769.146 85.125 769.031 85.435 769.031 85.795C769.031 86.265 769.171 86.6 769.451 86.8C769.731 86.99 770.071 87.085 770.471 87.085ZM778.098 88.195C777.758 88.195 777.483 88.125 777.273 87.985C777.063 87.845 776.908 87.64 776.808 87.37C776.708 87.09 776.658 86.76 776.658 86.38V76.06H778.038V86.47C778.038 86.68 778.073 86.83 778.143 86.92C778.223 87.01 778.313 87.055 778.413 87.055C778.453 87.055 778.493 87.055 778.533 87.055C778.573 87.045 778.628 87.035 778.698 87.025L778.893 88.075C778.793 88.105 778.683 88.13 778.563 88.15C778.443 88.18 778.288 88.195 778.098 88.195ZM783.051 88.195C782.481 88.195 781.926 88.09 781.386 87.88C780.856 87.66 780.401 87.39 780.021 87.07L780.681 86.155C781.041 86.445 781.411 86.68 781.791 86.86C782.171 87.04 782.606 87.13 783.096 87.13C783.636 87.13 784.036 87.01 784.296 86.77C784.566 86.52 784.701 86.215 784.701 85.855C784.701 85.575 784.606 85.345 784.416 85.165C784.236 84.975 784.001 84.815 783.711 84.685C783.431 84.545 783.141 84.42 782.841 84.31C782.461 84.16 782.086 83.995 781.716 83.815C781.356 83.625 781.056 83.385 780.816 83.095C780.586 82.795 780.471 82.415 780.471 81.955C780.471 81.515 780.581 81.125 780.801 80.785C781.021 80.435 781.341 80.16 781.761 79.96C782.181 79.75 782.686 79.645 783.276 79.645C783.776 79.645 784.241 79.735 784.671 79.915C785.111 80.095 785.486 80.315 785.796 80.575L785.136 81.43C784.856 81.23 784.566 81.06 784.266 80.92C783.976 80.78 783.651 80.71 783.291 80.71C782.771 80.71 782.386 80.83 782.136 81.07C781.896 81.3 781.776 81.575 781.776 81.895C781.776 82.145 781.856 82.355 782.016 82.525C782.186 82.695 782.406 82.84 782.676 82.96C782.946 83.07 783.231 83.185 783.531 83.305C783.831 83.415 784.126 83.535 784.416 83.665C784.716 83.795 784.981 83.95 785.211 84.13C785.451 84.31 785.641 84.535 785.781 84.805C785.931 85.065 786.006 85.39 786.006 85.78C786.006 86.22 785.891 86.625 785.661 86.995C785.441 87.365 785.111 87.66 784.671 87.88C784.241 88.09 783.701 88.195 783.051 88.195ZM790.728 88.195C790.018 88.195 789.408 87.98 788.898 87.55C788.388 87.12 787.993 86.49 787.713 85.66C787.443 84.83 787.308 83.815 787.308 82.615C787.308 81.425 787.443 80.42 787.713 79.6C787.993 78.78 788.388 78.16 788.898 77.74C789.408 77.32 790.018 77.11 790.728 77.11C791.438 77.11 792.048 77.32 792.558 77.74C793.068 78.16 793.458 78.78 793.728 79.6C794.008 80.42 794.148 81.425 794.148 82.615C794.148 83.815 794.008 84.83 793.728 85.66C793.458 86.49 793.068 87.12 792.558 87.55C792.048 87.98 791.438 88.195 790.728 88.195ZM790.728 87.085C791.148 87.085 791.513 86.93 791.823 86.62C792.143 86.31 792.388 85.825 792.558 85.165C792.738 84.505 792.828 83.655 792.828 82.615C792.828 81.575 792.738 80.73 792.558 80.08C792.388 79.43 792.143 78.955 791.823 78.655C791.513 78.355 791.148 78.205 790.728 78.205C790.318 78.205 789.953 78.355 789.633 78.655C789.313 78.955 789.063 79.43 788.883 80.08C788.713 80.73 788.628 81.575 788.628 82.615C788.628 83.655 788.713 84.505 788.883 85.165C789.063 85.825 789.313 86.31 789.633 86.62C789.953 86.93 790.318 87.085 790.728 87.085ZM796.198 88V86.86H798.658V78.97H796.693V78.1C797.183 78.01 797.608 77.9 797.968 77.77C798.338 77.64 798.673 77.485 798.973 77.305H800.023V86.86H802.228V88H796.198ZM809.933 90.595C809.123 90.595 808.358 90.465 807.638 90.205C806.928 89.955 806.303 89.575 805.763 89.065C805.223 88.555 804.798 87.93 804.488 87.19C804.188 86.44 804.038 85.575 804.038 84.595C804.038 83.465 804.223 82.445 804.593 81.535C804.973 80.625 805.488 79.845 806.138 79.195C806.788 78.545 807.533 78.045 808.373 77.695C809.223 77.345 810.113 77.17 811.043 77.17C812.173 77.17 813.148 77.405 813.968 77.875C814.788 78.335 815.418 78.98 815.858 79.81C816.308 80.64 816.533 81.61 816.533 82.72C816.533 83.45 816.433 84.095 816.233 84.655C816.033 85.205 815.768 85.67 815.438 86.05C815.108 86.42 814.743 86.7 814.343 86.89C813.953 87.08 813.568 87.175 813.188 87.175C812.738 87.175 812.348 87.07 812.018 86.86C811.698 86.65 811.513 86.33 811.463 85.9H811.418C811.148 86.22 810.833 86.495 810.473 86.725C810.113 86.945 809.748 87.055 809.378 87.055C808.818 87.055 808.338 86.85 807.938 86.44C807.548 86.02 807.353 85.43 807.353 84.67C807.353 84.23 807.428 83.785 807.578 83.335C807.738 82.875 807.958 82.45 808.238 82.06C808.518 81.67 808.858 81.36 809.258 81.13C809.658 80.9 810.103 80.785 810.593 80.785C810.873 80.785 811.128 80.855 811.358 80.995C811.588 81.125 811.778 81.33 811.928 81.61H811.958L812.153 80.92H813.053L812.393 84.265C812.073 85.585 812.378 86.245 813.308 86.245C813.668 86.245 814.018 86.11 814.358 85.84C814.708 85.56 814.998 85.16 815.228 84.64C815.458 84.12 815.573 83.5 815.573 82.78C815.573 82.1 815.473 81.475 815.273 80.905C815.073 80.335 814.778 79.84 814.388 79.42C813.998 79 813.513 78.675 812.933 78.445C812.353 78.205 811.683 78.085 810.923 78.085C810.173 78.085 809.448 78.24 808.748 78.55C808.048 78.85 807.418 79.285 806.858 79.855C806.308 80.415 805.868 81.095 805.538 81.895C805.208 82.685 805.043 83.57 805.043 84.55C805.043 85.37 805.168 86.1 805.418 86.74C805.668 87.37 806.018 87.9 806.468 88.33C806.918 88.77 807.448 89.105 808.058 89.335C808.668 89.565 809.328 89.68 810.038 89.68C810.548 89.68 811.033 89.605 811.493 89.455C811.963 89.315 812.383 89.14 812.753 88.93L813.128 89.74C812.648 90.03 812.143 90.245 811.613 90.385C811.083 90.525 810.523 90.595 809.933 90.595ZM809.648 86.11C809.878 86.11 810.123 86.035 810.383 85.885C810.643 85.725 810.918 85.465 811.208 85.105L811.673 82.45C811.523 82.19 811.363 82.01 811.193 81.91C811.023 81.8 810.823 81.745 810.593 81.745C810.273 81.745 809.978 81.835 809.708 82.015C809.438 82.185 809.208 82.415 809.018 82.705C808.838 82.985 808.698 83.295 808.598 83.635C808.508 83.965 808.463 84.285 808.463 84.595C808.463 85.135 808.573 85.525 808.793 85.765C809.023 85.995 809.308 86.11 809.648 86.11ZM820.648 88.195C820.198 88.195 819.793 88.105 819.433 87.925C819.073 87.745 818.788 87.485 818.578 87.145C818.378 86.795 818.278 86.375 818.278 85.885C818.278 84.995 818.673 84.315 819.463 83.845C820.263 83.365 821.533 83.03 823.273 82.84C823.273 82.49 823.223 82.16 823.123 81.85C823.033 81.53 822.868 81.275 822.628 81.085C822.388 80.885 822.043 80.785 821.593 80.785C821.123 80.785 820.678 80.88 820.258 81.07C819.848 81.25 819.478 81.445 819.148 81.655L818.623 80.71C818.873 80.55 819.163 80.39 819.493 80.23C819.823 80.06 820.183 79.92 820.573 79.81C820.963 79.7 821.378 79.645 821.818 79.645C822.478 79.645 823.013 79.785 823.423 80.065C823.843 80.345 824.148 80.735 824.338 81.235C824.538 81.725 824.638 82.31 824.638 82.99V88H823.513L823.393 87.025H823.348C822.968 87.345 822.548 87.62 822.088 87.85C821.638 88.08 821.158 88.195 820.648 88.195ZM821.038 87.085C821.428 87.085 821.798 86.995 822.148 86.815C822.508 86.635 822.883 86.37 823.273 86.02V83.755C822.363 83.855 821.638 84 821.098 84.19C820.558 84.37 820.173 84.595 819.943 84.865C819.713 85.125 819.598 85.435 819.598 85.795C819.598 86.265 819.738 86.6 820.018 86.8C820.298 86.99 820.638 87.085 821.038 87.085ZM826.37 91.63C826.13 91.63 825.91 91.61 825.71 91.57C825.5 91.53 825.325 91.48 825.185 91.42L825.455 90.385C825.555 90.425 825.675 90.46 825.815 90.49C825.955 90.52 826.095 90.535 826.235 90.535C826.645 90.535 826.915 90.39 827.045 90.1C827.175 89.81 827.24 89.42 827.24 88.93V79.855H828.605V88.93C828.605 89.48 828.53 89.955 828.38 90.355C828.24 90.765 828.005 91.08 827.675 91.3C827.345 91.52 826.91 91.63 826.37 91.63ZM827.915 78.175C827.645 78.175 827.425 78.095 827.255 77.935C827.085 77.765 827 77.54 827 77.26C827 76.99 827.085 76.775 827.255 76.615C827.425 76.455 827.645 76.375 827.915 76.375C828.175 76.375 828.39 76.455 828.56 76.615C828.74 76.775 828.83 76.99 828.83 77.26C828.83 77.54 828.74 77.765 828.56 77.935C828.39 78.095 828.175 78.175 827.915 78.175ZM834.521 88.195C833.861 88.195 833.241 88.03 832.661 87.7C832.081 87.36 831.616 86.875 831.266 86.245C830.926 85.605 830.756 84.835 830.756 83.935C830.756 83.025 830.926 82.255 831.266 81.625C831.616 80.985 832.081 80.495 832.661 80.155C833.241 79.815 833.861 79.645 834.521 79.645C835.021 79.645 835.496 79.74 835.946 79.93C836.406 80.12 836.811 80.4 837.161 80.77C837.511 81.14 837.786 81.59 837.986 82.12C838.186 82.65 838.286 83.255 838.286 83.935C838.286 84.835 838.111 85.605 837.761 86.245C837.411 86.875 836.951 87.36 836.381 87.7C835.811 88.03 835.191 88.195 834.521 88.195ZM834.521 87.055C834.991 87.055 835.401 86.925 835.751 86.665C836.111 86.405 836.391 86.04 836.591 85.57C836.791 85.1 836.891 84.555 836.891 83.935C836.891 83.305 836.791 82.755 836.591 82.285C836.391 81.815 836.111 81.45 835.751 81.19C835.401 80.93 834.991 80.8 834.521 80.8C834.051 80.8 833.636 80.93 833.276 81.19C832.926 81.45 832.651 81.815 832.451 82.285C832.261 82.755 832.166 83.305 832.166 83.935C832.166 84.555 832.261 85.1 832.451 85.57C832.651 86.04 832.926 86.405 833.276 86.665C833.636 86.925 834.051 87.055 834.521 87.055ZM842.837 88.195C841.977 88.195 841.342 87.925 840.932 87.385C840.532 86.845 840.332 86.055 840.332 85.015V79.855H841.712V84.85C841.712 85.6 841.832 86.15 842.072 86.5C842.312 86.84 842.702 87.01 843.242 87.01C843.662 87.01 844.037 86.9 844.367 86.68C844.697 86.46 845.057 86.11 845.447 85.63V79.855H846.812V88H845.672L845.567 86.725H845.522C845.142 87.165 844.737 87.52 844.307 87.79C843.887 88.06 843.397 88.195 842.837 88.195ZM850.269 88.195C849.999 88.195 849.764 88.1 849.564 87.91C849.374 87.71 849.279 87.46 849.279 87.16C849.279 86.84 849.374 86.585 849.564 86.395C849.764 86.205 849.999 86.11 850.269 86.11C850.539 86.11 850.769 86.205 850.959 86.395C851.159 86.585 851.259 86.84 851.259 87.16C851.259 87.46 851.159 87.71 850.959 87.91C850.769 88.1 850.539 88.195 850.269 88.195ZM855.613 88.195C855.163 88.195 854.758 88.105 854.398 87.925C854.038 87.745 853.753 87.485 853.543 87.145C853.343 86.795 853.243 86.375 853.243 85.885C853.243 84.995 853.638 84.315 854.428 83.845C855.228 83.365 856.498 83.03 858.238 82.84C858.238 82.49 858.188 82.16 858.088 81.85C857.998 81.53 857.833 81.275 857.593 81.085C857.353 80.885 857.008 80.785 856.558 80.785C856.088 80.785 855.643 80.88 855.223 81.07C854.813 81.25 854.443 81.445 854.113 81.655L853.588 80.71C853.838 80.55 854.128 80.39 854.458 80.23C854.788 80.06 855.148 79.92 855.538 79.81C855.928 79.7 856.343 79.645 856.783 79.645C857.443 79.645 857.978 79.785 858.388 80.065C858.808 80.345 859.113 80.735 859.303 81.235C859.503 81.725 859.603 82.31 859.603 82.99V88H858.478L858.358 87.025H858.313C857.933 87.345 857.513 87.62 857.053 87.85C856.603 88.08 856.123 88.195 855.613 88.195ZM856.003 87.085C856.393 87.085 856.763 86.995 857.113 86.815C857.473 86.635 857.848 86.37 858.238 86.02V83.755C857.328 83.855 856.603 84 856.063 84.19C855.523 84.37 855.138 84.595 854.908 84.865C854.678 85.125 854.563 85.435 854.563 85.795C854.563 86.265 854.703 86.6 854.983 86.8C855.263 86.99 855.603 87.085 856.003 87.085ZM865.401 88.195C864.681 88.195 864.031 88.03 863.451 87.7C862.881 87.36 862.426 86.875 862.086 86.245C861.756 85.605 861.591 84.835 861.591 83.935C861.591 83.025 861.771 82.255 862.131 81.625C862.491 80.985 862.971 80.495 863.571 80.155C864.171 79.815 864.816 79.645 865.506 79.645C866.036 79.645 866.491 79.74 866.871 79.93C867.261 80.12 867.596 80.345 867.876 80.605L867.186 81.505C866.956 81.295 866.706 81.125 866.436 80.995C866.176 80.865 865.886 80.8 865.566 80.8C865.076 80.8 864.636 80.93 864.246 81.19C863.856 81.45 863.551 81.815 863.331 82.285C863.111 82.755 863.001 83.305 863.001 83.935C863.001 84.555 863.106 85.1 863.316 85.57C863.536 86.04 863.831 86.405 864.201 86.665C864.581 86.925 865.021 87.055 865.521 87.055C865.901 87.055 866.251 86.98 866.571 86.83C866.891 86.67 867.181 86.475 867.441 86.245L868.041 87.175C867.671 87.495 867.261 87.745 866.811 87.925C866.361 88.105 865.891 88.195 865.401 88.195ZM870.542 88.195C870.272 88.195 870.037 88.1 869.837 87.91C869.647 87.71 869.552 87.46 869.552 87.16C869.552 86.84 869.647 86.585 869.837 86.395C870.037 86.205 870.272 86.11 870.542 86.11C870.812 86.11 871.042 86.205 871.232 86.395C871.432 86.585 871.532 86.84 871.532 87.16C871.532 87.46 871.432 87.71 871.232 87.91C871.042 88.1 870.812 88.195 870.542 88.195ZM874.012 88V76.06H875.362V84.145H875.422L878.872 79.855H880.402L877.687 83.14L880.762 88H879.277L876.892 84.07L875.362 85.855V88H874.012ZM882.288 88V79.855H883.413L883.548 81.34H883.578C883.858 80.82 884.198 80.41 884.598 80.11C885.008 79.8 885.438 79.645 885.888 79.645C886.078 79.645 886.238 79.66 886.368 79.69C886.508 79.71 886.638 79.755 886.758 79.825L886.503 81.01C886.363 80.97 886.238 80.94 886.128 80.92C886.018 80.89 885.878 80.875 885.708 80.875C885.378 80.875 885.023 81.02 884.643 81.31C884.263 81.59 883.938 82.075 883.668 82.765V88H882.288Z" fill="#9E352F"/>
</g>
<g filter="url(#filter3_d_32_6)">
<path d="M6.71023 63.9901V61.4545H18.6562V63.9901H14.2031V76H11.1634V63.9901H6.71023ZM20.6236 76V61.4545H23.6989V67.456H29.9418V61.4545H33.0099V76H29.9418V69.9915H23.6989V76H20.6236ZM35.5455 76V61.4545H45.3466V63.9901H38.6207V67.456H44.8423V69.9915H38.6207V73.4645H45.375V76H35.5455ZM52.4205 76V61.4545H55.4957V73.4645H61.7315V76H52.4205ZM66.8434 61.4545V76H63.7681V61.4545H66.8434ZM69.3736 76V61.4545H75.1974C76.2675 61.4545 77.16 61.6132 77.875 61.9304C78.59 62.2476 79.1274 62.688 79.4872 63.2514C79.8471 63.8101 80.027 64.4541 80.027 65.1832C80.027 65.7514 79.9134 66.2509 79.6861 66.6818C79.4588 67.108 79.1463 67.4583 78.7486 67.733C78.3556 68.0028 77.9058 68.1946 77.3991 68.3082V68.4503C77.9531 68.474 78.4716 68.6302 78.9545 68.919C79.4422 69.2079 79.8376 69.6127 80.1406 70.1335C80.4437 70.6496 80.5952 71.2652 80.5952 71.9801C80.5952 72.7519 80.4034 73.4408 80.0199 74.0469C79.6411 74.6482 79.08 75.1241 78.3366 75.4744C77.5933 75.8248 76.6771 76 75.5881 76H69.3736ZM72.4489 73.4858H74.956C75.813 73.4858 76.438 73.3224 76.831 72.9957C77.224 72.6643 77.4205 72.224 77.4205 71.6747C77.4205 71.2723 77.3234 70.9171 77.1293 70.6094C76.9351 70.3016 76.6581 70.0601 76.2983 69.8849C75.9432 69.7098 75.5194 69.6222 75.027 69.6222H72.4489V73.4858ZM72.4489 67.5412H74.7287C75.1501 67.5412 75.5241 67.4678 75.8509 67.321C76.1823 67.1695 76.4427 66.9564 76.6321 66.6818C76.8262 66.4072 76.9233 66.0781 76.9233 65.6946C76.9233 65.169 76.7363 64.7453 76.3622 64.4233C75.9929 64.1013 75.4673 63.9403 74.7855 63.9403H72.4489V67.5412ZM82.5962 76V61.4545H88.3349C89.4334 61.4545 90.3709 61.651 91.1474 62.044C91.9286 62.4323 92.5228 62.9839 92.93 63.6989C93.342 64.4091 93.5479 65.2448 93.5479 66.206C93.5479 67.1719 93.3396 68.0028 92.9229 68.6989C92.5063 69.3902 91.9026 69.9205 91.1119 70.2898C90.3259 70.6591 89.3742 70.8438 88.2567 70.8438H84.4144V68.3722H87.7596C88.3467 68.3722 88.8344 68.2917 89.2227 68.1307C89.6109 67.9697 89.8997 67.7282 90.0891 67.4062C90.2833 67.0843 90.3803 66.6842 90.3803 66.206C90.3803 65.723 90.2833 65.3158 90.0891 64.9844C89.8997 64.6529 89.6085 64.402 89.2156 64.2315C88.8273 64.0563 88.3372 63.9688 87.7454 63.9688H85.6715V76H82.5962ZM90.4513 69.3807L94.0664 76H90.6715L87.1346 69.3807H90.4513ZM98.2283 76H94.9329L99.9542 61.4545H103.917L108.931 76H105.636L101.993 64.7784H101.879L98.2283 76ZM98.0224 70.2827H105.806V72.6832H98.0224V70.2827ZM110.682 76V61.4545H116.421C117.519 61.4545 118.457 61.651 119.233 62.044C120.015 62.4323 120.609 62.9839 121.016 63.6989C121.428 64.4091 121.634 65.2448 121.634 66.206C121.634 67.1719 121.426 68.0028 121.009 68.6989C120.592 69.3902 119.989 69.9205 119.198 70.2898C118.412 70.6591 117.46 70.8438 116.343 70.8438H112.5V68.3722H115.846C116.433 68.3722 116.92 68.2917 117.309 68.1307C117.697 67.9697 117.986 67.7282 118.175 67.4062C118.369 67.0843 118.466 66.6842 118.466 66.206C118.466 65.723 118.369 65.3158 118.175 64.9844C117.986 64.6529 117.694 64.402 117.301 64.2315C116.913 64.0563 116.423 63.9688 115.831 63.9688H113.757V76H110.682ZM118.537 69.3807L122.152 76H118.757L115.221 69.3807H118.537ZM122.349 61.4545H125.794L129.111 67.7188H129.253L132.57 61.4545H136.014L130.709 70.858V76H127.655V70.858L122.349 61.4545ZM155.689 68.7273C155.689 70.3134 155.389 71.6629 154.787 72.7756C154.191 73.8883 153.376 74.7382 152.344 75.3253C151.317 75.9077 150.161 76.1989 148.878 76.1989C147.586 76.1989 146.426 75.9053 145.398 75.3182C144.371 74.7311 143.559 73.8812 142.962 72.7685C142.365 71.6558 142.067 70.3087 142.067 68.7273C142.067 67.1411 142.365 65.7917 142.962 64.679C143.559 63.5663 144.371 62.7187 145.398 62.1364C146.426 61.5492 147.586 61.2557 148.878 61.2557C150.161 61.2557 151.317 61.5492 152.344 62.1364C153.376 62.7187 154.191 63.5663 154.787 64.679C155.389 65.7917 155.689 67.1411 155.689 68.7273ZM152.571 68.7273C152.571 67.6998 152.417 66.8333 152.11 66.1278C151.807 65.4223 151.378 64.8873 150.824 64.5227C150.27 64.1581 149.622 63.9759 148.878 63.9759C148.135 63.9759 147.486 64.1581 146.932 64.5227C146.378 64.8873 145.947 65.4223 145.64 66.1278C145.337 66.8333 145.185 67.6998 145.185 68.7273C145.185 69.7547 145.337 70.6212 145.64 71.3267C145.947 72.0322 146.378 72.5672 146.932 72.9318C147.486 73.2964 148.135 73.4787 148.878 73.4787C149.622 73.4787 150.27 73.2964 150.824 72.9318C151.378 72.5672 151.807 72.0322 152.11 71.3267C152.417 70.6212 152.571 69.7547 152.571 68.7273ZM157.967 76V61.4545H167.598V63.9901H161.043V67.456H166.959V69.9915H161.043V76H157.967ZM179.452 76H174.295V61.4545H179.494C180.957 61.4545 182.217 61.7457 183.273 62.3281C184.329 62.9058 185.141 63.7367 185.709 64.821C186.282 65.9053 186.568 67.2027 186.568 68.7131C186.568 70.2282 186.282 71.5303 185.709 72.6193C185.141 73.7083 184.324 74.544 183.259 75.1264C182.198 75.7088 180.929 76 179.452 76ZM177.371 73.3651H179.324C180.233 73.3651 180.998 73.2041 181.618 72.8821C182.243 72.5554 182.712 72.0511 183.024 71.3693C183.341 70.6828 183.5 69.7973 183.5 68.7131C183.5 67.6383 183.341 66.7599 183.024 66.0781C182.712 65.3963 182.245 64.8944 181.625 64.5724C181.005 64.2505 180.24 64.0895 179.331 64.0895H177.371V73.3651ZM190.533 76H187.238L192.259 61.4545H196.222L201.236 76H197.941L194.297 64.7784H194.184L190.533 76ZM190.327 70.2827H198.111V72.6832H190.327V70.2827ZM200.656 63.9901V61.4545H212.602V63.9901H208.148V76H205.109V63.9901H200.656ZM215.299 76H212.003L217.025 61.4545H220.988L226.002 76H222.706L219.063 64.7784H218.949L215.299 76ZM215.093 70.2827H222.877V72.6832H215.093V70.2827ZM230.984 74.0114L230.906 74.7926C230.844 75.4176 230.726 76.0402 230.551 76.6605C230.38 77.2855 230.2 77.8513 230.011 78.358C229.826 78.8646 229.677 79.2623 229.564 79.5511H227.603C227.674 79.2718 227.771 78.8812 227.895 78.3793C228.018 77.8821 228.134 77.3234 228.243 76.7031C228.351 76.0829 228.42 75.4508 228.449 74.8068L228.484 74.0114H230.984ZM229.72 68.5426C229.251 68.5426 228.849 68.3769 228.512 68.0455C228.181 67.714 228.015 67.3116 228.015 66.8381C228.015 66.3741 228.181 65.9787 228.512 65.652C228.849 65.3205 229.251 65.1548 229.72 65.1548C230.174 65.1548 230.572 65.3205 230.913 65.652C231.254 65.9787 231.424 66.3741 231.424 66.8381C231.424 67.1553 231.344 67.4441 231.183 67.7045C231.027 67.9602 230.821 68.1638 230.565 68.3153C230.309 68.4669 230.028 68.5426 229.72 68.5426ZM238.712 61.68H253.972V63.8H238.712V61.68ZM237.992 73.7H254.772V75.84H237.992V73.7ZM246.312 64.58C247.592 64.58 248.705 64.7333 249.652 65.04C250.599 65.3467 251.325 65.78 251.832 66.34C252.339 66.9 252.592 67.5733 252.592 68.36C252.592 69.1333 252.339 69.8067 251.832 70.38C251.325 70.94 250.599 71.3733 249.652 71.68C248.705 71.9733 247.592 72.12 246.312 72.12C245.032 72.12 243.925 71.9733 242.992 71.68C242.059 71.3733 241.332 70.94 240.812 70.38C240.305 69.8067 240.052 69.1267 240.052 68.34C240.052 67.5667 240.305 66.9 240.812 66.34C241.332 65.78 242.059 65.3467 242.992 65.04C243.925 64.7333 245.032 64.58 246.312 64.58ZM246.312 66.72C245.552 66.72 244.905 66.78 244.372 66.9C243.839 67.0067 243.432 67.1867 243.152 67.44C242.872 67.68 242.732 67.98 242.732 68.34C242.732 68.7133 242.872 69.0267 243.152 69.28C243.432 69.52 243.839 69.7 244.372 69.82C244.905 69.94 245.552 70 246.312 70C247.085 70 247.732 69.94 248.252 69.82C248.785 69.7 249.192 69.52 249.472 69.28C249.752 69.0267 249.892 68.7133 249.892 68.34C249.892 67.98 249.752 67.68 249.472 67.44C249.192 67.1867 248.785 67.0067 248.252 66.9C247.732 66.78 247.085 66.72 246.312 66.72ZM245.012 59.5H247.672V62.96H245.012V59.5ZM256.39 73.52H273.17V75.7H256.39V73.52ZM258.29 60.48H271.27V66.68H260.95V69.78H258.31V64.6H268.63V62.62H258.29V60.48ZM258.31 68.74H271.69V70.86H258.31V68.74ZM276.849 64.24H289.689V66.36H276.849V64.24ZM274.789 68.28H291.549V70.4H274.789V68.28ZM276.849 59.9H279.509V65.3H276.849V59.9ZM276.689 75.24H289.789V77.38H276.689V75.24ZM276.689 71.86H279.349V75.82H276.689V71.86ZM307.856 63.72H311.376V65.88H307.856V63.72ZM310.636 59.26H313.316V70.26H310.636V59.26ZM307.036 70.66C308.343 70.66 309.469 70.8 310.416 71.08C311.363 71.36 312.089 71.7667 312.596 72.3C313.116 72.8333 313.376 73.4733 313.376 74.22C313.376 75.3667 312.809 76.2467 311.676 76.86C310.543 77.4867 308.996 77.8 307.036 77.8C305.076 77.8 303.529 77.4867 302.396 76.86C301.263 76.2467 300.696 75.3667 300.696 74.22C300.696 73.4733 300.949 72.8333 301.456 72.3C301.976 71.7667 302.709 71.36 303.656 71.08C304.603 70.8 305.729 70.66 307.036 70.66ZM307.036 72.68C306.236 72.68 305.563 72.74 305.016 72.86C304.469 72.9667 304.049 73.1333 303.756 73.36C303.476 73.5867 303.336 73.8733 303.336 74.22C303.336 74.5667 303.476 74.86 303.756 75.1C304.049 75.3267 304.469 75.5 305.016 75.62C305.563 75.7267 306.236 75.78 307.036 75.78C307.836 75.78 308.509 75.7267 309.056 75.62C309.603 75.5 310.016 75.3267 310.296 75.1C310.576 74.86 310.716 74.5667 310.716 74.22C310.716 73.8733 310.576 73.5867 310.296 73.36C310.016 73.1333 309.603 72.9667 309.056 72.86C308.509 72.74 307.836 72.68 307.036 72.68ZM302.096 61.1H304.256V62.28C304.256 63.4533 304.069 64.5733 303.696 65.64C303.323 66.7067 302.749 67.6467 301.976 68.46C301.216 69.26 300.243 69.86 299.056 70.26L297.716 68.16C298.476 67.9067 299.129 67.5667 299.676 67.14C300.236 66.7133 300.689 66.24 301.036 65.72C301.396 65.1867 301.663 64.6267 301.836 64.04C302.009 63.4533 302.096 62.8667 302.096 62.28V61.1ZM302.656 61.1H304.776V62.26C304.776 62.9933 304.923 63.7133 305.216 64.42C305.509 65.1267 305.963 65.7667 306.576 66.34C307.203 66.9133 308.003 67.3667 308.976 67.7L307.676 69.78C306.529 69.3933 305.583 68.8267 304.836 68.08C304.103 67.32 303.556 66.44 303.196 65.44C302.836 64.4267 302.656 63.3667 302.656 62.26V61.1ZM298.436 60.38H308.396V62.48H298.436V60.38ZM316.215 73.46H332.995V75.62H316.215V73.46ZM323.255 69.5H325.895V73.98H323.255V69.5ZM317.975 60.42H320.635V63.28H328.515V60.42H331.155V70.06H317.975V60.42ZM320.635 65.36V67.94H328.515V65.36H320.635ZM338.289 74.0114L338.211 74.7926C338.149 75.4176 338.031 76.0402 337.855 76.6605C337.685 77.2855 337.505 77.8513 337.316 78.358C337.131 78.8646 336.982 79.2623 336.868 79.5511H334.908C334.979 79.2718 335.076 78.8812 335.199 78.3793C335.322 77.8821 335.438 77.3234 335.547 76.7031C335.656 76.0829 335.725 75.4508 335.753 74.8068L335.789 74.0114H338.289ZM345.293 60.86H354.113V73.26H345.293V60.86ZM351.493 62.96H347.913V71.18H351.493V62.96ZM357.493 59.22H360.153V77.8H357.493V59.22ZM353.633 65.62H358.573V67.76H353.633V65.62ZM363.011 69.6H379.771V71.74H363.011V69.6ZM369.991 70.96H372.651V77.78H369.991V70.96ZM364.931 60.16H377.771V67.62H364.931V60.16ZM375.171 62.24H367.551V65.54H375.171V62.24ZM383.47 64.24H396.31V66.36H383.47V64.24ZM381.41 68.28H398.17V70.4H381.41V68.28ZM383.47 59.9H386.13V65.3H383.47V59.9ZM383.31 75.24H396.41V77.38H383.31V75.24ZM383.31 71.86H385.97V75.82H383.31V71.86ZM417.197 59.24H419.857V77.76H417.197V59.24ZM411.737 61.16H414.357C414.357 62.5733 414.217 63.9267 413.937 65.22C413.671 66.5 413.217 67.7067 412.577 68.84C411.951 69.9733 411.084 71.0267 409.977 72C408.884 72.96 407.517 73.84 405.877 74.64L404.477 72.54C406.264 71.6733 407.684 70.72 408.737 69.68C409.804 68.6267 410.571 67.44 411.037 66.12C411.504 64.7867 411.737 63.2933 411.737 61.64V61.16ZM405.477 61.16H412.977V63.28H405.477V61.16ZM431.916 63.72H436.356V65.86H431.916V63.72ZM425.696 71.06H438.336V77.78H435.656V73.16H425.696V71.06ZM435.656 59.26H438.336V70.22H435.656V59.26ZM427.956 60.2C428.876 60.2 429.702 60.4 430.436 60.8C431.169 61.1867 431.749 61.7267 432.176 62.42C432.616 63.1133 432.836 63.9067 432.836 64.8C432.836 65.68 432.616 66.4733 432.176 67.18C431.749 67.8733 431.169 68.42 430.436 68.82C429.702 69.2067 428.876 69.4 427.956 69.4C427.036 69.4 426.202 69.2067 425.456 68.82C424.722 68.42 424.136 67.8733 423.696 67.18C423.269 66.4733 423.056 65.68 423.056 64.8C423.056 63.9067 423.269 63.1133 423.696 62.42C424.136 61.7267 424.722 61.1867 425.456 60.8C426.202 60.4 427.036 60.2 427.956 60.2ZM427.936 62.48C427.496 62.48 427.096 62.5733 426.736 62.76C426.389 62.9333 426.109 63.1933 425.896 63.54C425.696 63.8867 425.596 64.3067 425.596 64.8C425.596 65.28 425.696 65.7 425.896 66.06C426.109 66.4067 426.389 66.6733 426.736 66.86C427.096 67.0467 427.502 67.14 427.956 67.14C428.396 67.14 428.789 67.0467 429.136 66.86C429.482 66.6733 429.756 66.4067 429.956 66.06C430.169 65.7 430.276 65.28 430.276 64.8C430.276 64.3067 430.169 63.8867 429.956 63.54C429.756 63.1933 429.482 62.9333 429.136 62.76C428.789 62.5733 428.389 62.48 427.936 62.48Z" fill="#0F0F0F"/>
</g>
<g filter="url(#filter4_d_32_6)">
<path d="M14.145 106.79H16.785V108.41H14.145V106.79ZM16.23 103.445H18.24V111.695H16.23V103.445ZM13.53 111.995C14.51 111.995 15.355 112.1 16.065 112.31C16.775 112.52 17.32 112.825 17.7 113.225C18.09 113.625 18.285 114.105 18.285 114.665C18.285 115.525 17.86 116.185 17.01 116.645C16.16 117.115 15 117.35 13.53 117.35C12.06 117.35 10.9 117.115 10.05 116.645C9.2 116.185 8.775 115.525 8.775 114.665C8.775 114.105 8.965 113.625 9.345 113.225C9.735 112.825 10.285 112.52 10.995 112.31C11.705 112.1 12.55 111.995 13.53 111.995ZM13.53 113.51C12.93 113.51 12.425 113.555 12.015 113.645C11.605 113.725 11.29 113.85 11.07 114.02C10.86 114.19 10.755 114.405 10.755 114.665C10.755 114.925 10.86 115.145 11.07 115.325C11.29 115.495 11.605 115.625 12.015 115.715C12.425 115.795 12.93 115.835 13.53 115.835C14.13 115.835 14.635 115.795 15.045 115.715C15.455 115.625 15.765 115.495 15.975 115.325C16.185 115.145 16.29 114.925 16.29 114.665C16.29 114.405 16.185 114.19 15.975 114.02C15.765 113.85 15.455 113.725 15.045 113.645C14.635 113.555 14.13 113.51 13.53 113.51ZM9.825 104.825H11.445V105.71C11.445 106.59 11.305 107.43 11.025 108.23C10.745 109.03 10.315 109.735 9.735 110.345C9.165 110.945 8.435 111.395 7.545 111.695L6.54 110.12C7.11 109.93 7.6 109.675 8.01 109.355C8.43 109.035 8.77 108.68 9.03 108.29C9.3 107.89 9.5 107.47 9.63 107.03C9.76 106.59 9.825 106.15 9.825 105.71V104.825ZM10.245 104.825H11.835V105.695C11.835 106.245 11.945 106.785 12.165 107.315C12.385 107.845 12.725 108.325 13.185 108.755C13.655 109.185 14.255 109.525 14.985 109.775L14.01 111.335C13.15 111.045 12.44 110.62 11.88 110.06C11.33 109.49 10.92 108.83 10.65 108.08C10.38 107.32 10.245 106.525 10.245 105.695V104.825ZM7.08 104.285H14.55V105.86H7.08V104.285ZM20.4138 114.095H32.9988V115.715H20.4138V114.095ZM25.6938 111.125H27.6738V114.485H25.6938V111.125ZM21.7338 104.315H23.7288V106.46H29.6388V104.315H31.6188V111.545H21.7338V104.315ZM23.7288 108.02V109.955H29.6388V108.02H23.7288ZM35.7577 107.18H45.3877V108.77H35.7577V107.18ZM34.2127 110.21H46.7827V111.8H34.2127V110.21ZM35.7577 103.925H37.7527V107.975H35.7577V103.925ZM35.6377 115.43H45.4627V117.035H35.6377V115.43ZM35.6377 112.895H37.6327V115.865H35.6377V112.895ZM60.4082 103.445H62.4032V113.48H60.4082V103.445ZM61.8482 107.225H64.2482V108.86H61.8482V107.225ZM51.9932 109.61H53.1482C54.1582 109.61 55.0182 109.6 55.7282 109.58C56.4482 109.55 57.0882 109.505 57.6482 109.445C58.2182 109.385 58.7782 109.295 59.3282 109.175L59.5232 110.75C58.9632 110.88 58.3882 110.98 57.7982 111.05C57.2182 111.11 56.5582 111.155 55.8182 111.185C55.0782 111.205 54.1882 111.215 53.1482 111.215H51.9932V109.61ZM51.9932 104.54H58.2182V106.13H53.9882V110.45H51.9932V104.54ZM53.4482 115.49H62.8982V117.095H53.4482V115.49ZM53.4482 112.415H55.4582V116.3H53.4482V112.415ZM70.532 103.79H72.242V104.24C72.242 104.75 72.162 105.245 72.002 105.725C71.842 106.195 71.607 106.64 71.297 107.06C70.987 107.47 70.602 107.84 70.142 108.17C69.692 108.5 69.172 108.78 68.582 109.01C68.002 109.24 67.357 109.405 66.647 109.505L65.897 107.945C66.517 107.865 67.072 107.735 67.562 107.555C68.062 107.365 68.497 107.15 68.867 106.91C69.237 106.66 69.542 106.39 69.782 106.1C70.032 105.8 70.217 105.495 70.337 105.185C70.467 104.865 70.532 104.55 70.532 104.24V103.79ZM70.862 103.79H72.572V104.24C72.572 104.54 72.632 104.85 72.752 105.17C72.882 105.48 73.072 105.78 73.322 106.07C73.572 106.36 73.882 106.63 74.252 106.88C74.622 107.12 75.052 107.33 75.542 107.51C76.042 107.69 76.597 107.825 77.207 107.915L76.457 109.46C75.747 109.36 75.097 109.195 74.507 108.965C73.927 108.735 73.407 108.46 72.947 108.14C72.497 107.81 72.117 107.44 71.807 107.03C71.497 106.61 71.262 106.17 71.102 105.71C70.942 105.24 70.862 104.75 70.862 104.24V103.79ZM65.267 110.27H77.852V111.845H65.267V110.27ZM70.727 111.26H72.722V114.185H70.727V111.26ZM66.722 115.49H76.457V117.095H66.722V115.49ZM66.722 113.015H68.717V116H66.722V113.015ZM88.6058 103.43H90.6008V117.32H88.6058V103.43ZM79.3658 105.515H87.6008V107.105H79.3658V105.515ZM83.5058 107.87C84.1858 107.87 84.7908 108.01 85.3208 108.29C85.8608 108.57 86.2858 108.96 86.5958 109.46C86.9058 109.95 87.0608 110.52 87.0608 111.17C87.0608 111.82 86.9058 112.395 86.5958 112.895C86.2858 113.385 85.8608 113.775 85.3208 114.065C84.7908 114.345 84.1858 114.485 83.5058 114.485C82.8258 114.485 82.2158 114.345 81.6758 114.065C81.1358 113.775 80.7108 113.385 80.4008 112.895C80.1008 112.395 79.9508 111.82 79.9508 111.17C79.9508 110.52 80.1008 109.95 80.4008 109.46C80.7108 108.97 81.1358 108.585 81.6758 108.305C82.2158 108.015 82.8258 107.87 83.5058 107.87ZM83.5058 109.49C83.1858 109.49 82.9008 109.555 82.6508 109.685C82.4008 109.815 82.2058 110.005 82.0658 110.255C81.9258 110.505 81.8558 110.81 81.8558 111.17C81.8558 111.52 81.9258 111.825 82.0658 112.085C82.2058 112.335 82.4008 112.53 82.6508 112.67C82.9008 112.8 83.1858 112.865 83.5058 112.865C83.8258 112.865 84.1058 112.8 84.3458 112.67C84.5958 112.53 84.7908 112.335 84.9308 112.085C85.0708 111.825 85.1408 111.52 85.1408 111.17C85.1408 110.81 85.0708 110.505 84.9308 110.255C84.7908 110.005 84.5958 109.815 84.3458 109.685C84.1058 109.555 83.8258 109.49 83.5058 109.49ZM82.4858 103.64H84.4808V106.505H82.4858V103.64ZM106.011 103.415H108.006V117.35H106.011V103.415ZM103.581 108.275H106.476V109.88H103.581V108.275ZM99.5463 105.62H101.136V106.865C101.136 107.705 101.056 108.53 100.896 109.34C100.736 110.15 100.496 110.905 100.176 111.605C99.8663 112.305 99.4713 112.925 98.9913 113.465C98.5113 114.005 97.9513 114.44 97.3113 114.77L96.1413 113.195C96.7213 112.925 97.2263 112.565 97.6563 112.115C98.0863 111.655 98.4413 111.145 98.7213 110.585C99.0013 110.015 99.2063 109.415 99.3363 108.785C99.4763 108.145 99.5463 107.505 99.5463 106.865V105.62ZM100.011 105.62H101.571V106.865C101.571 107.475 101.636 108.085 101.766 108.695C101.906 109.295 102.116 109.87 102.396 110.42C102.686 110.96 103.046 111.445 103.476 111.875C103.906 112.305 104.411 112.655 104.991 112.925L103.836 114.485C103.176 114.175 102.606 113.76 102.126 113.24C101.646 112.72 101.251 112.125 100.941 111.455C100.631 110.775 100.396 110.045 100.236 109.265C100.086 108.485 100.011 107.685 100.011 106.865V105.62ZM96.6963 104.765H104.421V106.37H96.6963V104.765ZM113.24 104.99H114.875V105.86C114.875 106.74 114.73 107.575 114.44 108.365C114.16 109.155 113.73 109.85 113.15 110.45C112.57 111.04 111.835 111.48 110.945 111.77L109.955 110.195C110.715 109.945 111.335 109.595 111.815 109.145C112.305 108.685 112.665 108.17 112.895 107.6C113.125 107.02 113.24 106.44 113.24 105.86V104.99ZM113.645 104.99H115.25V105.86C115.25 106.4 115.36 106.925 115.58 107.435C115.8 107.935 116.14 108.385 116.6 108.785C117.07 109.185 117.68 109.5 118.43 109.73L117.47 111.29C116.59 111.03 115.865 110.63 115.295 110.09C114.735 109.54 114.32 108.905 114.05 108.185C113.78 107.455 113.645 106.68 113.645 105.86V104.99ZM110.465 104.36H117.98V105.95H110.465V104.36ZM119.075 103.445H121.07V111.68H119.075V103.445ZM120.53 106.625H122.915V108.26H120.53V106.625ZM116.54 111.92C117.51 111.92 118.345 112.03 119.045 112.25C119.745 112.46 120.285 112.765 120.665 113.165C121.045 113.565 121.235 114.05 121.235 114.62C121.235 115.19 121.045 115.675 120.665 116.075C120.285 116.485 119.745 116.795 119.045 117.005C118.345 117.225 117.51 117.335 116.54 117.335C115.58 117.335 114.745 117.225 114.035 117.005C113.335 116.795 112.79 116.485 112.4 116.075C112.02 115.675 111.83 115.19 111.83 114.62C111.83 114.05 112.02 113.565 112.4 113.165C112.79 112.765 113.335 112.46 114.035 112.25C114.745 112.03 115.58 111.92 116.54 111.92ZM116.54 113.48C115.95 113.48 115.455 113.52 115.055 113.6C114.655 113.68 114.35 113.805 114.14 113.975C113.93 114.145 113.825 114.36 113.825 114.62C113.825 114.89 113.93 115.11 114.14 115.28C114.35 115.45 114.655 115.58 115.055 115.67C115.455 115.75 115.95 115.79 116.54 115.79C117.13 115.79 117.625 115.75 118.025 115.67C118.435 115.58 118.74 115.45 118.94 115.28C119.15 115.11 119.255 114.89 119.255 114.62C119.255 114.36 119.15 114.145 118.94 113.975C118.74 113.805 118.435 113.68 118.025 113.6C117.625 113.52 117.13 113.48 116.54 113.48ZM124.879 109.055H132.139V110.66H124.879V109.055ZM127.489 110.345H129.499V113.285H127.489V110.345ZM124.879 104.66H132.064V106.25H126.889V109.55H124.879V104.66ZM133.534 103.415H135.529V117.35H133.534V103.415ZM124.234 114.62L124.009 113C124.899 113 125.839 112.995 126.829 112.985C127.819 112.975 128.819 112.95 129.829 112.91C130.849 112.86 131.834 112.78 132.784 112.67L132.919 114.125C131.919 114.285 130.914 114.4 129.904 114.47C128.904 114.54 127.924 114.585 126.964 114.605C126.014 114.615 125.104 114.62 124.234 114.62ZM141.093 105.635H142.683V107.195C142.683 107.995 142.598 108.78 142.428 109.55C142.268 110.32 142.023 111.045 141.693 111.725C141.373 112.395 140.968 112.99 140.478 113.51C139.988 114.02 139.418 114.425 138.768 114.725L137.628 113.15C138.208 112.88 138.713 112.53 139.143 112.1C139.583 111.67 139.943 111.19 140.223 110.66C140.513 110.12 140.728 109.555 140.868 108.965C141.018 108.365 141.093 107.775 141.093 107.195V105.635ZM141.528 105.635H143.103V107.195C143.103 107.745 143.173 108.305 143.313 108.875C143.463 109.435 143.678 109.97 143.958 110.48C144.238 110.98 144.593 111.43 145.023 111.83C145.453 112.23 145.963 112.55 146.553 112.79L145.458 114.38C144.798 114.09 144.223 113.7 143.733 113.21C143.243 112.72 142.833 112.155 142.503 111.515C142.173 110.875 141.928 110.19 141.768 109.46C141.608 108.72 141.528 107.965 141.528 107.195V105.635ZM138.183 104.765H145.983V106.415H138.183V104.765ZM147.273 103.445H149.268V117.335H147.273V103.445ZM158.798 104.105C159.518 104.105 160.153 104.245 160.703 104.525C161.263 104.805 161.703 105.19 162.023 105.68C162.353 106.16 162.518 106.715 162.518 107.345C162.518 107.975 162.353 108.535 162.023 109.025C161.703 109.515 161.263 109.9 160.703 110.18C160.153 110.46 159.518 110.6 158.798 110.6C158.098 110.6 157.468 110.46 156.908 110.18C156.358 109.9 155.918 109.515 155.588 109.025C155.268 108.535 155.108 107.975 155.108 107.345C155.108 106.715 155.268 106.16 155.588 105.68C155.918 105.19 156.358 104.805 156.908 104.525C157.468 104.245 158.098 104.105 158.798 104.105ZM158.813 105.725C158.473 105.725 158.168 105.79 157.898 105.92C157.628 106.04 157.413 106.225 157.253 106.475C157.103 106.715 157.028 107.005 157.028 107.345C157.028 107.685 157.103 107.975 157.253 108.215C157.413 108.455 157.628 108.64 157.898 108.77C158.168 108.9 158.473 108.965 158.813 108.965C159.153 108.965 159.453 108.9 159.713 108.77C159.983 108.64 160.193 108.455 160.343 108.215C160.503 107.975 160.583 107.685 160.583 107.345C160.583 107.005 160.503 106.715 160.343 106.475C160.193 106.225 159.983 106.04 159.713 105.92C159.453 105.79 159.153 105.725 158.813 105.725ZM163.943 103.445H165.938V110.27H163.943V103.445ZM165.158 106.31H167.783V107.945H165.158V106.31ZM156.233 115.37H157.013C157.413 115.37 157.798 115.36 158.168 115.34C158.548 115.32 158.913 115.28 159.263 115.22C159.623 115.15 159.973 115.055 160.313 114.935L160.598 116.51C160.218 116.64 159.838 116.735 159.458 116.795C159.078 116.865 158.688 116.91 158.288 116.93C157.898 116.96 157.473 116.975 157.013 116.975H156.233V115.37ZM156.233 111.605H158.168V115.865H156.233V111.605ZM160.118 111.65H167.048V113.075H160.118V111.65ZM163.583 113.435C164.373 113.435 165.018 113.615 165.518 113.975C166.018 114.325 166.268 114.795 166.268 115.385C166.268 115.995 166.018 116.475 165.518 116.825C165.018 117.175 164.373 117.35 163.583 117.35C162.793 117.35 162.148 117.175 161.648 116.825C161.148 116.475 160.898 115.995 160.898 115.385C160.898 114.795 161.148 114.325 161.648 113.975C162.148 113.615 162.793 113.435 163.583 113.435ZM163.583 114.785C163.323 114.785 163.103 114.835 162.923 114.935C162.753 115.035 162.668 115.185 162.668 115.385C162.668 115.595 162.753 115.75 162.923 115.85C163.103 115.95 163.323 116 163.583 116C163.843 116 164.058 115.95 164.228 115.85C164.408 115.75 164.498 115.595 164.498 115.385C164.498 115.185 164.408 115.035 164.228 114.935C164.058 114.835 163.843 114.785 163.583 114.785ZM162.623 110.66H164.558V112.73H162.623V110.66ZM170.362 107.18H179.992V108.77H170.362V107.18ZM168.817 110.21H181.387V111.8H168.817V110.21ZM170.362 103.925H172.357V107.975H170.362V103.925ZM170.242 115.43H180.067V117.035H170.242V115.43ZM170.242 112.895H172.237V115.865H170.242V112.895ZM191.481 103.415H193.491V117.35H191.481V103.415ZM193.056 108.56H195.501V110.21H193.056V108.56ZM183.141 112.37H184.311C185.101 112.37 185.841 112.36 186.531 112.34C187.221 112.31 187.891 112.265 188.541 112.205C189.191 112.135 189.856 112.04 190.536 111.92L190.731 113.57C190.031 113.69 189.341 113.785 188.661 113.855C187.991 113.925 187.301 113.97 186.591 113.99C185.881 114.01 185.121 114.02 184.311 114.02H183.141V112.37ZM183.141 104.705H189.621V106.31H185.136V113.15H183.141V104.705ZM198.032 116.138C197.68 116.138 197.378 116.014 197.126 115.766C196.878 115.513 196.753 115.212 196.753 114.86C196.753 114.512 196.878 114.214 197.126 113.965C197.378 113.717 197.68 113.592 198.032 113.592C198.373 113.592 198.671 113.717 198.927 113.965C199.182 114.214 199.31 114.512 199.31 114.86C199.31 115.094 199.25 115.309 199.129 115.505C199.012 115.696 198.857 115.851 198.666 115.968C198.474 116.082 198.263 116.138 198.032 116.138ZM204.382 105.26H215.827V106.85H204.382V105.26ZM203.842 114.275H216.427V115.88H203.842V114.275ZM210.082 107.435C211.042 107.435 211.877 107.55 212.587 107.78C213.297 108.01 213.842 108.335 214.222 108.755C214.602 109.175 214.792 109.68 214.792 110.27C214.792 110.85 214.602 111.355 214.222 111.785C213.842 112.205 213.297 112.53 212.587 112.76C211.877 112.98 211.042 113.09 210.082 113.09C209.122 113.09 208.292 112.98 207.592 112.76C206.892 112.53 206.347 112.205 205.957 111.785C205.577 111.355 205.387 110.845 205.387 110.255C205.387 109.675 205.577 109.175 205.957 108.755C206.347 108.335 206.892 108.01 207.592 107.78C208.292 107.55 209.122 107.435 210.082 107.435ZM210.082 109.04C209.512 109.04 209.027 109.085 208.627 109.175C208.227 109.255 207.922 109.39 207.712 109.58C207.502 109.76 207.397 109.985 207.397 110.255C207.397 110.535 207.502 110.77 207.712 110.96C207.922 111.14 208.227 111.275 208.627 111.365C209.027 111.455 209.512 111.5 210.082 111.5C210.662 111.5 211.147 111.455 211.537 111.365C211.937 111.275 212.242 111.14 212.452 110.96C212.662 110.77 212.767 110.535 212.767 110.255C212.767 109.985 212.662 109.76 212.452 109.58C212.242 109.39 211.937 109.255 211.537 109.175C211.147 109.085 210.662 109.04 210.082 109.04ZM209.107 103.625H211.102V106.22H209.107V103.625ZM217.64 114.14H230.225V115.775H217.64V114.14ZM219.065 104.36H228.8V109.01H221.06V111.335H219.08V107.45H226.82V105.965H219.065V104.36ZM219.08 110.555H229.115V112.145H219.08V110.555ZM232.729 104.615H241.519V106.205H232.729V104.615ZM231.439 114.035H244.009V115.655H231.439V114.035ZM235.879 109.265H237.889V114.845H235.879V109.265ZM240.799 104.615H242.809V105.935C242.809 106.515 242.799 107.13 242.779 107.78C242.769 108.43 242.724 109.15 242.644 109.94C242.574 110.73 242.444 111.615 242.254 112.595L240.259 112.385C240.539 110.995 240.699 109.785 240.739 108.755C240.779 107.715 240.799 106.775 240.799 105.935V104.615ZM247.995 114.509L247.936 115.094C247.89 115.563 247.801 116.03 247.67 116.495C247.542 116.964 247.407 117.388 247.265 117.768C247.127 118.148 247.015 118.447 246.93 118.663H245.459C245.513 118.454 245.585 118.161 245.678 117.784C245.77 117.412 245.857 116.993 245.939 116.527C246.02 116.062 246.072 115.588 246.093 115.105L246.12 114.509H247.995ZM259.548 105.755H263.088V107.345H259.548V105.755ZM259.548 108.74H263.133V110.33H259.548V108.74ZM262.353 103.445H264.363V113.69H262.353V103.445ZM255.168 115.49H264.663V117.095H255.168V115.49ZM255.168 112.685H257.163V116.405H255.168V112.685ZM253.308 104.36H255.288V106.46H257.928V104.36H259.893V111.53H253.308V104.36ZM255.288 107.99V109.94H257.928V107.99H255.288ZM269.747 111.665H271.742V113.9H269.747V111.665ZM275.582 103.445H277.577V117.335H275.582V103.445ZM276.887 109.085H279.332V110.72H276.887V109.085ZM266.627 115.025L266.387 113.405C267.187 113.405 268.062 113.4 269.012 113.39C269.972 113.38 270.952 113.345 271.952 113.285C272.962 113.225 273.937 113.135 274.877 113.015L275.027 114.455C274.057 114.635 273.072 114.77 272.072 114.86C271.072 114.94 270.107 114.99 269.177 115.01C268.257 115.02 267.407 115.025 266.627 115.025ZM266.642 104.96H274.817V106.52H266.642V104.96ZM270.737 107.075C271.407 107.075 271.997 107.185 272.507 107.405C273.017 107.625 273.417 107.93 273.707 108.32C273.997 108.71 274.142 109.165 274.142 109.685C274.142 110.195 273.997 110.65 273.707 111.05C273.417 111.44 273.017 111.745 272.507 111.965C271.997 112.185 271.407 112.295 270.737 112.295C270.077 112.295 269.492 112.185 268.982 111.965C268.472 111.745 268.072 111.44 267.782 111.05C267.492 110.65 267.347 110.195 267.347 109.685C267.347 109.165 267.492 108.71 267.782 108.32C268.072 107.93 268.472 107.625 268.982 107.405C269.492 107.185 270.077 107.075 270.737 107.075ZM270.737 108.575C270.287 108.575 269.922 108.675 269.642 108.875C269.372 109.065 269.237 109.335 269.237 109.685C269.237 110.045 269.372 110.32 269.642 110.51C269.922 110.7 270.287 110.795 270.737 110.795C271.197 110.795 271.562 110.7 271.832 110.51C272.112 110.32 272.252 110.045 272.252 109.685C272.252 109.335 272.112 109.065 271.832 108.875C271.562 108.675 271.197 108.575 270.737 108.575ZM269.747 103.505H271.742V106.13H269.747V103.505ZM289.231 103.445H291.226V117.335H289.231V103.445ZM290.776 108.86H293.221V110.51H290.776V108.86ZM280.261 105.485H288.361V107.075H280.261V105.485ZM284.341 107.87C285.011 107.87 285.611 108.015 286.141 108.305C286.671 108.585 287.086 108.97 287.386 109.46C287.696 109.95 287.851 110.52 287.851 111.17C287.851 111.82 287.696 112.395 287.386 112.895C287.086 113.385 286.671 113.775 286.141 114.065C285.621 114.345 285.021 114.485 284.341 114.485C283.671 114.485 283.066 114.345 282.526 114.065C281.996 113.775 281.576 113.385 281.266 112.895C280.966 112.395 280.816 111.82 280.816 111.17C280.816 110.52 280.966 109.95 281.266 109.46C281.576 108.97 281.996 108.585 282.526 108.305C283.066 108.015 283.671 107.87 284.341 107.87ZM284.341 109.49C284.021 109.49 283.741 109.555 283.501 109.685C283.261 109.815 283.071 110.005 282.931 110.255C282.791 110.505 282.721 110.81 282.721 111.17C282.721 111.52 282.791 111.825 282.931 112.085C283.071 112.335 283.261 112.53 283.501 112.67C283.741 112.8 284.021 112.865 284.341 112.865C284.651 112.865 284.926 112.8 285.166 112.67C285.406 112.53 285.596 112.335 285.736 112.085C285.876 111.825 285.946 111.52 285.946 111.17C285.946 110.81 285.876 110.505 285.736 110.255C285.596 110.005 285.406 109.815 285.166 109.685C284.926 109.555 284.651 109.49 284.341 109.49ZM283.321 103.67H285.331V106.1H283.321V103.67ZM295.425 104.615H304.215V106.205H295.425V104.615ZM294.135 114.035H306.705V115.655H294.135V114.035ZM298.575 109.265H300.585V114.845H298.575V109.265ZM303.495 104.615H305.505V105.935C305.505 106.515 305.495 107.13 305.475 107.78C305.465 108.43 305.42 109.15 305.34 109.94C305.27 110.73 305.14 111.615 304.95 112.595L302.955 112.385C303.235 110.995 303.395 109.785 303.435 108.755C303.475 107.715 303.495 106.775 303.495 105.935V104.615ZM310.69 114.509L310.632 115.094C310.585 115.563 310.497 116.03 310.365 116.495C310.237 116.964 310.102 117.388 309.96 117.768C309.822 118.148 309.71 118.447 309.625 118.663H308.155C308.208 118.454 308.281 118.161 308.373 117.784C308.465 117.412 308.552 116.993 308.634 116.527C308.716 116.062 308.767 115.588 308.789 115.105L308.815 114.509H310.69ZM321.703 105.365H325.798V106.97H321.703V105.365ZM321.703 108.74H325.798V110.345H321.703V108.74ZM325.048 103.445H327.058V113.6H325.048V103.445ZM317.878 115.49H327.373V117.095H317.878V115.49ZM317.878 112.61H319.873V116.33H317.878V112.61ZM319.258 104.27C319.948 104.27 320.568 104.425 321.118 104.735C321.678 105.035 322.118 105.455 322.438 105.995C322.768 106.535 322.933 107.155 322.933 107.855C322.933 108.545 322.768 109.165 322.438 109.715C322.118 110.255 321.678 110.68 321.118 110.99C320.568 111.3 319.948 111.455 319.258 111.455C318.578 111.455 317.958 111.3 317.398 110.99C316.848 110.68 316.408 110.255 316.078 109.715C315.758 109.165 315.598 108.545 315.598 107.855C315.598 107.155 315.758 106.535 316.078 105.995C316.408 105.455 316.848 105.035 317.398 104.735C317.958 104.425 318.578 104.27 319.258 104.27ZM319.258 106.01C318.928 106.01 318.628 106.085 318.358 106.235C318.088 106.385 317.873 106.6 317.713 106.88C317.563 107.15 317.488 107.475 317.488 107.855C317.488 108.245 317.563 108.58 317.713 108.86C317.873 109.13 318.088 109.34 318.358 109.49C318.628 109.63 318.928 109.7 319.258 109.7C319.598 109.7 319.898 109.63 320.158 109.49C320.428 109.34 320.638 109.13 320.788 108.86C320.948 108.58 321.028 108.245 321.028 107.855C321.028 107.475 320.948 107.15 320.788 106.88C320.638 106.6 320.428 106.385 320.158 106.235C319.898 106.085 319.598 106.01 319.258 106.01ZM338.847 103.43H340.857V110.405H338.847V103.43ZM334.227 103.955H336.402C336.402 105.185 336.162 106.255 335.682 107.165C335.212 108.065 334.507 108.81 333.567 109.4C332.627 109.98 331.457 110.425 330.057 110.735L329.382 109.13C330.552 108.9 331.487 108.585 332.187 108.185C332.897 107.775 333.412 107.305 333.732 106.775C334.062 106.235 334.227 105.66 334.227 105.05V103.955ZM330.192 103.955H335.052V105.545H330.192V103.955ZM335.862 105.17H339.102V106.685H335.862V105.17ZM335.772 107.87H339.042V109.37H335.772V107.87ZM331.677 110.915H340.857V114.755H333.687V116.465H331.692V113.27H338.847V112.475H331.677V110.915ZM331.692 115.625H341.127V117.2H331.692V115.625ZM344.231 107.69H351.041V109.265H344.231V107.69ZM346.616 108.71H348.626V111.365H346.616V108.71ZM344.231 104.285H350.966V105.86H346.226V108.35H344.231V104.285ZM352.601 103.43H354.596V113.885H352.601V103.43ZM345.191 115.49H354.971V117.095H345.191V115.49ZM345.191 113.15H347.201V116.105H345.191V113.15ZM343.331 112.31L343.091 110.735C343.971 110.735 344.901 110.73 345.881 110.72C346.861 110.7 347.851 110.67 348.851 110.63C349.861 110.58 350.831 110.51 351.761 110.42L351.911 111.845C350.941 111.985 349.956 112.09 348.956 112.16C347.966 112.22 346.996 112.26 346.046 112.28C345.096 112.3 344.191 112.31 343.331 112.31ZM365.695 103.415H367.705V117.35H365.695V103.415ZM367.27 108.56H369.715V110.21H367.27V108.56ZM357.355 112.37H358.525C359.315 112.37 360.055 112.36 360.745 112.34C361.435 112.31 362.105 112.265 362.755 112.205C363.405 112.135 364.07 112.04 364.75 111.92L364.945 113.57C364.245 113.69 363.555 113.785 362.875 113.855C362.205 113.925 361.515 113.97 360.805 113.99C360.095 114.01 359.335 114.02 358.525 114.02H357.355V112.37ZM357.355 104.705H363.835V106.31H359.35V113.15H357.355V104.705ZM372.246 116.138C371.894 116.138 371.592 116.014 371.34 115.766C371.091 115.513 370.967 115.212 370.967 114.86C370.967 114.512 371.091 114.214 371.34 113.965C371.592 113.717 371.894 113.592 372.246 113.592C372.586 113.592 372.885 113.717 373.14 113.965C373.396 114.214 373.524 114.512 373.524 114.86C373.524 115.094 373.464 115.309 373.343 115.505C373.226 115.696 373.071 115.851 372.879 115.968C372.688 116.082 372.476 116.138 372.246 116.138Z" fill="#414141"/>
</g>
<g filter="url(#filter5_d_32_6)">
<path d="M34.4 5.48H39.44V42.52H34.4V5.48ZM20.32 19H28.92V23.28H20.32V19ZM26.72 6.16H31.68V40.92H26.72V6.16ZM8.68 29.96H11.28C13.0133 29.96 14.5867 29.9333 16 29.88C17.44 29.8267 18.8 29.7333 20.08 29.6C21.3867 29.4667 22.7067 29.2667 24.04 29L24.48 33.32C23.0933 33.6133 21.7333 33.8267 20.4 33.96C19.0667 34.0933 17.6533 34.1867 16.16 34.24C14.6933 34.2933 13.0667 34.32 11.28 34.32H8.68V29.96ZM8.68 9.68H22.84V13.88H13.92V31.8H8.68V9.68ZM69.8369 5.44H75.1569V42.6H69.8369V5.44ZM55.1969 8.04C57.0902 8.04 58.7702 8.58666 60.2369 9.68C61.7035 10.7467 62.8502 12.28 63.6769 14.28C64.5302 16.2533 64.9569 18.5867 64.9569 21.28C64.9569 24 64.5302 26.36 63.6769 28.36C62.8502 30.3333 61.7035 31.8667 60.2369 32.96C58.7702 34.0267 57.0902 34.56 55.1969 34.56C53.3302 34.56 51.6635 34.0267 50.1969 32.96C48.7302 31.8667 47.5702 30.3333 46.7169 28.36C45.8902 26.36 45.4769 24 45.4769 21.28C45.4769 18.5867 45.8902 16.2533 46.7169 14.28C47.5702 12.28 48.7302 10.7467 50.1969 9.68C51.6635 8.58666 53.3302 8.04 55.1969 8.04ZM55.1969 12.88C54.2902 12.88 53.4902 13.2 52.7969 13.84C52.1035 14.48 51.5569 15.4267 51.1569 16.68C50.7835 17.9067 50.5969 19.44 50.5969 21.28C50.5969 23.0933 50.7835 24.64 51.1569 25.92C51.5569 27.1733 52.1035 28.12 52.7969 28.76C53.4902 29.4 54.2902 29.72 55.1969 29.72C56.1302 29.72 56.9435 29.4 57.6369 28.76C58.3302 28.12 58.8635 27.1733 59.2369 25.92C59.6369 24.64 59.8369 23.0933 59.8369 21.28C59.8369 19.44 59.6369 17.9067 59.2369 16.68C58.8635 15.4267 58.3302 14.48 57.6369 13.84C56.9435 13.2 56.1302 12.88 55.1969 12.88ZM106.994 5.44H112.314V42.6H106.994V5.44ZM100.634 18.52H107.634V22.84H100.634V18.52ZM82.8738 29.96H85.8738C87.9271 29.96 89.8204 29.9333 91.5538 29.88C93.3138 29.8267 95.0204 29.7333 96.6738 29.6C98.3271 29.4667 100.02 29.28 101.754 29.04L102.274 33.24C100.487 33.5333 98.7271 33.7467 96.9938 33.88C95.2871 34.0133 93.5271 34.1067 91.7138 34.16C89.9004 34.2133 87.9538 34.24 85.8738 34.24H82.8738V29.96ZM82.8738 8.56H100.034V12.88H88.1938V31.28H82.8738V8.56ZM86.9538 18.88H98.7938V23.04H86.9538V18.88ZM129.951 7.96C131.871 7.96 133.604 8.34667 135.151 9.12C136.697 9.89333 137.911 10.9733 138.791 12.36C139.671 13.72 140.111 15.2933 140.111 17.08C140.111 18.84 139.671 20.4133 138.791 21.8C137.911 23.1867 136.697 24.2667 135.151 25.04C133.604 25.8133 131.871 26.2 129.951 26.2C128.004 26.2 126.257 25.8133 124.711 25.04C123.164 24.2667 121.937 23.1867 121.031 21.8C120.151 20.4133 119.711 18.84 119.711 17.08C119.711 15.2933 120.151 13.72 121.031 12.36C121.937 10.9733 123.164 9.89333 124.711 9.12C126.257 8.34667 128.004 7.96 129.951 7.96ZM129.951 12.52C128.991 12.52 128.124 12.7067 127.351 13.08C126.604 13.4267 126.004 13.9467 125.551 14.64C125.124 15.3067 124.911 16.12 124.911 17.08C124.911 18.04 125.124 18.8667 125.551 19.56C126.004 20.2533 126.604 20.7867 127.351 21.16C128.124 21.5067 128.991 21.68 129.951 21.68C130.884 21.68 131.724 21.5067 132.471 21.16C133.217 20.7867 133.804 20.2533 134.231 19.56C134.684 18.8667 134.911 18.04 134.911 17.08C134.911 16.12 134.684 15.3067 134.231 14.64C133.804 13.9467 133.217 13.4267 132.471 13.08C131.724 12.7067 130.884 12.52 129.951 12.52ZM143.591 5.44H148.911V42.6H143.591V5.44ZM118.791 35.12L118.191 30.8C120.351 30.8 122.737 30.7867 125.351 30.76C127.991 30.7067 130.697 30.6 133.471 30.44C136.271 30.2533 138.977 29.9733 141.591 29.6L141.951 33.44C139.284 33.9733 136.577 34.36 133.831 34.6C131.084 34.8133 128.431 34.96 125.871 35.04C123.311 35.0933 120.951 35.12 118.791 35.12ZM182.765 17.08H192.525V21.36H182.765V17.08ZM172.685 8.32H176.965V13.72C176.965 16.04 176.765 18.2933 176.365 20.48C175.965 22.6667 175.352 24.7067 174.525 26.6C173.699 28.4933 172.645 30.16 171.365 31.6C170.112 33.04 168.619 34.2 166.885 35.08L163.565 30.84C165.139 30.0933 166.485 29.12 167.605 27.92C168.752 26.72 169.699 25.36 170.445 23.84C171.219 22.2933 171.779 20.6667 172.125 18.96C172.499 17.2267 172.685 15.48 172.685 13.72V8.32ZM173.765 8.32H178.005V13.72C178.005 15.4533 178.179 17.1733 178.525 18.88C178.872 20.56 179.392 22.1333 180.085 23.6C180.805 25.0667 181.725 26.3733 182.845 27.52C183.965 28.64 185.299 29.5467 186.845 30.24L183.645 34.48C181.912 33.6267 180.419 32.5067 179.165 31.12C177.912 29.7067 176.885 28.0933 176.085 26.28C175.312 24.4667 174.725 22.4933 174.325 20.36C173.952 18.2267 173.765 16.0133 173.765 13.72V8.32ZM189.845 5.44H195.165V42.6H189.845V5.44ZM227.882 5.48H232.962V42.52H227.882V5.48ZM223.482 19.68H229.602V24H223.482V19.68ZM219.922 6.08H224.882V40.88H219.922V6.08ZM207.482 11.28H211.522V14.52C211.522 16.8133 211.376 19.0267 211.082 21.16C210.816 23.2667 210.362 25.24 209.722 27.08C209.109 28.8933 208.282 30.52 207.242 31.96C206.202 33.4 204.909 34.5733 203.362 35.48L200.162 31.44C202.002 30.3467 203.456 28.9333 204.522 27.2C205.589 25.4667 206.349 23.52 206.802 21.36C207.256 19.1733 207.482 16.8933 207.482 14.52V11.28ZM208.562 11.28H212.602V14.52C212.602 16.68 212.829 18.7733 213.282 20.8C213.762 22.8267 214.536 24.64 215.602 26.24C216.696 27.84 218.162 29.12 220.002 30.08L216.962 34.12C214.882 33 213.229 31.4533 212.002 29.48C210.776 27.5067 209.896 25.24 209.362 22.68C208.829 20.12 208.562 17.4 208.562 14.52V11.28ZM201.322 9.24H218.162V13.52H201.322V9.24Z" fill="#354E34"/>
</g>
<defs>
<filter id="filter0_d_32_6" x="639.9" y="69.24" width="64.5769" height="30.52" filterUnits="userSpaceOnUse" color-interpolation-filters="sRGB">
<feFlood flood-opacity="0" result="BackgroundImageFix"/>
<feColorMatrix in="SourceAlpha" type="matrix" values="0 0 0 0 0 0 0 0 0 0 0 0 0 0 0 0 0 0 127 0" result="hardAlpha"/>
<feOffset dy="3"/>
<feGaussianBlur stdDeviation="3"/>
<feColorMatrix type="matrix" values="0 0 0 0 0 0 0 0 0 0 0 0 0 0 0 0 0 0 0.161 0"/>
<feBlend mode="normal" in2="BackgroundImageFix" result="effect1_dropShadow_32_6"/>
<feBlend mode="normal" in="SourceGraphic" in2="effect1_dropShadow_32_6" result="shape"/>
</filter>
<filter id="filter1_d_32_6" x="640.515" y="102.06" width="251.624" height="27.6899" filterUnits="userSpaceOnUse" color-interpolation-filters="sRGB">
<feFlood flood-opacity="0" result="BackgroundImageFix"/>
<feColorMatrix in="SourceAlpha" type="matrix" values="0 0 0 0 0 0 0 0 0 0 0 0 0 0 0 0 0 0 127 0" result="hardAlpha"/>
<feOffset dy="3"/>
<feGaussianBlur stdDeviation="3"/>
<feColorMatrix type="matrix" values="0 0 0 0 0 0 0 0 0 0 0 0 0 0 0 0 0 0 0.161 0"/>
<feBlend mode="normal" in2="BackgroundImageFix" result="effect1_dropShadow_32_6"/>
<feBlend mode="normal" in="SourceGraphic" in2="effect1_dropShadow_32_6" result="shape"/>
</filter>
<filter id="filter2_d_32_6" x="725.38" y="73.06" width="167.378" height="27.57" filterUnits="userSpaceOnUse" color-interpolation-filters="sRGB">
<feFlood flood-opacity="0" result="BackgroundImageFix"/>
<feColorMatrix in="SourceAlpha" type="matrix" values="0 0 0 0 0 0 0 0 0 0 0 0 0 0 0 0 0 0 127 0" result="hardAlpha"/>
<feOffset dy="3"/>
<feGaussianBlur stdDeviation="3"/>
<feColorMatrix type="matrix" values="0 0 0 0 0 0 0 0 0 0 0 0 0 0 0 0 0 0 0.161 0"/>
<feBlend mode="normal" in2="BackgroundImageFix" result="effect1_dropShadow_32_6"/>
<feBlend mode="normal" in="SourceGraphic" in2="effect1_dropShadow_32_6" result="shape"/>
</filter>
<filter id="filter3_d_32_6" x="0.710205" y="56.22" width="443.625" height="32.3312" filterUnits="userSpaceOnUse" color-interpolation-filters="sRGB">
<feFlood flood-opacity="0" result="BackgroundImageFix"/>
<feColorMatrix in="SourceAlpha" type="matrix" values="0 0 0 0 0 0 0 0 0 0 0 0 0 0 0 0 0 0 127 0" result="hardAlpha"/>
<feOffset dy="3"/>
<feGaussianBlur stdDeviation="3"/>
<feColorMatrix type="matrix" values="0 0 0 0 0 0 0 0 0 0 0 0 0 0 0 0 0 0 0.161 0"/>
<feBlend mode="normal" in2="BackgroundImageFix" result="effect1_dropShadow_32_6"/>
<feBlend mode="normal" in="SourceGraphic" in2="effect1_dropShadow_32_6" result="shape"/>
</filter>
<filter id="filter4_d_32_6" x="0.539978" y="100.415" width="378.984" height="27.2483" filterUnits="userSpaceOnUse" color-interpolation-filters="sRGB">
<feFlood flood-opacity="0" result="BackgroundImageFix"/>
<feColorMatrix in="SourceAlpha" type="matrix" values="0 0 0 0 0 0 0 0 0 0 0 0 0 0 0 0 0 0 127 0" result="hardAlpha"/>
<feOffset dy="3"/>
<feGaussianBlur stdDeviation="3"/>
<feColorMatrix type="matrix" values="0 0 0 0 0 0 0 0 0 0 0 0 0 0 0 0 0 0 0.161 0"/>
<feBlend mode="normal" in2="BackgroundImageFix" result="effect1_dropShadow_32_6"/>
<feBlend mode="normal" in="SourceGraphic" in2="effect1_dropShadow_32_6" result="shape"/>
</filter>
<filter id="filter5_d_32_6" x="2.67999" y="2.44" width="236.282" height="49.16" filterUnits="userSpaceOnUse" color-interpolation-filters="sRGB">
<feFlood flood-opacity="0" result="BackgroundImageFix"/>
<feColorMatrix in="SourceAlpha" type="matrix" values="0 0 0 0 0 0 0 0 0 0 0 0 0 0 0 0 0 0 127 0" result="hardAlpha"/>
<feOffset dy="3"/>
<feGaussianBlur stdDeviation="3"/>
<feColorMatrix type="matrix" values="0 0 0 0 0 0 0 0 0 0 0 0 0 0 0 0 0 0 0.161 0"/>
<feBlend mode="normal" in2="BackgroundImageFix" result="effect1_dropShadow_32_6"/>
<feBlend mode="normal" in="SourceGraphic" in2="effect1_dropShadow_32_6" result="shape"/>
</filter>
</defs>
</svg>
