<svg width="895" height="29" viewBox="0 0 895 29" fill="none" xmlns="http://www.w3.org/2000/svg">
<path d="M14 28.5C21.4558 28.5 27.5 22.4558 27.5 15C27.5 7.54416 21.4558 1.5 14 1.5C6.54416 1.5 0.5 7.54416 0.5 15C0.5 22.4558 6.54416 28.5 14 28.5Z" fill="url(#paint0_linear_1_5)"/>
<path d="M881 27.5C888.456 27.5 894.5 21.4558 894.5 14C894.5 6.54416 888.456 0.5 881 0.5C873.544 0.5 867.5 6.54416 867.5 14C867.5 21.4558 873.544 27.5 881 27.5Z" fill="url(#paint1_linear_1_5)"/>
<g filter="url(#filter0_d_1_5)">
<path d="M14.5 18.5L878.5 18.5C880.709 18.5 882.5 16.7091 882.5 14.5C882.5 12.2909 880.709 10.5 878.5 10.5L14.5 10.5C12.2908 10.5 10.5 12.2909 10.5 14.5C10.5 16.7091 12.2908 18.5 14.5 18.5Z" fill="url(#paint2_linear_1_5)"/>
</g>
<defs>
<filter id="filter0_d_1_5" x="4.5" y="7.5" width="884" height="20" filterUnits="userSpaceOnUse" color-interpolation-filters="sRGB">
<feFlood flood-opacity="0" result="BackgroundImageFix"/>
<feColorMatrix in="SourceAlpha" type="matrix" values="0 0 0 0 0 0 0 0 0 0 0 0 0 0 0 0 0 0 127 0" result="hardAlpha"/>
<feOffset dy="3"/>
<feGaussianBlur stdDeviation="3"/>
<feColorMatrix type="matrix" values="0 0 0 0 0 0 0 0 0 0 0 0 0 0 0 0 0 0 0.161 0"/>
<feBlend mode="normal" in2="BackgroundImageFix" result="effect1_dropShadow_1_5"/>
<feBlend mode="normal" in="SourceGraphic" in2="effect1_dropShadow_1_5" result="shape"/>
</filter>
<linearGradient id="paint0_linear_1_5" x1="14" y1="1.5" x2="14" y2="28.5" gradientUnits="userSpaceOnUse">
<stop stop-color="#D6BB95"/>
<stop offset="0.129" stop-color="#F3D0A2" stop-opacity="0.639"/>
<stop offset="0.304" stop-color="#CEB390"/>
<stop offset="0.372" stop-color="#C7AC8B"/>
<stop offset="1" stop-color="#67553E"/>
</linearGradient>
<linearGradient id="paint1_linear_1_5" x1="881" y1="0.5" x2="881" y2="27.5" gradientUnits="userSpaceOnUse">
<stop stop-color="#D6BB95"/>
<stop offset="0.129" stop-color="#F3D0A2" stop-opacity="0.639"/>
<stop offset="0.304" stop-color="#CEB390"/>
<stop offset="0.372" stop-color="#C7AC8B"/>
<stop offset="1" stop-color="#67553E"/>
</linearGradient>
<linearGradient id="paint2_linear_1_5" x1="446.5" y1="11.636" x2="446.5" y2="16.82" gradientUnits="userSpaceOnUse">
<stop stop-color="#D6BB95"/>
<stop offset="0.415" stop-color="#CEB390"/>
<stop offset="1" stop-color="#978268"/>
</linearGradient>
</defs>
</svg>
